<?xml version="1.0" encoding="UTF-8"?>
<svg version="1.1" xmlns="http://www.w3.org/2000/svg" width="512" height="512">
<path d="M0 0 C1.26876984 -0.01283524 2.53753967 -0.02567047 3.84475708 -0.03889465 C5.2283692 -0.04706544 6.61198579 -0.05450852 7.99560547 -0.0612793 C8.69657223 -0.06535482 9.39753899 -0.06943035 10.11974716 -0.07362938 C13.83357189 -0.09446215 17.54736003 -0.10877313 21.26123047 -0.11816406 C25.07404748 -0.12919342 28.88627526 -0.16356016 32.69888496 -0.20333576 C35.65024812 -0.22964131 38.60147415 -0.23786836 41.55294418 -0.24144554 C42.9570092 -0.24627948 44.36106943 -0.25780104 45.76501846 -0.27648354 C56.71378594 -0.41306798 65.95205897 0.76450039 74.20654297 8.47387695 C80.00473863 14.9228905 82.968237 21.92418679 83.02832031 30.63452148 C83.04745987 32.52776657 83.04745987 32.52776657 83.06698608 34.45925903 C83.07004537 35.82610927 83.07227226 37.19296158 83.07373047 38.55981445 C83.08016853 39.97980886 83.08689762 41.39980198 83.09390259 42.8197937 C83.1058521 45.79371203 83.10958613 48.76751445 83.10839844 51.74145508 C83.10819608 55.52043461 83.13542144 59.29865508 83.16994286 63.07745552 C83.19237889 66.0117624 83.19623083 68.94589193 83.19517899 71.88027573 C83.19751288 73.27150954 83.20620907 74.66274994 83.22184372 76.05389786 C83.37819075 91.41037544 79.39809863 104.24795098 68.74560547 115.53637695 C65.4964021 119.06083693 62.6485136 122.65539161 59.91802979 126.57777405 C52.69071198 136.74995298 44.05523252 147.96965334 31.37023926 150.97479248 C13.23100024 153.61128515 -5.09336485 151.3882581 -23.26220703 150.17700195 C-23.26220703 171.29700195 -23.26220703 192.41700195 -23.26220703 214.17700195 C-44.38220703 214.17700195 -65.50220703 214.17700195 -87.26220703 214.17700195 C-86.27220703 222.75700195 -85.28220703 231.33700195 -84.26220703 240.17700195 C-83.32737431 256.63173711 -83.74939932 270.03643297 -94.95397949 282.70672607 C-102.26805426 290.55123998 -110.20873286 297.55293186 -118.53955078 304.2902832 C-120.75559215 306.10086595 -122.95966221 307.92472238 -125.15283203 309.76293945 C-125.67639786 310.19956657 -126.19996368 310.6361937 -126.73939514 311.08605194 C-132.705024 316.07588871 -132.705024 316.07588871 -135.90405273 322.91931152 C-135.8745624 328.38976851 -134.25536462 333.04489474 -132.10162354 338.01551819 C-125.74646661 354.37994331 -129.28666378 379.35598794 -133.26220703 396.17700195 C-133.53629395 397.34755127 -133.53629395 397.34755127 -133.81591797 398.54174805 C-140.24080919 424.77408305 -153.46769234 447.95289836 -172.26220703 467.17700195 C-173.12330078 468.0999707 -173.98439453 469.02293945 -174.87158203 469.97387695 C-197.80247431 493.99025526 -232.6425444 510.90012558 -266 512.33813477 C-267.33472366 512.35800596 -268.66954933 512.37173658 -270.00439453 512.38012695 C-270.73103302 512.38582703 -271.45767151 512.3915271 -272.20632935 512.3973999 C-273.74089123 512.40679715 -275.27547282 512.41336274 -276.81005859 512.41723633 C-279.09657762 512.42683146 -281.38215247 512.4578576 -283.66845703 512.48950195 C-297.47438958 512.58945989 -310.77656341 510.65284161 -324.01220703 506.61450195 C-325.24136841 506.23986816 -325.24136841 506.23986816 -326.49536133 505.85766602 C-348.58640937 498.77948397 -367.24938174 486.69069979 -384.26220703 471.17700195 C-385.00986328 470.5015332 -385.75751953 469.82606445 -386.52783203 469.13012695 C-404.97706664 451.58085501 -418.78927172 426.67554276 -425.26220703 402.17700195 C-425.55635498 401.07267822 -425.55635498 401.07267822 -425.85644531 399.94604492 C-429.00044164 387.48574223 -429.65388023 375.14898832 -429.69970703 362.36450195 C-429.70588043 361.63759155 -429.71205383 360.91068115 -429.71841431 360.16174316 C-429.93705402 320.14672121 -412.82565684 283.83010158 -385.13720703 255.55200195 C-362.74173484 233.32536481 -333.4318885 218.93852791 -302.26220703 214.17700195 C-301.09044922 213.99395508 -299.91869141 213.8109082 -298.71142578 213.62231445 C-281.76043912 211.59038616 -261.34372988 211.26804725 -245.00899786 216.96249241 C-241.28203795 218.09480324 -238.57705971 218.85245708 -235.00475705 217.01732361 C-232.60236831 215.02391658 -230.46705314 212.90409787 -228.31312561 210.64405823 C-227.4711308 209.80949425 -226.62913599 208.97493028 -225.76162618 208.11507648 C-223.43423043 205.79627787 -221.13578792 203.45263857 -218.84694445 201.09589064 C-216.37042859 198.55927646 -213.85916717 196.05748419 -211.35188293 193.55134583 C-207.01190551 189.20401867 -202.69424484 184.83550544 -198.39076424 180.45205879 C-192.15882992 174.10475495 -185.89197594 167.79287474 -179.61574572 161.48940288 C-169.42079845 151.24867236 -159.25146339 140.98290624 -149.09936523 130.69970703 C-139.26017323 120.73361905 -129.41425149 110.77430032 -119.55541992 100.82763672 C-118.9489455 100.215748 -118.34247108 99.60385929 -117.71761865 98.9734285 C-111.08892961 92.2861131 -104.45739827 85.60162667 -97.82244778 78.92052364 C-96.94627611 78.03824168 -96.94627611 78.03824168 -96.052404 77.13813583 C-93.71638644 74.78590647 -91.38033607 72.43370988 -89.04392105 70.08187532 C-82.21737527 63.21014125 -75.39973877 56.3298484 -68.59809243 49.43346339 C-64.32641286 45.10272547 -60.04809318 40.77862751 -55.76461322 36.459561 C-53.29708113 33.97085696 -50.83310547 31.47887603 -48.3782196 28.97769165 C-45.70755263 26.25998915 -43.02450198 23.55510675 -40.33827209 20.85279846 C-39.5755992 20.07028876 -38.8129263 19.28777907 -38.02714211 18.48155695 C-27.77181883 8.23411847 -14.81321329 0.13070522 0 0 Z M-28.39283752 41.06712341 C-29.26624045 41.93881749 -30.13964337 42.81051156 -31.03951305 43.70862061 C-33.43995628 46.10635719 -35.8358723 48.50845471 -38.22991145 50.91257513 C-40.82122366 53.51257737 -43.41836843 56.10674254 -46.01478577 58.7016449 C-50.50490296 63.19071673 -54.99136288 67.68341663 -59.47531319 72.17864799 C-65.9582433 78.67787766 -72.44673217 85.17153454 -78.93656241 91.6638732 C-89.46740607 102.19908699 -99.99378175 112.73875322 -110.51733398 123.28125 C-120.73600993 133.51830243 -130.95679808 143.75323843 -141.18041992 153.98535156 C-141.81129847 154.61675556 -142.44217702 155.24815956 -143.09217311 155.89869701 C-146.25732602 159.06646013 -149.42252036 162.23418185 -152.5877353 165.40188301 C-178.81898361 191.65384256 -205.04297525 217.91304111 -231.26220703 244.17700195 C-231.81798935 244.00506317 -232.37377167 243.83312439 -232.94639587 243.65597534 C-235.51759518 242.86368612 -238.09103305 242.07891373 -240.66455078 241.29418945 C-241.53833374 241.02372803 -242.4121167 240.7532666 -243.31237793 240.47460938 C-275.69186047 230.64178292 -310.29614285 234.30890517 -340.20996094 250.04711914 C-351.13292698 256.06085776 -360.37283498 263.49316452 -369.26220703 272.17700195 C-370.05111328 272.9040332 -370.84001953 273.63106445 -371.65283203 274.38012695 C-393.62529253 295.1233589 -406.41947588 326.29554776 -407.54345703 356.2355957 C-408.34888665 392.85467726 -396.35780341 425.24308568 -371.26220703 452.17700195 C-348.47597088 475.91788124 -316.21859594 489.76141366 -283.4621582 490.57910156 C-270.61474588 490.70858476 -258.65772293 489.54482964 -246.26220703 486.17700195 C-245.60397949 486.00571777 -244.94575195 485.83443359 -244.26757812 485.65795898 C-223.99615215 480.23453199 -206.3608522 468.4368335 -191.26220703 454.17700195 C-190.45009766 453.44094727 -189.63798828 452.70489258 -188.80126953 451.9465332 C-176.97451543 440.809984 -168.84693684 426.89741033 -162.26220703 412.17700195 C-161.78009766 411.10063477 -161.29798828 410.02426758 -160.80126953 408.9152832 C-149.52586716 381.68347809 -149.70753492 351.40935167 -158.37939453 323.54418945 C-158.65710693 322.63596436 -158.93481934 321.72773926 -159.22094727 320.79199219 C-159.89642765 318.58542294 -160.57688358 316.38052978 -161.26220703 314.17700195 C-160.61074707 313.6809848 -159.95928711 313.18496765 -159.28808594 312.67391968 C-150.99968115 306.27988091 -143.02919239 299.57051075 -135.26220703 292.55200195 C-134.64459 291.99430618 -134.02697296 291.43661041 -133.39064026 290.86201477 C-116.48138736 275.40986989 -106.72165634 262.06437448 -105.55596924 238.77578735 C-105.33038396 223.16038008 -107.67503035 207.68249724 -109.26220703 192.17700195 C-88.14220703 192.17700195 -67.02220703 192.17700195 -45.26220703 192.17700195 C-45.26220703 171.05700195 -45.26220703 149.93700195 -45.26220703 128.17700195 C-38.1871875 128.68166992 -38.1871875 128.68166992 -30.96923828 129.1965332 C5.48958139 132.92068337 5.48958139 132.92068337 37.81117249 120.133255 C44.1666567 113.90228712 49.20162295 106.79537019 53.73779297 99.17700195 C54.74585772 97.67629622 55.75473922 96.17613809 56.76513672 94.67700195 C61.41682809 87.62000887 61.0450137 79.77195912 61.03857422 71.63793945 C61.04285934 70.43891998 61.04714447 69.23990051 61.05155945 68.00454712 C61.05728648 65.4780541 61.05781505 62.9515446 61.0534668 60.42504883 C61.05029807 56.55822805 61.07381786 52.69216625 61.09912109 48.82543945 C61.10139334 46.36710708 61.10209793 43.90877266 61.10107422 41.45043945 C61.11488884 39.71750137 61.11488884 39.71750137 61.12898254 37.94955444 C61.12275375 36.87138458 61.11652496 35.79321472 61.11010742 34.68237305 C61.11073685 33.73752045 61.11136627 32.79266785 61.11201477 31.81918335 C60.65555381 28.59635491 59.69749532 26.76565926 57.73779297 24.17700195 C54.67803939 22.03750571 52.05520475 21.9203491 48.37768555 21.90234375 C47.30589554 21.89281174 46.23410553 21.88327972 45.12983704 21.87345886 C43.97565781 21.87437027 42.82147858 21.87528168 41.63232422 21.8762207 C40.4385466 21.87193558 39.24476898 21.86765045 38.01481628 21.86323547 C35.48717889 21.85749129 32.95952497 21.85699255 30.43188477 21.86132812 C26.58239114 21.86447571 22.73367526 21.84107182 18.88427734 21.81567383 C16.42529393 21.81339949 13.96630847 21.81269796 11.50732422 21.8137207 C10.36326614 21.80451096 9.21920807 21.79530121 8.04048157 21.78581238 C-8.52632652 21.88069638 -17.08631698 29.67813004 -28.39283752 41.06712341 Z " fill="#F0F6FC" transform="translate(429.26220703125,-0.177001953125)"/>
<path d="M0 0 C4.90708223 4.90708223 7.04375389 10.15630831 7.5 17 C7.40116071 22.89741081 5.73006929 27.48991761 1.9375 32 C-4.26427746 37.19218578 -8.47955831 39.58969001 -16.59765625 39.46875 C-22.45103207 38.87385155 -27.59930808 36.40069192 -31.75 32.25 C-35.98531064 26.12596975 -37.50488863 20.67756487 -36.75 13.25 C-35.33432013 7.59768993 -33.00202797 2.49906607 -28.078125 -0.90625 C-18.51366643 -6.62857564 -9.23787062 -5.87864494 0 0 Z " fill="#F0F6FC" transform="translate(142.75,366.75)"/>
</svg>
