<?xml version="1.0" encoding="UTF-8"?>
<svg version="1.1" xmlns="http://www.w3.org/2000/svg" width="512" height="512">
<path d="M0 0 C1.01790619 0.00215515 2.03581238 0.0043103 3.08456421 0.00653076 C17.69363523 0.05620146 32.02575853 0.30709809 46.375 3.3125 C47.34985352 3.51117676 48.32470703 3.70985352 49.32910156 3.91455078 C88.46706278 12.1015107 124.71208214 27.78530345 156.375 52.3125 C157.27347656 52.99828125 158.17195313 53.6840625 159.09765625 54.390625 C174.64697517 66.51465814 189.2952143 80.73068469 201.375 96.3125 C202.14972656 97.27027344 202.92445313 98.22804688 203.72265625 99.21484375 C238.26056965 142.61986011 256.81394766 197.76289597 256.69067383 253.03979492 C256.6875221 255.97938487 256.71104926 258.9179558 256.73632812 261.85742188 C256.78098737 275.23056192 255.57551542 288.12666711 253.375 301.3125 C253.09281616 303.01805054 253.09281616 303.01805054 252.80493164 304.75805664 C245.77946967 343.86954746 228.79665906 381.05202178 204.375 412.3125 C203.61574219 413.28445313 202.85648437 414.25640625 202.07421875 415.2578125 C189.73986402 430.63741644 175.93895499 445.19015196 160.375 457.3125 C159.43914062 458.07691406 158.50328125 458.84132813 157.5390625 459.62890625 C125.58628299 485.2157721 86.41988322 501.72551276 46.375 509.3125 C45.56562988 509.47621094 44.75625977 509.63992188 43.92236328 509.80859375 C13.88110013 515.67977137 -20.7615176 514.58512909 -50.625 508.3125 C-52.14794678 507.99901611 -52.14794678 507.99901611 -53.70166016 507.67919922 C-90.84546555 499.78695344 -125.70945445 483.68345578 -155.625 460.3125 C-156.59695312 459.55324219 -157.56890625 458.79398437 -158.5703125 458.01171875 C-173.94991644 445.67736402 -188.50265196 431.87645499 -200.625 416.3125 C-201.77162109 414.90871094 -201.77162109 414.90871094 -202.94140625 413.4765625 C-228.5282721 381.52378299 -245.03801276 342.35738322 -252.625 302.3125 C-252.78871094 301.50312988 -252.95242187 300.69375977 -253.12109375 299.85986328 C-258.59069558 271.87335724 -258.46977511 238.21828161 -252.625 210.3125 C-252.42632324 209.33764648 -252.22764648 208.36279297 -252.02294922 207.35839844 C-241.93598313 159.13741149 -219.89911449 114.53770064 -185.40722656 79.14160156 C-183.63301167 77.32072238 -181.87518486 75.48496071 -180.1171875 73.6484375 C-173.01562574 66.30860161 -165.60158994 59.73928631 -157.40917969 53.64355469 C-155.59628085 52.2910746 -153.80174757 50.91656557 -152.0078125 49.5390625 C-143.60124472 43.15234877 -134.85975388 37.61076633 -125.65234375 32.45166016 C-123.78933792 31.40484113 -121.94116361 30.33571119 -120.09375 29.26171875 C-83.4933446 8.69459905 -41.63834482 -0.15855121 0 0 Z M-136.625 66.3125 C-137.20233887 66.73144531 -137.77967773 67.15039062 -138.37451172 67.58203125 C-147.02323413 73.90119056 -154.90900744 80.89398593 -162.625 88.3125 C-163.17188477 88.83215332 -163.71876953 89.35180664 -164.28222656 89.88720703 C-172.56602146 97.78429512 -179.81157241 106.12384296 -186.625 115.3125 C-187.0487793 115.87549805 -187.47255859 116.43849609 -187.90917969 117.01855469 C-212.36186577 149.59081063 -227.41046895 187.96925198 -232.625 228.3125 C-232.7192627 229.01318604 -232.81352539 229.71387207 -232.91064453 230.43579102 C-240.06227297 290.96876051 -221.29108752 352.74160462 -184.125 400.5625 C-178.93814203 407.11035717 -173.4032246 413.28439575 -167.625 419.3125 C-167.12242676 419.84230469 -166.61985352 420.37210937 -166.10205078 420.91796875 C-158.1905107 429.22151098 -149.83272174 436.48493586 -140.625 443.3125 C-140.06200195 443.7362793 -139.49900391 444.16005859 -138.91894531 444.59667969 C-90.88189332 480.65911745 -29.03725318 496.79428971 30.5625 489.1875 C81.00166605 481.8566242 126.64653592 459.51847954 163.375 424.3125 C163.90480469 423.80992676 164.43460937 423.30735352 164.98046875 422.78955078 C173.28401098 414.8780107 180.54743586 406.52022174 187.375 397.3125 C188.01066895 396.46800293 188.01066895 396.46800293 188.65917969 395.60644531 C213.35448115 362.711013 228.34592311 324.07109197 233.375 283.3125 C233.4692627 282.5891748 233.56352539 281.86584961 233.66064453 281.12060547 C240.69151019 220.8614331 221.84184909 159.62703909 184.875 112.0625 C179.68814203 105.51464283 174.1532246 99.34060425 168.375 93.3125 C167.62114014 92.51779297 167.62114014 92.51779297 166.85205078 91.70703125 C158.9405107 83.40348902 150.58272174 76.14006414 141.375 69.3125 C140.81200195 68.8887207 140.24900391 68.46494141 139.66894531 68.02832031 C107.09668937 43.57563423 68.71824802 28.52703105 28.375 23.3125 C27.67431396 23.2182373 26.97362793 23.12397461 26.25170898 23.02685547 C-30.78605477 16.28816585 -90.38844289 32.52658725 -136.625 66.3125 Z " fill="#F0F6FC" transform="translate(255.625,-0.3125)"/>
<path d="M0 0 C3.02508145 1.73602105 5.41790069 3.83580137 7 7 C7.0932753 9.80730125 7.12575925 12.58961098 7.11352539 15.39697266 C7.11367142 16.26533249 7.11381744 17.13369232 7.1139679 18.02836609 C7.11326961 20.90695672 7.1054811 23.78548314 7.09765625 26.6640625 C7.09579177 28.65660568 7.09436801 30.64914931 7.09336853 32.64169312 C7.08954569 37.89259094 7.07971737 43.14346122 7.06866455 48.39434814 C7.05844543 53.74987414 7.05386983 59.10540457 7.04882812 64.4609375 C7.03809491 74.97397045 7.02102127 85.48698294 7 96 C8.10167511 95.98889694 9.20335022 95.97779388 10.33840942 95.96635437 C20.72604688 95.86494917 31.11358377 95.79002048 41.50160408 95.74093914 C46.84209973 95.71485738 52.18219545 95.67948478 57.52246094 95.62280273 C62.67719319 95.56843302 67.83154105 95.53856877 72.98653793 95.52561378 C74.95214768 95.51638286 76.91773664 95.49835675 78.88318253 95.47134972 C81.63889089 95.43499339 84.39301575 95.43005738 87.14892578 95.43237305 C87.95956985 95.41439667 88.77021393 95.39642029 89.60542297 95.37789917 C93.71334797 95.41519253 96.24099074 95.78548785 99.49069214 98.41047668 C102.89208442 101.92060183 103.39523457 103.9728048 103.359375 108.89453125 C102.72418186 112.61593453 100.66020984 114.40312849 98 117 C94.74873227 118.62563386 91.17462025 118.1290896 87.60302734 118.11352539 C86.30048759 118.11374443 86.30048759 118.11374443 84.97163391 118.1139679 C82.09304328 118.11326961 79.21451686 118.1054811 76.3359375 118.09765625 C74.34339432 118.09579177 72.35085069 118.09436801 70.35830688 118.09336853 C65.10740906 118.08954569 59.85653878 118.07971737 54.60565186 118.06866455 C49.25012586 118.05844543 43.89459543 118.05386983 38.5390625 118.04882812 C28.02602955 118.03809491 17.51301706 118.02102127 7 118 C7.01110306 119.10167511 7.02220612 120.20335022 7.03364563 121.33840942 C7.13505083 131.72604688 7.20997952 142.11358377 7.25906086 152.50160408 C7.28514262 157.84209973 7.32051522 163.18219545 7.37719727 168.52246094 C7.43156698 173.67719319 7.46143123 178.83154105 7.47438622 183.98653793 C7.48361714 185.95214768 7.50164325 187.91773664 7.52865028 189.88318253 C7.56500661 192.63889089 7.56994262 195.39301575 7.56762695 198.14892578 C7.58560333 198.95956985 7.60357971 199.77021393 7.62210083 200.60542297 C7.58480747 204.71334797 7.21451215 207.24099074 4.58952332 210.49069214 C1.07939817 213.89208442 -0.9728048 214.39523457 -5.89453125 214.359375 C-9.61593453 213.72418186 -11.40312849 211.66020984 -14 209 C-15.62563386 205.74873227 -15.1290896 202.17462025 -15.11352539 198.60302734 C-15.11367142 197.73466751 -15.11381744 196.86630768 -15.1139679 195.97163391 C-15.11326961 193.09304328 -15.1054811 190.21451686 -15.09765625 187.3359375 C-15.09579177 185.34339432 -15.09436801 183.35085069 -15.09336853 181.35830688 C-15.08954569 176.10740906 -15.07971737 170.85653878 -15.06866455 165.60565186 C-15.05844543 160.25012586 -15.05386983 154.89459543 -15.04882812 149.5390625 C-15.03809491 139.02602955 -15.02102127 128.51301706 -15 118 C-16.10167511 118.01110306 -17.20335022 118.02220612 -18.33840942 118.03364563 C-28.72604688 118.13505083 -39.11358377 118.20997952 -49.50160408 118.25906086 C-54.84209973 118.28514262 -60.18219545 118.32051522 -65.52246094 118.37719727 C-70.67719319 118.43156698 -75.83154105 118.46143123 -80.98653793 118.47438622 C-82.95214768 118.48361714 -84.91773664 118.50164325 -86.88318253 118.52865028 C-89.63889089 118.56500661 -92.39301575 118.56994262 -95.14892578 118.56762695 C-95.95956985 118.58560333 -96.77021393 118.60357971 -97.60542297 118.62210083 C-101.71334797 118.58480747 -104.24099074 118.21451215 -107.49069214 115.58952332 C-110.89208442 112.07939817 -111.39523457 110.0271952 -111.359375 105.10546875 C-110.72418186 101.38406547 -108.66020984 99.59687151 -106 97 C-102.74873227 95.37436614 -99.17462025 95.8709104 -95.60302734 95.88647461 C-94.30048759 95.88625557 -94.30048759 95.88625557 -92.97163391 95.8860321 C-90.09304328 95.88673039 -87.21451686 95.8945189 -84.3359375 95.90234375 C-82.34339432 95.90420823 -80.35085069 95.90563199 -78.35830688 95.90663147 C-73.10740906 95.91045431 -67.85653878 95.92028263 -62.60565186 95.93133545 C-57.25012586 95.94155457 -51.89459543 95.94613017 -46.5390625 95.95117188 C-36.02602955 95.96190509 -25.51301706 95.97897873 -15 96 C-15.01110306 94.89832489 -15.02220612 93.79664978 -15.03364563 92.66159058 C-15.13505083 82.27395312 -15.20997952 71.88641623 -15.25906086 61.49839592 C-15.28514262 56.15790027 -15.32051522 50.81780455 -15.37719727 45.47753906 C-15.43156698 40.32280681 -15.46143123 35.16845895 -15.47438622 30.01346207 C-15.48361714 28.04785232 -15.50164325 26.08226336 -15.52865028 24.11681747 C-15.56500661 21.36110911 -15.56994262 18.60698425 -15.56762695 15.85107422 C-15.58560333 15.04043015 -15.60357971 14.22978607 -15.62210083 13.39457703 C-15.58480747 9.28665203 -15.21451215 6.75900926 -12.58952332 3.50930786 C-8.71386758 -0.246292 -5.30491699 -0.90547748 0 0 Z " fill="#EFF6FC" transform="translate(260,149)"/>
</svg>
