<?xml version="1.0" encoding="UTF-8"?>
<svg version="1.1" xmlns="http://www.w3.org/2000/svg" width="512" height="512">
<path d="M0 0 C0.71031785 0.23417263 1.4206357 0.46834527 2.15247834 0.70961404 C4.51130418 1.48928804 6.86644186 2.27953589 9.22171021 3.06988525 C10.92072293 3.63396239 12.61994747 4.1974019 14.31936646 4.76025391 C18.92094508 6.2865325 23.51932206 7.82224727 28.11704016 9.36011028 C32.93950409 10.97182852 37.764411 12.57620372 42.58892822 14.1817627 C50.69261303 16.87996102 58.7941722 19.58446786 66.89456177 22.2925415 C76.24141673 25.41722048 85.59181747 28.53109839 94.94414413 31.63935828 C102.98870954 34.31329955 111.03129845 36.99312122 119.07228577 39.67780328 C123.86805666 41.27898362 128.6644682 42.87816524 133.46267319 44.47203827 C137.97772656 45.97221684 142.49024241 47.47979853 147.0009613 48.99295807 C148.65038268 49.54495616 150.3006461 50.09444598 151.95183182 50.6411438 C169.87929929 56.58054296 185.93267074 63.85948905 194.96829224 81.59429932 C200.03089469 93.10288978 200.79479862 103.95337512 200.7583313 116.38458252 C200.7610464 117.94802513 200.76461023 119.51146646 200.76895142 121.0749054 C200.77802432 125.29876128 200.77455009 129.5225188 200.76819324 133.74637628 C200.76309685 138.1941555 200.76783566 142.64192683 200.77096558 147.08970642 C200.77459884 154.5685475 200.7698273 162.04734902 200.76028442 169.52618408 C200.74944495 178.11927468 200.7528951 186.71227002 200.76393723 195.30535823 C200.77308107 202.72324466 200.77425976 210.14110278 200.7690599 217.55899304 C200.76597319 221.97103407 200.7654374 226.38303073 200.77213287 230.79506874 C200.82954935 274.60592717 200.82954935 274.60592717 196.31204224 296.08648682 C195.99058228 297.63855835 195.99058228 297.63855835 195.66262817 299.22198486 C191.7060553 317.62956239 185.81739979 334.83283963 177.49954224 351.71148682 C176.9216394 352.90185547 176.9216394 352.90185547 176.33206177 354.11627197 C168.30176208 370.52805063 158.31764156 385.76522401 146.49954224 399.71148682 C145.70290161 400.69117432 144.90626099 401.67086182 144.08547974 402.68023682 C137.76869274 410.35389534 130.94286174 417.47730261 123.93704224 424.52398682 C123.07506226 425.39515137 122.21308228 426.26631592 121.32498169 427.16387939 C115.35912719 433.10149985 109.09101605 438.48255804 102.49954224 443.71148682 C101.35436872 444.64168626 100.20972331 445.57253682 99.06594849 446.50445557 C81.86035519 460.21970744 63.73637366 472.03931988 44.49954224 482.71148682 C43.55739868 483.23484619 42.61525513 483.75820557 41.64456177 484.29742432 C26.05383231 492.87518296 9.94651517 499.96066908 -6.50045776 506.71148682 C-7.39087769 507.09200195 -8.28129761 507.47251709 -9.19869995 507.86456299 C-13.14591504 509.31692713 -16.04569208 508.32710478 -19.83932495 506.72174072 C-22.71492007 505.37707985 -25.54667555 503.96454928 -28.37545776 502.52398682 C-29.42974976 501.99079834 -30.48404175 501.45760986 -31.57028198 500.90826416 C-56.08113948 488.35268019 -80.00879017 473.94543692 -101.77340698 457.04156494 C-104.37976374 455.03429442 -107.03773402 453.09778237 -109.68795776 451.14898682 C-118.91145642 444.22823409 -127.58356689 436.63951335 -136.10983276 428.88336182 C-137.71502949 427.42504584 -139.32981207 425.97721772 -140.95358276 424.53961182 C-150.05040729 416.47261648 -158.64124024 407.99363635 -166.50045776 398.71148682 C-167.30869995 397.79238525 -168.11694214 396.87328369 -168.94967651 395.92633057 C-181.11901436 381.99482661 -191.19652993 366.66902041 -200.50045776 350.71148682 C-200.86622925 350.09128662 -201.23200073 349.47108643 -201.6088562 348.83209229 C-220.09411788 317.18150574 -227.65979567 281.14391537 -227.64572144 244.82037354 C-227.64872053 243.25849325 -227.65212476 241.69661371 -227.65589905 240.13473511 C-227.66466231 235.92829284 -227.66707376 231.72187096 -227.66771483 227.51542044 C-227.66842918 224.88135285 -227.67057062 222.24729034 -227.67321205 219.61322403 C-227.68243674 210.40753097 -227.68655014 201.20185231 -227.6857605 191.99615479 C-227.68515897 183.43916424 -227.69573297 174.88223658 -227.71150416 166.32526195 C-227.72460316 158.95337183 -227.72994348 151.58150223 -227.72930509 144.20960057 C-227.729051 139.81749508 -227.73185343 135.4254457 -227.74248314 131.0333519 C-227.75220518 126.90462415 -227.75221533 122.77600575 -227.74496651 118.64727402 C-227.74392609 117.13888386 -227.74625104 115.63048674 -227.75232697 114.12210846 C-227.8162202 97.15215068 -225.11561471 82.73454158 -213.50045776 69.71148682 C-212.96678589 69.08500244 -212.43311401 68.45851807 -211.88327026 67.81304932 C-203.05209153 58.13678171 -190.20130739 54.60518126 -178.14889526 50.61773682 C-176.37039731 50.02082047 -174.59219916 49.42301028 -172.81427002 48.82440186 C-167.81383405 47.14395305 -162.80896598 45.47704778 -157.80342102 43.81188965 C-151.93840097 41.8579216 -146.07772917 39.89097266 -140.21627808 37.92633057 C-126.54088686 33.34557459 -112.85911186 28.7840958 -99.17579627 24.22707462 C-93.75343733 22.42107977 -88.33183239 20.61282987 -82.91039622 18.80406713 C-77.57550614 17.02424507 -72.24021789 15.24562045 -66.90461004 13.4679513 C-63.76275625 12.42117682 -60.62106776 11.37391476 -57.47966385 10.32579041 C-50.81333903 8.10203759 -44.14281959 5.89182442 -37.4671402 3.69631958 C-34.60688799 2.74681786 -31.75578346 1.77347716 -28.90542603 0.79473877 C-27.2150982 0.22809051 -25.52461781 -0.33810295 -23.83395386 -0.90374756 C-23.09684488 -1.16447304 -22.35973591 -1.42519852 -21.6002903 -1.69382477 C-20.90737577 -1.92177483 -20.21446125 -2.14972488 -19.50054932 -2.38458252 C-18.91615774 -2.5848983 -18.33176617 -2.78521408 -17.72966576 -2.99160004 C-11.6463291 -3.80185311 -5.70476642 -1.93437524 0 0 Z M-20.90548706 21.95806885 C-21.72912247 22.23382751 -22.55275787 22.50958618 -23.40135193 22.79370117 C-24.28354904 23.09914856 -25.16574615 23.40459595 -26.07467651 23.71929932 C-27.48166054 24.19390594 -27.48166054 24.19390594 -28.91706848 24.67810059 C-30.94474844 25.36310615 -32.97105679 26.05218239 -34.99612427 26.74487305 C-39.36470714 28.23893758 -43.73992532 29.71309801 -48.11489868 31.18832397 C-50.36266198 31.94636857 -52.61009632 32.70538925 -54.85720825 33.46536255 C-63.78169704 36.48105025 -72.73164248 39.41041844 -81.69696045 42.30200195 C-89.04942149 44.67708977 -96.39270549 47.08053822 -103.73678589 49.48138428 C-106.47878124 50.3775664 -109.2209744 51.27313006 -111.96334839 52.16815186 C-121.50276306 55.28247622 -131.03797815 58.40920299 -140.56700706 61.55517387 C-145.02394316 63.02631593 -149.48230142 64.49273821 -153.9446106 65.94750977 C-158.19060108 67.33199673 -162.43200938 68.72973669 -166.67048645 70.13705063 C-168.24959247 70.65887437 -169.83024331 71.17605021 -171.41252136 71.6881752 C-183.87559496 75.72708158 -196.07914545 80.46680105 -202.56295776 92.71929932 C-206.14001592 101.48997076 -205.64904863 111.02800216 -205.64572144 120.33404541 C-205.64871865 121.70188996 -205.65212246 123.06973367 -205.65589905 124.43757629 C-205.66469838 128.13914804 -205.66707579 131.84069662 -205.66771483 135.54227781 C-205.66842906 137.86823099 -205.67057068 140.19417842 -205.67321205 142.52013016 C-205.68246077 150.67441424 -205.68654862 158.82868204 -205.6857605 166.98297119 C-205.68516383 174.51482476 -205.69563547 182.04660575 -205.71150416 189.57844102 C-205.7247246 196.09190935 -205.72993823 202.60535446 -205.72930509 209.11883605 C-205.72905377 212.98725347 -205.73169498 216.85560672 -205.74248314 220.72401047 C-205.90955598 285.31282109 -191.00196413 340.02891651 -145.50045776 387.71148682 C-144.40896572 388.97531971 -143.32485517 390.2455899 -142.25045776 391.52398682 C-138.70030398 395.61568949 -134.88397774 399.43753688 -131.06295776 403.27398682 C-130.4419519 403.89958496 -129.82094604 404.52518311 -129.18112183 405.16973877 C-98.56033936 435.69026986 -53.89159408 470.91444138 -12.50045776 484.71148682 C-10.33903081 484.1171708 -10.33903081 484.1171708 -8.01998901 483.04351807 C-7.11546997 482.65115967 -6.21095093 482.25880127 -5.27902222 481.85455322 C-4.30022095 481.41546631 -3.32141968 480.97637939 -2.31295776 480.52398682 C-1.29355103 480.07200928 -0.27414429 479.62003174 0.77615356 479.15435791 C49.15140213 457.46596731 98.13811049 426.67927235 130.49954224 383.71148682 C131.45835686 382.48037837 132.41806126 381.24996262 133.37844849 380.02008057 C170.54969049 331.96887875 178.6564918 278.23116648 178.66679931 219.06860113 C178.66751881 216.74085225 178.66966944 214.41310895 178.67229652 212.08536148 C178.68147919 203.93534226 178.68563917 195.78533917 178.68484497 187.63531494 C178.68424155 180.07960284 178.69486307 172.5239615 178.71058863 164.96826732 C178.72369738 158.43354012 178.72902768 151.89883604 178.72838956 145.36409581 C178.72813617 141.48125955 178.73090095 137.59848686 178.74156761 133.71566391 C178.75130887 130.07270844 178.75128693 126.42987678 178.74405098 122.78691673 C178.74252304 120.83187121 178.75080352 118.87682552 178.75949097 116.92179871 C178.71661293 104.77753497 177.87323112 93.3225523 169.37454224 84.02398682 C161.37846101 76.7104696 150.6161005 73.84790832 140.52566528 70.5256958 C139.03769955 70.0296315 137.54995326 69.53290859 136.06240845 69.0355835 C132.05002292 67.69623151 128.03462219 66.36614604 124.01856208 65.03785968 C119.79618654 63.639643 115.57660068 62.23305577 111.35667419 60.82746887 C104.26962384 58.46817955 97.18077069 56.11438007 90.09060669 53.76446533 C80.12801597 50.46251759 70.1688713 47.15027281 60.21033037 43.83613479 C53.2735252 41.52803487 46.33590832 39.22237615 39.39813256 36.91719556 C37.72656767 36.36178774 36.05502304 35.80631892 34.38349891 35.25078845 C29.61174552 33.665011 24.83947968 32.08079331 20.06642914 30.49892426 C18.6284824 30.02215294 17.19068822 29.5449212 15.75306892 29.06716347 C11.33987541 27.60081673 6.92146366 26.15136364 2.49954224 24.71148682 C1.30183512 24.31491442 0.104128 23.91834202 -1.12987328 23.50975227 C-2.27025866 23.1420365 -3.41064404 22.77432072 -4.58558655 22.39546204 C-6.08308835 21.90702615 -6.08308835 21.90702615 -7.6108427 21.40872288 C-12.29866536 20.27759678 -16.36024943 20.40810673 -20.90548706 21.95806885 Z " fill="#F0F6FC" transform="translate(269.5004577636719,3.28851318359375)"/>
<path d="M0 0 C4.90119504 0.6636007 7.46129508 3.94667696 10.8125 7.3125 C11.42287109 7.89451172 12.03324219 8.47652344 12.66210938 9.07617188 C13.23380859 9.64529297 13.80550781 10.21441406 14.39453125 10.80078125 C15.18114136 11.57675659 15.18114136 11.57675659 15.98364258 12.3684082 C17 14 17 14 16.75907898 15.92570496 C15.8494397 18.41142818 14.94123006 19.19139864 12.87109375 20.8203125 C8.75318513 24.26756682 4.94926056 27.94326468 1.16015625 31.7421875 C0.52406937 32.37933685 -0.11201752 33.01648621 -0.76737976 33.67294312 C-2.12058232 35.03074788 -3.4728433 36.38949157 -4.82424927 37.74908447 C-6.97538337 39.91311041 -9.12973789 42.07388478 -11.28491211 44.23388672 C-15.85943605 48.81977722 -20.43001198 53.40958987 -25 58 C-30.30030532 63.32399103 -35.60226258 68.64631505 -40.90847778 73.9644165 C-43.01975925 76.08212905 -45.12798008 78.20285548 -47.23608398 80.32373047 C-52.69265439 85.80088239 -58.11256766 91.22525417 -64.01049805 96.230896 C-68.2743059 100.02235724 -72.22625465 104.15644036 -76.23150635 108.21747208 C-77.91137636 109.9196724 -79.59544368 111.61761696 -81.28076172 113.31442261 C-86.06656002 118.13353226 -90.84801549 122.95688712 -95.61914062 127.79052734 C-98.5525686 130.7617892 -101.49342109 133.72553071 -104.43902588 136.68471909 C-105.55168503 137.80537637 -106.66157325 138.92879252 -107.76849365 140.05511856 C-116.40656993 148.84208392 -124.6022792 157.0784286 -137.70800781 157.3815918 C-152.51976401 157.33377766 -159.79774559 152.21668816 -170 142 C-170.87543457 141.12617676 -171.75086914 140.25235352 -172.65283203 139.35205078 C-180.81437918 131.20031515 -180.81437918 131.20031515 -184.72729492 127.23706055 C-185.45347267 126.50422096 -185.45347267 126.50422096 -186.19432068 125.75657654 C-187.52166519 124.41666522 -188.84637606 123.07414642 -190.17089844 121.73144531 C-192.36410696 119.61394298 -194.57803513 117.60835866 -196.88232422 115.61767578 C-200.8558408 112.17115575 -204.58066234 108.53218507 -208.2734375 104.7890625 C-209.24816513 103.80865494 -209.24816513 103.80865494 -210.24258423 102.80844116 C-212.28920555 100.74974083 -214.33250289 98.68779161 -216.375 96.625 C-219.08828887 93.88516603 -221.80484757 91.14863538 -224.5234375 88.4140625 C-225.14423187 87.78496979 -225.76502625 87.15587708 -226.40463257 86.50772095 C-229.40831867 83.36981154 -229.40831867 83.36981154 -233 81 C-232.10694393 76.06504328 -229.13398983 73.61902136 -225.6875 70.1875 C-225.10548828 69.57712891 -224.52347656 68.96675781 -223.92382812 68.33789062 C-223.35470703 67.76619141 -222.78558594 67.19449219 -222.19921875 66.60546875 C-221.68190186 66.08106201 -221.16458496 65.55665527 -220.6315918 65.01635742 C-219 64 -219 64 -217.11927795 64.23551941 C-214.57875382 65.15195483 -213.35071737 66.29349529 -211.45996094 68.21533203 C-210.78535828 68.89338898 -210.11075562 69.57144592 -209.41571045 70.27005005 C-208.69586975 71.00851166 -207.97602905 71.74697327 -207.234375 72.5078125 C-206.10603241 73.64607986 -206.10603241 73.64607986 -204.95489502 74.80734253 C-202.5460767 77.23958104 -200.14760105 79.68170746 -197.75 82.125 C-195.36505074 84.54518531 -192.97793241 86.96317065 -190.58795166 89.37838745 C-189.1020187 90.881085 -187.61919576 92.38686674 -186.14007568 93.89627075 C-182.19001486 97.90242362 -178.13218934 101.68531733 -173.86932373 105.35577393 C-171.08127631 107.80809408 -168.48475373 110.42773107 -165.890625 113.08203125 C-164.79570117 114.18957993 -163.70064539 115.29699818 -162.60546875 116.40429688 C-160.91621087 118.11849118 -159.22863459 119.83428416 -157.54345703 121.55249023 C-155.89273302 123.23339593 -154.23585568 124.90803936 -152.578125 126.58203125 C-152.07702209 127.09659378 -151.57591919 127.61115631 -151.05963135 128.14131165 C-147.57795655 131.64778375 -145.04724976 133.73296742 -140.125 134.375 C-133.72332718 133.60679926 -129.38111107 128.66595574 -125.02978516 124.2409668 C-124.18455544 123.39376572 -124.18455544 123.39376572 -123.32225037 122.52944946 C-121.47319721 120.67394215 -119.63123416 118.81155598 -117.7890625 116.94921875 C-116.49452218 115.64839901 -115.19945933 114.34809907 -113.90390015 113.04829407 C-110.4997084 109.63083124 -107.10112941 106.20784603 -103.7041626 102.78320312 C-98.27641352 97.31227424 -92.84197514 91.84801243 -87.40412521 86.38712502 C-85.51628324 84.48915264 -83.63194648 82.58775269 -81.74795532 80.68595886 C-72.2337047 71.10547516 -72.2337047 71.10547516 -68.07275391 67.5793457 C-62.1734761 62.55530455 -56.85486884 56.89442601 -51.42388153 51.37678528 C-48.60353803 48.51405309 -45.77358273 45.66090223 -42.94421768 42.80709076 C-37.69005015 37.5072945 -32.43999762 32.20356663 -27.20605469 26.88378906 C-23.55065601 23.16918247 -19.88331784 19.46674739 -16.20764923 15.77220154 C-14.81082971 14.36361425 -13.41856432 12.95049595 -12.03093719 11.53285217 C-10.09930292 9.56044413 -8.15286566 7.60390073 -6.20214844 5.65039062 C-5.63065063 5.0593454 -5.05915283 4.46830017 -4.47033691 3.85934448 C-2.85687256 2.2623291 -2.85687256 2.2623291 0 0 Z " fill="#F0F6FC" transform="translate(364,163)"/>
</svg>
