<?xml version="1.0" encoding="UTF-8"?>
<svg version="1.1" xmlns="http://www.w3.org/2000/svg" width="512" height="512">
<path d="M0 0 C3.20780898 3.32352153 4.74337841 5.5344892 5.51171875 10.14453125 C4.86906821 13.48631406 4.32054754 15.05084427 1.88671875 17.39453125 C0.89671875 17.72453125 -0.09328125 18.05453125 -1.11328125 18.39453125 C-0.0871875 18.27335937 0.93890625 18.1521875 1.99609375 18.02734375 C34.94991344 14.33696102 68.25339141 12.82980595 101.234375 16.9921875 C104.49258847 17.35111369 107.61333459 17.4711315 110.88671875 17.39453125 C110.55671875 16.73453125 110.22671875 16.07453125 109.88671875 15.39453125 C109.27228609 11.63113124 109.35936193 9.25183121 111.37890625 5.96875 C116.14934828 -0.23678352 116.14934828 -0.23678352 118.88671875 -1.60546875 C131.6859445 -2.69956135 144.43756722 -1.61072028 156.88671875 1.39453125 C157.66917969 1.58257324 158.45164062 1.77061523 159.2578125 1.96435547 C187.17244665 8.89340269 214.17623982 20.58181928 236.88671875 38.39453125 C237.4489917 38.78044434 238.01126465 39.16635742 238.59057617 39.56396484 C244.75438259 44.14269503 247.43208538 50.57479733 250.57421875 57.39453125 C251.18389445 58.69141307 251.79376162 59.98820489 252.40380859 61.28491211 C282.5357838 125.88415311 314.59918289 215.688067 300.88671875 287.39453125 C299.79296875 289.671875 299.79296875 289.671875 298.38671875 291.33203125 C297.84402344 291.98300781 297.30132812 292.63398438 296.7421875 293.3046875 C296.12988281 293.99433594 295.51757812 294.68398438 294.88671875 295.39453125 C294.22285156 296.17699219 293.55898438 296.95945312 292.875 297.765625 C264.58602877 330.32079656 223.3213562 347.37443702 180.83398438 350.54785156 C178.78870429 350.68082347 176.74768049 350.76643825 174.69921875 350.83203125 C173.50941406 350.87199219 172.31960938 350.91195313 171.09375 350.953125 C166.89637195 350.22203479 165.60713805 348.60252988 162.88671875 345.39453125 C162.20351563 344.67394531 161.5203125 343.95335937 160.81640625 343.2109375 C155.87425917 337.78960886 151.25974822 332.18259712 146.78735352 326.37304688 C144.38103681 323.25328665 141.92348947 320.3098053 139.19921875 317.45703125 C136.39407841 313.74211566 136.68880449 311.92516311 136.88671875 307.39453125 C136.1275415 307.56581543 135.36836426 307.73709961 134.58618164 307.91357422 C90.17200762 317.86702685 21.52658937 326.71446656 -21.11328125 305.39453125 C-20.78328125 306.05453125 -20.45328125 306.71453125 -20.11328125 307.39453125 C-19.57164253 311.44226145 -19.92051511 313.08990855 -22.1328125 316.5859375 C-23.04865317 317.72201605 -23.98067113 318.84518348 -24.92578125 319.95703125 C-25.41916992 320.5605542 -25.91255859 321.16407715 -26.42089844 321.78588867 C-27.96877281 323.66969203 -29.53752604 325.53401282 -31.11328125 327.39453125 C-31.84973877 328.26948242 -31.84973877 328.26948242 -32.60107422 329.16210938 C-34.47708497 331.38975335 -36.35551725 333.61496735 -38.25146484 335.82568359 C-41.53431333 339.65943324 -44.61498779 343.6027661 -47.578125 347.6875 C-49.41734004 349.73263225 -50.48094625 350.54211404 -53.11328125 351.39453125 C-55.94465127 351.48328893 -58.60974666 351.44696256 -61.42578125 351.26953125 C-62.25537354 351.21949951 -63.08496582 351.16946777 -63.93969727 351.11791992 C-104.36574635 348.22954221 -140.61624103 333.16568082 -170.11328125 305.39453125 C-170.7371875 304.82347656 -171.36109375 304.25242187 -172.00390625 303.6640625 C-181.71611514 294.45496353 -185.88901011 287.07934583 -186.28125 273.87109375 C-186.75538719 224.06092009 -176.03767447 175.21031274 -161.86328125 127.70703125 C-161.54633301 126.62010986 -161.22938477 125.53318848 -160.90283203 124.41333008 C-160.59587402 123.41325928 -160.28891602 122.41318848 -159.97265625 121.3828125 C-159.70936523 120.51180908 -159.44607422 119.64080566 -159.17480469 118.7434082 C-157.90428722 115.93208149 -156.49594243 114.343101 -154.11328125 112.39453125 C-150.17312112 111.83165123 -148.05545929 111.79057097 -144.67578125 113.95703125 C-142.59026221 117.21044096 -142.6163781 119.67391431 -143.11328125 123.39453125 C-144.27245315 127.85421381 -145.73053387 132.20805046 -147.17578125 136.58203125 C-157.05645593 167.35093166 -163.77673707 198.79879094 -167.42578125 230.89453125 C-167.54788467 231.96648239 -167.54788467 231.96648239 -167.67245483 233.06008911 C-168.67214017 241.98011016 -169.40016845 250.89330339 -169.91040039 259.85449219 C-170.07244404 262.68196864 -170.27290645 265.50093681 -170.4921875 268.32421875 C-170.80337162 275.01136686 -171.04527689 280.29446542 -166.73828125 285.83203125 C-165.2307734 287.38673065 -163.68789031 288.9078314 -162.11328125 290.39453125 C-161.40042969 291.18730469 -160.68757813 291.98007812 -159.953125 292.796875 C-148.64721022 305.07242226 -134.18229159 313.56662993 -119.11328125 320.39453125 C-117.953125 320.93722656 -116.79296875 321.47992188 -115.59765625 322.0390625 C-101.69289734 328.30890242 -87.23968674 332.21179635 -72.12158203 334.11914062 C-70.31520122 334.36684273 -68.52264944 334.71081873 -66.734375 335.06640625 C-63.33279569 335.50989768 -61.3566504 335.55512659 -58.11328125 334.39453125 C-53.28782891 330.51812909 -49.6754237 325.40326842 -46.11328125 320.39453125 C-45.6322998 319.72566895 -45.15131836 319.05680664 -44.65576172 318.36767578 C-43.46946985 316.71386742 -42.2905983 315.05474059 -41.11328125 313.39453125 C-42.26828125 313.06453125 -43.42328125 312.73453125 -44.61328125 312.39453125 C-60.84318982 306.96749558 -75.16745191 297.37210754 -88.11328125 286.39453125 C-88.75007813 285.89308594 -89.386875 285.39164062 -90.04296875 284.875 C-96.43245645 279.7663543 -101.59185531 273.17667015 -106.11328125 266.39453125 C-106.53583262 262.52114371 -106.67995683 260.27854516 -104.55078125 256.95703125 C-101.0947802 254.74164596 -99.20380704 254.94858691 -95.11328125 255.39453125 C-91.76444286 256.86910711 -88.71938621 258.78142783 -85.61328125 260.70703125 C-26.31374095 295.91040017 46.10323615 307.87285418 113.88671875 295.39453125 C115.54960938 295.08902344 115.54960938 295.08902344 117.24609375 294.77734375 C148.72775505 288.73465521 182.69593128 277.22966107 208.97192383 258.23828125 C213.51809301 255.07993244 216.53463732 254.91465053 221.88671875 255.39453125 C224.2841247 256.86390909 224.72674604 258.02126159 225.82421875 260.58203125 C225.99707302 268.3604734 219.92551392 274.05701837 214.93457031 279.39331055 C199.53553981 295.27212599 179.60980608 306.91949975 158.88671875 314.39453125 C166.39738687 324.80831563 166.39738687 324.80831563 174.88671875 334.39453125 C210.27245649 335.24281948 246.26001554 319.28176733 272.13671875 295.95703125 C273.13158846 295.00811582 274.12130347 294.05376298 275.10546875 293.09375 C277.88671875 290.39453125 277.88671875 290.39453125 280.41796875 288.3515625 C285.4890002 283.59300658 286.34916926 279.04627556 286.57666016 272.35083008 C286.57225784 266.6819655 286.27069053 261.04910967 285.88671875 255.39453125 C285.8098584 254.20569336 285.73299805 253.01685547 285.65380859 251.79199219 C281.03134643 185.62803086 262.74289666 119.31249163 233.4765625 59.84985352 C230.88671875 54.57741178 230.88671875 54.57741178 230.88671875 52.39453125 C229.79387573 52.00031982 229.79387573 52.00031982 228.67895508 51.59814453 C225.85093356 50.37910579 223.68490874 48.95986061 221.2109375 47.13671875 C216.2142874 43.56807857 211.08548514 40.46137199 205.69921875 37.51953125 C204.76811279 37.01067383 203.83700684 36.50181641 202.87768555 35.97753906 C186.15701667 26.56552279 186.15701667 26.56552279 167.88671875 22.39453125 C168.85609375 22.86761719 169.82546875 23.34070313 170.82421875 23.828125 C187.10533512 31.83018598 202.33023544 40.52096562 216.88671875 51.39453125 C217.81484375 52.07902344 218.74296875 52.76351562 219.69921875 53.46875 C223.17351234 56.22957258 224.66384582 57.74819976 226.13671875 62.01953125 C225.88671875 65.39453125 225.88671875 65.39453125 224.38671875 68.33203125 C221.72295174 70.52963903 220.42381702 70.90877958 217.02392578 70.7980957 C212.33295526 69.91230929 208.23164725 67.26938974 204.07421875 65.01953125 C168.96246782 46.78306963 130.16202317 36.39996555 90.88671875 32.39453125 C90.04625 32.30026855 89.20578125 32.20600586 88.33984375 32.10888672 C61.0699747 29.38676943 31.91759806 30.01210318 4.88671875 34.39453125 C3.66065918 34.59320801 2.43459961 34.79188477 1.17138672 34.99658203 C-33.09034441 40.74924346 -66.00261304 50.6729285 -96.93237305 66.63574219 C-102.23691441 69.31331869 -106.13335892 71.27486464 -112.11328125 70.39453125 C-114.55078125 68.83203125 -114.55078125 68.83203125 -116.11328125 66.39453125 C-116.67578125 62.95703125 -116.67578125 62.95703125 -116.11328125 59.39453125 C-106.44164208 48.76246798 -94.3831526 41.59266658 -82.11328125 34.39453125 C-98.35479436 42.14428877 -112.56600061 48.95487052 -120.42578125 65.95703125 C-120.90217041 66.96540039 -121.37855957 67.97376953 -121.86938477 69.01269531 C-125.41043171 76.60701985 -128.6095201 84.31157076 -131.47583008 92.18579102 C-134.20031383 99.43025278 -134.20031383 99.43025278 -138.11328125 101.39453125 C-142.19544603 102.08936781 -143.63376004 101.73121636 -147.05078125 99.33203125 C-149.11328125 96.39453125 -149.11328125 96.39453125 -149.05859375 93.484375 C-148.01453159 87.70612222 -145.37909388 82.36996814 -143.05078125 77.01953125 C-142.55634521 75.87009033 -142.06190918 74.72064941 -141.55249023 73.53637695 C-138.66197835 66.85449334 -135.73092174 60.19044106 -132.67578125 53.58203125 C-132.3708374 52.91445801 -132.06589355 52.24688477 -131.75170898 51.55908203 C-128.29242785 44.23949905 -123.87798425 40.15493599 -117.36328125 35.64453125 C-116.61175781 35.12084961 -115.86023438 34.59716797 -115.0859375 34.05761719 C-107.69370081 28.9839673 -100.06663603 24.52299022 -92.11328125 20.39453125 C-91.48083496 20.06001953 -90.84838867 19.72550781 -90.19677734 19.38085938 C-72.15441053 9.94345517 -18.97606997 -14.41620103 0 0 Z M-8.11328125 19.39453125 C-4.11328125 20.39453125 -4.11328125 20.39453125 -4.11328125 20.39453125 Z " fill="#F0F6FC" transform="translate(198.11328125,81.60546875)"/>
<path d="M0 0 C10.80420997 7.74301714 18.16321702 19.03184924 21 32 C23.5849588 48.54373629 20.72674887 63.8181938 11.375 77.75 C7.05112788 83.39301955 2.03901921 87.3085186 -4 91 C-5.05960938 91.64775391 -5.05960938 91.64775391 -6.140625 92.30859375 C-17.77407544 98.36953263 -31.89524155 97.79429927 -44.0546875 94.0625 C-55.01164153 90.04773822 -63.94890258 81.96198482 -70 72 C-76.64826391 57.65011088 -78.60536472 41.0834001 -74.03125 25.73046875 C-69.59772035 13.99169139 -62.10597991 3.37781142 -50.9296875 -2.75 C-33.6966082 -10.1027805 -16.1664641 -10.02530728 0 0 Z M-55 22 C-61.2054973 32.39060012 -62.84104073 43.34184845 -60.31640625 55.21484375 C-56.76922321 65.70920685 -49.78102145 74.12664702 -40 79.375 C-32.70103347 82.36720069 -23.22649697 82.29968203 -15.6875 80.0625 C-6.68498545 75.89539719 0.0632911 67.70906668 3.9609375 58.8046875 C7.56347399 48.79029706 7.48602448 37.29862578 3.3203125 27.49609375 C-1.75598365 17.89919067 -8.81284198 11.48975395 -19.1875 8.125 C-32.91995401 4.5811409 -46.39929952 11.11833516 -55 22 Z " fill="#F0F6FC" transform="translate(208,237)"/>
<path d="M0 0 C5.71559658 5.24619976 10.53267446 11.38115624 11.25 19.25 C10.12981101 22.61056696 9.30465901 23.21356066 6.25 25.25 C2.54416107 25.11524222 0.10732379 24.90560055 -2.875 22.625 C-4.75 20.25 -4.75 20.25 -5.78515625 18.640625 C-10.47572608 11.453718 -17.60146616 6.66725303 -26.00390625 4.73046875 C-35.71935138 3.49754424 -44.83654987 5.63852563 -52.78125 11.453125 C-59.98932785 18.03192621 -64.17590184 27.70270953 -64.91015625 37.35546875 C-65.34351865 49.20698841 -62.16683615 59.2197898 -54.15625 67.99609375 C-47.70707427 74.09543212 -40.4730746 76.46598358 -31.6875 76.75 C-25.5281291 76.55626708 -20.99784054 75.44068705 -15.75 72.25 C-15.12609375 71.899375 -14.5021875 71.54875 -13.859375 71.1875 C-6.82483453 66.78326597 -2.70888342 59.59091338 -0.32421875 51.7890625 C0.62375906 47.59732386 1.08803588 43.34220286 1.52734375 39.0703125 C2.25 36.25 2.25 36.25 4.12890625 34.390625 C7.03969189 32.82534064 8.99034086 32.84254261 12.25 33.25 C14.5625 34.25 14.5625 34.25 16.25 36.25 C19.30500369 48.25180021 14.60003742 60.86482283 8.53125 71.16796875 C3.83668117 78.14248187 -1.59977924 82.87927257 -8.75 87.25 C-9.80960938 87.89775391 -9.80960938 87.89775391 -10.890625 88.55859375 C-22.37072113 94.5396362 -36.3479255 94.04145786 -48.39453125 90.46484375 C-60.77446424 86.0719643 -70.48435021 76.4683475 -76.125 64.75 C-82.66282409 49.32926275 -82.75956752 32.78997511 -76.53125 17.19921875 C-70.6720775 4.39041665 -62.28786919 -3.5480867 -49.26171875 -8.7421875 C-31.83500936 -14.89279082 -14.49608041 -11.39669574 0 0 Z " fill="#F0F6FC" transform="translate(360.75,240.75)"/>
</svg>
