<?xml version="1.0" encoding="UTF-8"?>
<svg version="1.1" xmlns="http://www.w3.org/2000/svg" width="512" height="512">
<path d="M0 0 C14.19 0 28.38 0 43 0 C43 7.26 43 14.52 43 22 C99.1 22 155.2 22 213 22 C213 14.74 213 7.48 213 0 C227.19 0 241.38 0 256 0 C256 7.26 256 14.52 256 22 C257.58167969 21.95359375 259.16335938 21.9071875 260.79296875 21.859375 C282.93939143 21.39963625 282.93939143 21.39963625 293 26 C293.94617188 26.42410156 294.89234375 26.84820312 295.8671875 27.28515625 C320.11197224 39.34038855 327.27607212 64.12864351 335.33929443 88.01782227 C363.12819801 171.3871001 380.42661943 261.40031071 384.5625 363.875 C384.57730408 364.59632111 384.59210815 365.31764221 384.60736084 366.06082153 C384.91197884 383.59358937 379.44141387 398.23901586 367.4375 411.1875 C355.94139234 422.09406368 341.69087516 427.82698404 325.875 428.5 C309.91153308 427.85019809 296.76445443 420.20295822 285 410 C284.05253906 409.18660156 283.10507812 408.37320312 282.12890625 407.53515625 C257.72456958 386.1458728 240.38856109 357.37962057 225.13671875 329.09277344 C224.06844683 327.12601509 222.97570443 325.17530036 221.875 323.2265625 C216.63409512 313.81252363 212.22106771 304.03741121 207.875 294.1875 C207.58508179 293.5360199 207.29516357 292.88453979 206.99645996 292.21331787 C202.00993058 280.9718801 198.0828737 269.66535343 194 258 C150.44 258 106.88 258 62 258 C59.03 266.25 56.06 274.5 53 283 C51.20536695 287.25904463 49.42736849 291.40911432 47.4375 295.5625 C46.97480713 296.54951904 46.51211426 297.53653809 46.03540039 298.5534668 C44.70528096 301.37648814 43.35787584 304.19024153 42 307 C41.45279297 308.13405273 41.45279297 308.13405273 40.89453125 309.29101562 C38.98567509 313.22208912 37.0271027 317.1247266 35.02441406 321.00878906 C34.31059205 322.39628486 33.60200135 323.78647918 32.89746094 325.17871094 C20.36585806 349.93471764 5.42411801 373.20985151 -13 394 C-13.44553223 394.51256348 -13.89106445 395.02512695 -14.35009766 395.55322266 C-27.90747404 411.14005877 -45.0853705 426.23308974 -66.55078125 428.23828125 C-82.19202023 428.65862572 -96.49443449 423.88794208 -108.3125 413.5625 C-109.89251098 412.05986712 -111.45683236 410.54044601 -113 409 C-113.57621094 408.43539063 -114.15242188 407.87078125 -114.74609375 407.2890625 C-126.2035765 395.08758737 -128.54432651 379.61468488 -128.375 363.625 C-128.37034729 362.83967896 -128.36569458 362.05435791 -128.36090088 361.24523926 C-127.76362375 274.07778372 -109.56554366 182.7869085 -83 100 C-82.67388733 98.97909271 -82.67388733 98.97909271 -82.34118652 97.93756104 C-63.87440816 40.15945159 -63.87440816 40.15945159 -42.05273438 28.69799805 C-31.6450253 23.41846418 -23.19367869 21.6931605 -11.5 21.875 C-10.39140625 21.88402344 -9.2828125 21.89304687 -8.140625 21.90234375 C-5.42698892 21.92573716 -2.71346524 21.96160191 0 22 C0 14.74 0 7.48 0 0 Z M-43.125 58.3125 C-45.87192144 62.34148689 -47.55983656 66.6053175 -49.2890625 71.1328125 C-49.59366394 71.92481552 -49.89826538 72.71681854 -50.21209717 73.53282166 C-53.48111061 82.12523779 -56.42042387 90.81690274 -59.25 99.5625 C-59.52557739 100.41216339 -59.80115479 101.26182678 -60.08508301 102.13723755 C-70.78041574 135.2524569 -79.01130288 168.92517085 -86 203 C-86.1589978 203.77071838 -86.31799561 204.54143677 -86.48181152 205.33551025 C-94.61680696 244.84186042 -100.22748833 284.84942944 -104 325 C-104.11714355 326.22315918 -104.23428711 327.44631836 -104.35498047 328.70654297 C-105.45371484 340.43671603 -106.19566504 352.1553763 -106.375 363.9375 C-106.40110352 364.89052002 -106.42720703 365.84354004 -106.45410156 366.82543945 C-106.4823502 378.24898608 -102.3068051 387.60415765 -94.33984375 395.68359375 C-86.2285124 403.0928053 -78.14099759 405.39429127 -67.3125 405.2734375 C-51.59491537 403.97599537 -37.32237824 388.36101402 -27.5625 376.9375 C0.93903624 342.66565093 44 281.03825124 44 235 C99.44 235 154.88 235 212 235 C212.33 237.64 212.66 240.28 213 243 C214.05697881 247.17315487 215.44267433 251.23218702 216.8125 255.3125 C217.20775879 256.49094482 217.60301758 257.66938965 218.01025391 258.88354492 C222.5158632 271.96543826 228.09145009 284.50024678 234 297 C234.44569336 297.95181152 234.89138672 298.90362305 235.35058594 299.88427734 C248.69222312 328.17878779 265.15425128 355.59310953 286 379 C286.75667969 379.88945312 287.51335937 380.77890625 288.29296875 381.6953125 C297.29042591 392.11006822 309.37991042 403.48447273 323.48828125 405.94140625 C334.45782804 406.19730548 343.38288362 402.33575814 351.18359375 394.92578125 C362.61774913 382.90418302 362.47372885 370.56592485 362.13183594 354.83251953 C359.20461273 269.73705665 341.94782746 182.01924955 315.70043945 101.15924072 C314.98344676 98.94897143 314.27191897 96.73698627 313.56054688 94.52490234 C312.37466072 90.84946408 311.16757572 87.18160279 309.94360352 83.51867676 C309.49117441 82.16115056 309.04289403 80.80223256 308.59936523 79.44177246 C304.44670621 66.7650235 298.87644474 54.3293687 286.6328125 47.72265625 C281.34554617 45.28704668 276.76561295 43.87751253 270.91579342 43.86577892 C269.36739502 43.85909216 269.36739502 43.85909216 267.78771585 43.85227031 C266.08886683 43.85254685 266.08886683 43.85254685 264.35569763 43.85282898 C263.15130966 43.84915229 261.94692168 43.8454756 260.7060371 43.8416875 C257.36143167 43.83256807 254.01687527 43.82795259 250.67226207 43.82529819 C247.06540025 43.82139162 243.4585526 43.81181347 239.85169983 43.80308533 C231.13985639 43.78332999 222.4280118 43.77325549 213.71615157 43.76435754 C209.61174719 43.75997276 205.50734411 43.75460641 201.40294075 43.74936867 C187.75549176 43.73235666 174.10804356 43.71786332 160.46058559 43.71061993 C156.91960588 43.70871009 153.37862617 43.70678975 149.83764648 43.70483398 C148.95757193 43.70435024 148.07749738 43.7038665 147.1707539 43.7033681 C132.91970835 43.69507091 118.66874683 43.66973914 104.41773795 43.63725331 C89.78050589 43.60415963 75.1433165 43.58616904 60.50604683 43.58297569 C52.29023247 43.58081263 44.0745406 43.57209411 35.85876274 43.54651451 C28.86053577 43.52477587 21.86246106 43.51677257 14.86420416 43.52648129 C11.29620007 43.531017 7.72850992 43.52918287 4.16054916 43.50971985 C0.28463301 43.48876043 -3.59085405 43.49910256 -7.46681213 43.51225281 C-8.58376309 43.50128356 -9.70071406 43.49031432 -10.85151201 43.47901267 C-23.96865074 43.58615654 -34.51169637 48.33561269 -43.125 58.3125 Z " fill="#F0F6FC" transform="translate(128,42)"/>
<path d="M0 0 C9.65890364 6.95124376 16.07331101 16.66698465 18.13671875 28.515625 C19.68113375 42.31730191 16.21962092 53.93376813 7.70703125 64.8671875 C0.49590592 72.91214745 -10.22086407 78.18838432 -20.96484375 78.953125 C-34.55795733 79.2247014 -45.65482582 76.1002227 -55.7734375 66.71484375 C-65.93189074 56.1015344 -68.19955825 44.68781314 -67.9609375 30.5703125 C-67.42597713 19.05751959 -61.06606317 9.81704574 -52.9921875 2.02734375 C-37.87739776 -10.7239364 -16.08347615 -10.310567 0 0 Z M-41.0546875 22.15234375 C-45.55228961 28.05778253 -46.50394063 33.36265007 -45.6171875 40.71484375 C-43.78583525 46.93266846 -39.95759232 51.1701209 -34.6171875 54.71484375 C-29.02066136 57.27991823 -23.57620261 57.48514069 -17.6796875 55.77734375 C-12.38717647 53.63759808 -8.9064213 49.24266684 -5.6171875 44.71484375 C-3.83652801 39.37286529 -3.6169614 33.00474406 -5.265625 27.58203125 C-8.18050249 22.02632459 -12.9894358 17.91922995 -18.6171875 15.33984375 C-27.38915687 13.51235013 -34.99305129 15.38105257 -41.0546875 22.15234375 Z " fill="#F0F6FC" transform="translate(387.6171875,156.28515625)"/>
<path d="M0 0 C8.2056933 6.85848992 13.78713429 15.21776645 16.09375 25.75 C16.97248891 40.28520594 15.64792044 52.10117921 6.09375 63.75 C-1.25908679 71.83373507 -11.19650197 77.27834483 -22.2265625 77.953125 C-36.48726375 78.12882152 -47.4215988 74.9412875 -58.15625 65.125 C-66.54387798 56.2449809 -70.47058827 44.4925403 -70.15234375 32.41796875 C-69.03310142 20.28396064 -64.23043273 10.05669324 -55.38671875 1.640625 C-38.89513837 -10.92933548 -17.07522577 -12.37335201 0 0 Z M-44.33984375 23.59375 C-48.00812938 28.64336014 -47.44930958 34.77634465 -46.90625 40.75 C-45.17676609 46.43854347 -40.69484406 50.47744555 -35.90625 53.75 C-30.85186691 56.06659225 -26.07325865 56.67463365 -20.671875 55.09765625 C-13.96364917 52.47514514 -10.16646795 48.55127565 -6.53125 42.4375 C-4.97903245 35.76296451 -5.12461793 29.59187719 -8.57421875 23.5703125 C-12.26177233 18.53101641 -16.72509005 15.03774166 -22.90625 13.75 C-32.8274764 12.83136793 -38.07122705 16.233339 -44.33984375 23.59375 Z " fill="#F0F6FC" transform="translate(175.90625,157.25)"/>
</svg>
