<?xml version="1.0" encoding="UTF-8"?>
<svg version="1.1" xmlns="http://www.w3.org/2000/svg" width="512" height="512">
<path d="M0 0 C1.44997175 -0.00571367 2.899939 -0.01268175 4.34989929 -0.02079773 C8.26121083 -0.0386355 12.17229688 -0.03757845 16.08363676 -0.03185534 C19.36117156 -0.02874947 22.63866392 -0.03487149 25.91619265 -0.04089409 C33.65493959 -0.05490725 41.39357606 -0.05340519 49.13232422 -0.04199219 C57.08835084 -0.03051728 65.04404011 -0.04458331 73.00002229 -0.07138866 C79.85642967 -0.09361553 86.71273169 -0.10016728 93.5691725 -0.09431225 C97.65291086 -0.09095773 101.73643313 -0.09325652 105.82014084 -0.11056328 C109.66335476 -0.12614213 113.50607286 -0.12195732 117.34926796 -0.10325813 C118.75038503 -0.09960209 120.15153974 -0.1025924 121.55262184 -0.11314392 C136.92061295 -0.21994117 150.21618892 4.23224165 161.72509766 14.65795898 C168.65184682 21.97771519 174.21395984 31.50727535 176.37744141 41.40405273 C177.08707031 39.95385742 177.08707031 39.95385742 177.81103516 38.47436523 C186.0975668 21.97352498 196.67417417 11.51833371 214.37744141 5.40405273 C235.44845385 -0.49692963 257.77978824 -3.88461504 277.56494141 7.15405273 C295.36008481 18.6283612 301.26161241 34.10793489 305.62475777 54.08920097 C305.99310643 55.81694346 305.99310643 55.81694346 306.36889648 57.57958984 C306.64222746 58.83902468 306.91555843 60.09845951 307.19717216 61.39605904 C307.94606548 64.84726619 308.68802787 68.29993031 309.42880607 71.75288701 C310.2295989 75.47919898 311.03715122 79.20404623 311.84394836 82.92906189 C313.23612142 89.3607971 314.62442426 95.79335718 316.0100708 102.22650146 C318.2143309 112.45965711 320.4266717 122.69105683 322.640625 132.92211914 C323.01774945 134.66500425 323.39487169 136.40788984 323.77199173 138.15077591 C324.34144786 140.7825475 324.91091182 143.41431739 325.48041224 146.0460794 C326.63404631 151.37746097 327.78705811 156.70897668 328.93958068 162.04059863 C335.78197856 193.69352235 342.67673851 225.33484366 349.59428024 256.97142029 C351.68846498 266.5497263 353.77839494 276.12895202 355.86535501 285.70883465 C357.27891496 292.19722067 358.69331723 298.6854231 360.10791016 305.17358398 C360.26090765 305.87539638 360.41390514 306.57720877 360.57153893 307.3002882 C364.57754729 325.67443017 368.62033942 344.03988375 372.71173096 362.39520264 C374.65250845 371.10351284 376.57936967 379.81488276 378.50231934 388.52714539 C380.00409496 395.32526641 381.52434618 402.11886626 383.06021214 408.90936184 C383.98766196 413.03120134 384.89663117 417.15695753 385.80058861 421.28400612 C386.21288982 423.14873298 386.63260163 425.01184262 387.06102943 426.87293053 C391.47200613 446.0666876 393.55053379 465.00017933 383.50244141 482.71655273 C382.4846723 484.29472311 381.44452891 485.85880196 380.37744141 487.40405273 C379.96107422 488.01764648 379.54470703 488.63124023 379.11572266 489.26342773 C366.17519211 506.20658485 343.15397793 509.74435874 323.37744141 512.40405273 C305.48987049 514.06981307 290.35443217 511.10259239 276.05712891 499.52514648 C263.9991045 488.1777661 260.0318155 473.13625917 256.81494141 457.45092773 C256.47334089 455.81997467 256.13092659 454.18919187 255.78778076 452.55856323 C255.04006857 448.99638727 254.29826787 445.43304754 253.56091309 441.86871338 C252.3423126 435.97807064 251.11090728 430.09014252 249.87841797 424.20239258 C248.03587763 415.39350057 246.19988472 406.58326315 244.36767578 397.7722168 C241.38930456 383.45092675 238.39637379 369.1326972 235.4012394 354.81490493 C234.13523539 348.76272513 232.86961284 342.71046555 231.60400391 336.65820312 C231.46199586 335.9791245 231.31998781 335.30004588 231.17367649 334.60038912 C228.98192937 324.119234 226.79229401 313.63763912 224.60400391 303.15576172 C224.45658595 302.44964339 224.309168 301.74352506 224.15728283 301.01600921 C223.55633662 298.13752998 222.95539521 295.25904974 222.35445547 292.38056916 C214.05681716 252.63555816 205.73732018 212.89513585 197.41218567 173.15587616 C196.38389787 168.24742452 195.35570137 163.33895377 194.32751465 158.43048096 C192.55666859 149.97667877 190.78563172 141.52291656 189.01446438 133.06918168 C188.57270753 130.9606521 188.13097492 128.85211744 187.68924713 126.74358177 C186.87058771 122.83586539 186.05175955 118.92818439 185.23291016 115.02050781 C185.0013409 113.91510965 184.76977165 112.80971149 184.53118515 111.67081642 C182.4863638 101.9138751 180.43213741 92.15891831 178.37744141 82.40405273 C178.37597619 83.61975983 178.37597619 83.61975983 178.37448138 84.86002666 C178.31620256 132.9008875 178.24240061 180.94170314 178.14845512 228.98250817 C178.13718703 234.75152216 178.12604857 240.52053639 178.11499023 246.28955078 C178.11278655 247.43805205 178.11058287 248.58655333 178.10831241 249.76985767 C178.07294522 268.36338276 178.04807781 286.95690781 178.02709439 305.55045406 C178.00532775 324.63079347 177.97226908 343.71108925 177.92873985 362.79139155 C177.90223807 374.56384181 177.88453182 386.33623772 177.87809537 398.10871633 C177.872837 406.18281497 177.85660486 414.25684522 177.83177575 422.3309072 C177.81777624 426.98839111 177.80858418 431.64575264 177.81243324 436.3032589 C177.81585369 440.57163136 177.80541993 444.83974283 177.78420589 449.10806187 C177.77895532 450.64794234 177.7786848 452.18785004 177.78404578 453.72773013 C177.83736691 470.78833851 173.93969255 485.52511824 161.86181641 498.15014648 C152.67399539 506.48563819 140.85247093 512.50158002 128.32728577 512.55122375 C127.08686523 512.55837906 125.8464447 512.56553436 124.56843567 512.57290649 C123.1962588 512.57574663 121.82408165 512.57845838 120.4519043 512.58105469 C119.00444375 512.58732254 117.55698479 512.59396963 116.10952759 512.60096741 C111.35639561 512.62198305 106.60326343 512.6323718 101.85009766 512.64233398 C100.20973634 512.64638336 98.56937519 512.65050033 96.92901421 512.65468407 C89.21629905 512.67373525 81.50359343 512.68796287 73.79085928 512.69629604 C64.91172695 512.70604943 56.03284517 512.73231937 47.15380102 512.77279693 C40.27713892 512.8030606 33.40054817 512.81777483 26.52382082 512.82107705 C22.42372188 512.8234171 18.3238906 512.83223926 14.2238636 512.85753822 C10.35860757 512.88100228 6.4937919 512.8849796 2.62848282 512.87477684 C1.2197122 512.87428568 -0.18908145 512.88048028 -1.59778404 512.89433289 C-17.72061535 513.04383905 -30.98461079 508.78902112 -42.87255859 497.65405273 C-55.74105739 483.91534808 -58.25351637 469.08544227 -58.15380859 451.02905273 C-58.1565097 449.28840926 -58.16039724 447.54776727 -58.16540527 445.80712891 C-58.17125875 442.18645646 -58.16286449 438.56618233 -58.14404297 434.94555664 C-58.12111818 430.31075833 -58.1344873 425.67687987 -58.15833282 421.04211426 C-58.17278732 417.45954446 -58.16818882 413.87719307 -58.15782166 410.2946167 C-58.15516047 408.58502085 -58.15840269 406.87540494 -58.16773987 405.16583252 C-58.17791532 402.78246337 -58.16239865 400.40059166 -58.14013672 398.01733398 C-58.14823364 397.3170256 -58.15633057 396.61671722 -58.16467285 395.89518738 C-58.08263229 391.14697999 -56.97185259 388.74377341 -53.62255859 385.40405273 C-51.34678391 384.26616539 -50.11222435 384.2806321 -47.58566284 384.28379822 C-46.74149811 384.28242355 -45.89733337 384.28104889 -45.02758789 384.27963257 C-43.63576294 384.28502548 -43.63576294 384.28502548 -42.21582031 384.29052734 C-41.2401712 384.29038132 -40.26452209 384.29023529 -39.25930786 384.29008484 C-36.02359825 384.29078338 -32.78794569 384.29857307 -29.55224609 384.30639648 C-27.31308015 384.30826087 -25.07391381 384.30968468 -22.83474731 384.3106842 C-16.93282959 384.31450775 -11.03093635 384.32433667 -5.12902832 384.33538818 C0.89005197 384.34560579 6.9091362 384.35018258 12.92822266 384.35522461 C24.74463969 384.36595906 36.56103851 384.38303355 48.37744141 384.40405273 C48.36855896 383.44018646 48.35967651 382.47632019 48.3505249 381.48324585 C48.26936585 372.39060423 48.20944093 363.29803629 48.17019272 354.20511436 C48.14933624 349.53055068 48.12105417 344.85627989 48.07568359 340.18188477 C48.03215645 335.66906488 48.0082897 331.15652636 47.99793243 326.64351273 C47.99055337 324.92353513 47.97614362 323.20357257 47.95452118 321.48371506 C47.92539511 319.07059453 47.92148913 316.65862994 47.92333984 314.24536133 C47.90895874 313.53757538 47.89457764 312.82978943 47.87976074 312.10055542 C47.92122627 307.08914965 49.25478319 304.27341775 52.37744141 300.40405273 C55.22922177 298.41627711 57.38119167 298.11840284 60.81494141 298.40405273 C61.55615234 298.44530273 62.29736328 298.48655273 63.06103516 298.52905273 C66.53515799 299.84136895 68.51845317 302.28819451 70.37744141 305.40405273 C70.83911572 308.26089172 71.0161477 310.49836902 70.94506836 313.3371582 C70.94567103 314.12094408 70.94627371 314.90472996 70.94689465 315.71226692 C70.94318229 318.23266351 70.90520562 320.75117744 70.86572266 323.27124023 C70.85836496 324.83381257 70.85326793 326.39639723 70.85046387 327.95898438 C70.82432197 333.73252926 70.75451523 339.50580978 70.68994141 345.27905273 C70.53525391 364.64592773 70.53525391 364.64592773 70.37744141 384.40405273 C98.42744141 384.40405273 126.47744141 384.40405273 155.37744141 384.40405273 C155.37744141 299.92405273 155.37744141 215.44405273 155.37744141 128.40405273 C127.32744141 128.40405273 99.27744141 128.40405273 70.37744141 128.40405273 C70.57529927 154.50721648 70.57529927 154.50721648 70.82788086 180.60986328 C70.85046387 185.66540527 70.85046387 185.66540527 70.85466003 188.03425598 C70.86232392 189.68410487 70.87988085 191.33392623 70.90531921 192.9835968 C70.94198487 195.48711572 70.94696981 197.98892813 70.94506836 200.49267578 C70.9630589 201.22415423 70.98104944 201.95563269 70.99958515 202.70927715 C70.9597016 206.63892363 70.49723162 208.2569351 67.98234558 211.34553528 C64.21127878 214.32560913 61.11304084 214.83759353 56.37744141 214.40405273 C52.28992252 212.39745255 49.94158831 210.67389153 48.37744141 206.40405273 C48.19746045 203.82813955 48.12450469 201.36370492 48.15039062 198.78979492 C48.15009857 198.02843231 48.14980652 197.2670697 48.14950562 196.4826355 C48.15089635 193.97194937 48.16644536 191.46156187 48.18212891 188.95092773 C48.18585995 187.20786705 48.18870649 185.46480426 48.19070435 183.72174072 C48.19833361 179.13828726 48.21797604 174.55496092 48.2401123 169.97155762 C48.26058595 165.29282348 48.26970931 160.61406877 48.27978516 155.93530273 C48.30122259 146.7581636 48.33535003 137.58111875 48.37744141 128.40405273 C46.51488457 128.4173764 46.51488457 128.4173764 44.61470032 128.43096924 C32.9169734 128.51203036 21.21930342 128.5720064 9.52135944 128.61130142 C3.5072033 128.63218251 -2.50672623 128.66051023 -8.52075195 128.70581055 C-14.32384788 128.74924886 -20.12672574 128.77318591 -25.92997169 128.78356171 C-28.14478806 128.79095663 -30.3595924 128.80539704 -32.57431602 128.82697296 C-35.67488845 128.8559795 -38.77455802 128.8600098 -41.87524414 128.8581543 C-42.79234161 128.8725354 -43.70943909 128.8869165 -44.65432739 128.9017334 C-48.65845213 128.87577843 -51.05350867 128.71933129 -54.60676575 126.75067139 C-58.46659582 122.25737771 -58.87300887 117.73857993 -58.88134766 111.97827148 C-58.88765198 110.72256348 -58.8939563 109.46685547 -58.90045166 108.1730957 C-58.89686837 106.81257995 -58.89276554 105.45206549 -58.88818359 104.09155273 C-58.88953359 102.67635024 -58.89147689 101.26114819 -58.89398193 99.84594727 C-58.89692517 96.88040754 -58.89266656 93.91498853 -58.88330078 90.94946289 C-58.8719903 87.18882953 -58.87841689 83.42848439 -58.89044571 79.66786194 C-58.89775794 76.7420647 -58.89533265 73.81633293 -58.89019012 70.89053345 C-58.88887494 69.50656092 -58.89042465 68.12258203 -58.89514923 66.73861694 C-58.94877215 46.59337338 -56.50056592 29.90313234 -42.23193359 14.88842773 C-36.91480422 9.83882688 -31.49122752 6.01796285 -24.62255859 3.40405273 C-23.97969091 3.15768538 -23.33682323 2.91131804 -22.67447472 2.65748501 C-15.13221418 0.0657813 -7.90462987 -0.02834041 0 0 Z M-29.62255859 34.40405273 C-33.37670019 40.4518942 -35.75133629 46.00731541 -35.73608398 53.16064453 C-35.73596313 54.35814331 -35.73584229 55.55564209 -35.73571777 56.78942871 C-35.73060181 58.04799683 -35.72548584 59.30656494 -35.72021484 60.60327148 C-35.71920776 61.76008423 -35.71820068 62.91689697 -35.71716309 64.10876465 C-35.71192505 68.43637074 -35.69796382 72.76396272 -35.68505859 77.09155273 C-35.66443359 86.76467773 -35.64380859 96.43780273 -35.62255859 106.40405273 C-7.90255859 106.40405273 19.81744141 106.40405273 48.37744141 106.40405273 C48.37744141 78.68405273 48.37744141 50.96405273 48.37744141 22.40405273 C34.08431641 22.28030273 34.08431641 22.28030273 19.50244141 22.15405273 C16.5132666 22.11763672 13.5240918 22.0812207 10.44433594 22.04370117 C8.04964921 22.03200821 5.65495448 22.02181783 3.26025391 22.01342773 C2.03749756 21.99296387 0.81474121 21.9725 -0.44506836 21.95141602 C-12.4933133 21.94654902 -21.61846597 25.13698692 -29.62255859 34.40405273 Z M70.37744141 22.40405273 C70.37744141 50.12405273 70.37744141 77.84405273 70.37744141 106.40405273 C98.42744141 106.40405273 126.47744141 106.40405273 155.37744141 106.40405273 C155.45994141 97.22592773 155.54244141 88.04780273 155.62744141 78.59155273 C155.66385742 75.715896 155.70027344 72.84023926 155.73779297 69.87744141 C155.74948864 67.567309 155.75967838 65.25716827 155.76806641 62.94702148 C155.79876221 61.1853363 155.79876221 61.1853363 155.83007812 59.38806152 C155.83465955 48.43272158 153.28043963 38.3768346 145.37744141 30.40405273 C138.86327207 25.15295393 132.68340878 22.14115836 124.18847656 22.17700195 C122.9710376 22.17724365 121.75359863 22.17748535 120.49926758 22.17773438 C118.60204956 22.19308228 118.60204956 22.19308228 116.66650391 22.20874023 C115.4930542 22.21075439 114.31960449 22.21276855 113.1105957 22.21484375 C108.74117098 22.2252814 104.37180213 22.25320394 100.00244141 22.27905273 C90.22619141 22.32030273 80.44994141 22.36155273 70.37744141 22.40405273 Z M232.31494141 24.59155273 C231.20828125 24.78813477 230.10162109 24.9847168 228.96142578 25.18725586 C218.45676914 27.20380247 209.95934594 30.46838403 203.07275391 38.88842773 C196.64374969 48.42824044 196.30645564 58.41779765 198.37133789 69.47045898 C198.81908734 71.6381918 199.27862879 73.80351479 199.74853516 75.96655273 C200.11121239 77.69711914 200.11121239 77.69711914 200.48121643 79.46264648 C201.24883163 83.11204626 202.03184167 86.75794808 202.81494141 90.40405273 C203.3373981 92.88171249 203.8588917 95.35957553 204.37939453 97.83764648 C205.33203676 102.35057178 206.28591095 106.86319557 207.25415039 111.37280273 C207.4473436 112.27450195 207.6405368 113.17620117 207.83958435 114.10522461 C208.37308088 116.5439469 208.37308088 116.5439469 209.37744141 119.40405273 C219.31034486 117.9850761 229.12907477 116.13354304 238.95947266 114.14624023 C240.51025879 113.83496076 242.06109699 113.52394055 243.61198425 113.21316528 C247.64831682 112.40363308 251.68394341 111.59063554 255.71942139 110.77685547 C259.85564946 109.94341731 263.99255176 109.11333963 268.12939453 108.28295898 C276.21273154 106.65990122 284.29532411 105.03317326 292.37744141 103.40405273 C291.30435011 93.49430066 289.04133085 83.82882312 286.93188477 74.09741211 C286.43912529 71.81051523 285.95338963 69.52209311 285.47485352 67.23217773 C281.82334398 45.6366613 281.82334398 45.6366613 269.24462891 28.57983398 C256.93560358 20.82875318 246.25362768 21.86247038 232.31494141 24.59155273 Z M284.86499023 126.76513672 C284.12620132 126.90983398 283.38741241 127.05453125 282.62623596 127.20361328 C280.19470346 127.68113092 277.7645886 128.16547569 275.33447266 128.65014648 C273.64253667 128.98438556 271.95053431 129.31828885 270.25846863 129.65187073 C266.71818395 130.35087781 263.1785618 131.05312112 259.6394043 131.7578125 C255.09735428 132.66204286 250.55399254 133.55946641 246.01015186 134.45464993 C242.51909409 135.1429711 239.02862241 135.83422544 235.5383358 136.52644539 C233.86269817 136.85852875 232.18690802 137.18984342 230.51096535 137.52038383 C228.17396148 137.98189321 225.83774323 138.4471852 223.50170898 138.91357422 C222.80609863 139.05024002 222.11048828 139.18690582 221.39379883 139.32771301 C217.78207302 140.04505135 217.78207302 140.04505135 214.37744141 141.40405273 C215.68592099 150.53251088 217.35100118 159.53868369 219.25634766 168.56005859 C219.54332387 169.93128682 219.82999411 171.30257911 220.11638737 172.67392921 C220.89138282 176.38060694 221.67061308 180.08638272 222.45061994 183.79200864 C223.28256187 187.74817181 224.11045771 191.70518174 224.93882751 195.66209412 C226.53232139 203.27080121 228.12935404 210.87876104 229.72766048 218.48645848 C231.56026397 227.21010248 233.3892658 235.93450025 235.21790445 244.65897608 C237.578021 255.91904717 239.93873962 267.1789916 242.301651 278.43847656 C246.14007181 296.72925925 249.97332002 315.02108638 253.79111862 333.3161869 C254.45150651 336.48078475 255.11213919 339.64533139 255.77285767 342.80986023 C259.02822963 358.40227706 259.02822963 358.40227706 260.43530273 365.15524292 C261.29016433 369.25774873 262.14663138 373.35991585 263.00442696 377.46180916 C263.30764872 378.91331791 263.61024743 380.364957 263.91215324 381.81674004 C264.31294222 383.74380592 264.71608868 385.67038107 265.11938477 387.59692383 C265.34041367 388.65656342 265.56144257 389.716203 265.78916931 390.80795288 C266.35362107 393.49718175 266.35362107 393.49718175 267.37744141 396.40405273 C276.33660131 395.64434474 285.07810755 393.78489988 293.88134766 392.02514648 C295.57235837 391.68994428 297.26343512 391.3550751 298.95457458 391.02052307 C303.37909143 390.14431643 307.80270341 389.26362347 312.22613525 388.38195801 C316.75063687 387.48098557 321.27598925 386.58430756 325.80126953 385.68725586 C334.66082612 383.93036388 343.51943167 382.16872595 352.37744141 380.40405273 C351.82729197 373.38323079 350.72398561 366.64476233 349.19799805 359.77441406 C348.97575373 358.75230898 348.75350941 357.7302039 348.52453041 356.67712593 C347.78422183 353.2789223 347.03590727 349.88253392 346.28759766 346.48608398 C345.7538036 344.04344801 345.22051673 341.60070116 344.68769836 339.15785217 C343.39459159 333.23525066 342.09636266 327.31379355 340.795775 321.3928321 C339.28309694 314.50513623 337.77639561 307.61613746 336.27020168 300.72702122 C334.23723205 291.42876536 332.20300736 282.13078563 330.16534424 272.83355713 C326.01569245 253.89934718 321.88050928 234.96204036 317.75740623 216.02203178 C316.84426164 211.82758718 315.93056518 207.63326294 315.01667786 203.4389801 C314.86832263 202.75810194 314.7199674 202.07722377 314.56711656 201.37571293 C313.8285983 197.98637133 313.09001744 194.59704336 312.35140324 191.20772266 C310.90851458 184.5864172 309.46632367 177.96496127 308.02566528 171.34317017 C306.67476573 165.13475301 305.32124035 158.92691404 303.96568871 152.71951103 C303.46826136 150.43951389 302.97177643 148.15931091 302.47628212 145.8788929 C301.80306087 142.78110363 301.12657308 139.68404593 300.44921875 136.5871582 C300.25205293 135.67614255 300.0548871 134.7651269 299.85174656 133.82650471 C299.67068332 133.00194877 299.48962008 132.17739283 299.30307007 131.32785034 C299.14732702 130.61320051 298.99158398 129.89855068 298.83112144 129.1622448 C298.41966681 127.31387558 298.41966681 127.31387558 297.37744141 125.40405273 C293.07088895 125.22362732 289.06561857 125.92024409 284.86499023 126.76513672 Z M344.35253906 403.87280273 C343.57137726 404.02885986 342.79021545 404.18491699 341.98538208 404.34570312 C339.41962283 404.85968683 336.85559368 405.3818101 334.29150391 405.90405273 C332.50656095 406.26328087 330.72151499 406.62199755 328.93637085 406.98022461 C324.25003757 407.9220616 319.56513222 408.87082197 314.88049316 409.82104492 C310.09516484 410.79041032 305.30851477 411.75320213 300.52197266 412.71655273 C291.13915911 414.60596517 281.75784137 416.50269647 272.37744141 418.40405273 C273.13535673 424.73340208 273.13535673 424.73340208 274.23779297 431.0090332 C274.40176575 431.81702362 274.56573853 432.62501404 274.73468018 433.45748901 C274.91069763 434.30352692 275.08671509 435.14956482 275.26806641 436.02124023 C275.4545575 436.91843781 275.64104858 437.81563538 275.83319092 438.74002075 C276.22792563 440.62796537 276.62470788 442.51548294 277.0234375 444.40258789 C277.42508628 446.31537119 277.82062941 448.22944705 278.20996094 450.14477539 C282.31654282 471.07487838 282.31654282 471.07487838 296.37744141 486.40405273 C307.56918653 492.99619545 320.41235053 490.63264647 332.56494141 488.21655273 C333.66257812 488.0199707 334.76021484 487.82338867 335.89111328 487.62084961 C346.37663859 485.59119164 356.25965714 481.86879804 363.00244141 473.21655273 C369.24776326 463.9175246 369.52301476 453.60735899 367.45947266 442.8190918 C367.04907645 440.93312716 366.62551569 439.04998694 366.18994141 437.16967773 C365.96798096 436.16563904 365.74602051 435.16160034 365.51733398 434.12713623 C364.81584285 430.96666594 364.09700017 427.81045281 363.37744141 424.65405273 C362.89450995 422.49285342 362.41272886 420.33139671 361.93212891 418.16967773 C360.76049391 412.91142518 359.57464424 407.65653959 358.37744141 402.40405273 C353.53696419 402.22620574 349.07144119 402.90099855 344.35253906 403.87280273 Z M-35.62255859 406.40405273 C-35.70505859 415.93280273 -35.78755859 425.46155273 -35.87255859 435.27905273 C-35.90897461 438.26822754 -35.94539063 441.25740234 -35.98291016 444.3371582 C-35.99460312 446.73184493 -36.0047935 449.12653966 -36.01318359 451.52124023 C-36.03364746 452.74399658 -36.05411133 453.96675293 -36.07519531 455.2265625 C-36.07965473 466.26586198 -33.54518314 474.33586255 -25.91552734 482.42358398 C-19.89021601 487.62772852 -12.78346777 490.53445979 -4.8659668 490.51757812 C-3.66846802 490.51745728 -2.47096924 490.51733643 -1.23718262 490.51721191 C0.65066956 490.50953796 0.65066956 490.50953796 2.57666016 490.50170898 C3.7334729 490.5007019 4.89028564 490.49969482 6.08215332 490.49865723 C10.40975941 490.49341919 14.73735139 490.47945796 19.06494141 490.46655273 C33.57462891 490.43561523 33.57462891 490.43561523 48.37744141 490.40405273 C48.37744141 462.68405273 48.37744141 434.96405273 48.37744141 406.40405273 C20.65744141 406.40405273 -7.06255859 406.40405273 -35.62255859 406.40405273 Z M70.37744141 406.40405273 C70.37744141 434.12405273 70.37744141 461.84405273 70.37744141 490.40405273 C84.70150391 490.49686523 84.70150391 490.49686523 99.31494141 490.59155273 C103.81235962 490.63252075 103.81235962 490.63252075 108.40063477 490.67431641 C110.79784747 490.68308467 113.19506467 490.69072781 115.59228516 490.69702148 C116.82015747 490.71236938 118.04802979 490.72771729 119.31311035 490.74353027 C129.6186729 490.74665223 137.26907227 489.13429068 145.29931641 482.49389648 C153.47069123 474.27644248 155.60609786 465.05929431 155.60375977 453.87268066 C155.59352783 452.67776001 155.5832959 451.48283936 155.57275391 450.25170898 C155.57073975 449.13824097 155.56872559 448.02477295 155.56665039 446.87756348 C155.55623068 442.74051765 155.52830825 438.60353081 155.50244141 434.46655273 C155.46119141 425.20592773 155.41994141 415.94530273 155.37744141 406.40405273 C127.32744141 406.40405273 99.27744141 406.40405273 70.37744141 406.40405273 Z " fill="#F0F6FC" transform="translate(121.62255859375,-0.404052734375)"/>
<path d="M0 0 C3.52787301 1.95657197 5.70285021 4.10855063 7 8 C7.08826965 9.82532586 7.11763203 11.65374689 7.11352539 13.48120117 C7.11341209 15.16260445 7.11341209 15.16260445 7.11329651 16.87797546 C7.10813522 18.08742325 7.10297394 19.29687103 7.09765625 20.54296875 C7.0962413 21.78170242 7.09482635 23.0204361 7.09336853 24.29670715 C7.08871602 27.58631537 7.0797339 30.8758746 7.06866455 34.16546631 C7.05842629 37.52371623 7.05386574 40.88197333 7.04882812 44.24023438 C7.03779145 50.82684212 7.02104767 57.41341705 7 64 C7.70077667 63.98889694 8.40155334 63.97779388 9.12356567 63.96635437 C15.74383766 63.8659619 22.36389571 63.78993935 28.98475838 63.74093914 C32.38828256 63.71489976 35.79117519 63.67960908 39.19433594 63.62280273 C43.11124989 63.5578336 47.02791258 63.53377247 50.9453125 63.51171875 C52.16115021 63.48591232 53.37698792 63.4601059 54.62966919 63.43351746 C64.06693006 63.43039311 64.06693006 63.43039311 67.75683594 66.39013672 C70.61152725 69.71149611 71.03017502 71.54100048 71.2421875 75.78125 C70.85639279 79.31562734 69.30350467 81.37656412 67 84 C63.59317436 86.27121709 62.42202816 86.24468887 58.42700195 86.22705078 C57.28604568 86.22689972 56.14508942 86.22674866 54.96955872 86.22659302 C53.73823715 86.21627045 52.50691559 86.20594788 51.23828125 86.1953125 C49.97735153 86.1924826 48.71642181 86.18965271 47.4172821 86.18673706 C44.06839578 86.17743125 40.71978209 86.15946703 37.37097168 86.1373291 C33.95241653 86.11685386 30.5338332 86.10773176 27.11523438 86.09765625 C20.41008081 86.0755818 13.70505615 86.04209362 7 86 C7.00888245 86.6882486 7.01776489 87.37649719 7.0269165 88.08560181 C7.11548295 95.25571377 7.17577339 102.42567006 7.21972656 109.59619141 C7.23756825 112.27163375 7.26711049 114.94622016 7.30175781 117.62158203 C7.35033506 121.46918571 7.37298365 125.31620787 7.390625 129.1640625 C7.41127014 130.35802643 7.43191528 131.55199036 7.45318604 132.78213501 C7.45489819 139.13324534 7.42300467 143.25051169 3 148 C-0.70174739 150.4678316 -3.70493475 150.68072732 -8 150 C-13.5 147 -13.5 147 -15 144 C-15.09101612 142.1514292 -15.11753146 140.29953621 -15.11352539 138.44873047 C-15.11344986 137.28767792 -15.11337433 136.12662537 -15.11329651 134.9303894 C-15.10813522 133.67203278 -15.10297394 132.41367615 -15.09765625 131.1171875 C-15.0962413 129.83264679 -15.09482635 128.54810608 -15.09336853 127.22463989 C-15.08954911 123.80843158 -15.07972373 120.39226574 -15.06866455 116.97607422 C-15.05843807 113.49056574 -15.05386826 110.0050504 -15.04882812 106.51953125 C-15.03810096 99.67967005 -15.02103142 92.83983706 -15 86 C-15.70077667 86.00888245 -16.40155334 86.01776489 -17.12356567 86.0269165 C-23.74388287 86.10723103 -30.36406313 86.16804951 -36.98475838 86.20724869 C-40.38816318 86.22807946 -43.79116375 86.25631258 -47.19433594 86.30175781 C-51.11127806 86.3537335 -55.02805935 86.37298269 -58.9453125 86.390625 C-60.16115021 86.41127014 -61.37698792 86.43191528 -62.62966919 86.45318604 C-73.23430229 86.45599469 -73.23430229 86.45599469 -78 82 C-79.85726616 78.28546768 -79.58501089 74.04420575 -79 70 C-76.80977082 67.17575712 -75.16982793 65.58491397 -72 64 C-70.1820546 63.9090785 -68.36074055 63.88246533 -66.54052734 63.88647461 C-64.82897964 63.88658791 -64.82897964 63.88658791 -63.08285522 63.88670349 C-61.84637238 63.89186478 -60.60988953 63.89702606 -59.3359375 63.90234375 C-58.07359283 63.9037587 -56.81124817 63.90517365 -55.51065063 63.90663147 C-52.15361701 63.91128922 -48.796651 63.92027592 -45.43963623 63.93133545 C-42.01445094 63.9415623 -38.58925866 63.94613182 -35.1640625 63.95117188 C-28.44268957 63.96221762 -21.72134869 63.97896806 -15 64 C-15.01665459 62.92671196 -15.01665459 62.92671196 -15.03364563 61.83174133 C-15.13395525 55.07870982 -15.21001883 48.32588708 -15.25906086 41.57227802 C-15.28512227 38.10035151 -15.32045387 34.62904208 -15.37719727 31.1574707 C-15.44206834 27.16351501 -15.46620862 23.17020442 -15.48828125 19.17578125 C-15.51408768 17.93290848 -15.5398941 16.69003571 -15.56648254 15.40950012 C-15.56960655 5.80701866 -15.56960655 5.80701866 -12.59448242 2.73901367 C-8.43434615 -0.0494168 -4.98567066 -0.84173661 0 0 Z " fill="#F0F6FC" transform="translate(79,181)"/>
</svg>
