<?xml version="1.0" encoding="UTF-8"?>
<svg version="1.1" xmlns="http://www.w3.org/2000/svg" width="512" height="512">
<path d="M0 0 C1.30660583 -0.0066568 2.61321167 -0.0133136 3.95941162 -0.02017212 C6.71272081 -0.0320697 9.46590525 -0.03586083 12.21923828 -0.03466797 C15.70647 -0.03446531 19.19288197 -0.06174518 22.6799202 -0.09621239 C26.05745492 -0.12411453 29.43485213 -0.12263786 32.8125 -0.125 C34.043172 -0.13937103 35.27384399 -0.15374207 36.54180908 -0.16854858 C51.1369395 -0.09294858 62.93791634 4.77782011 75.64998436 11.36478043 C77.96261208 12.56246224 80.28309054 13.74357295 82.60603333 14.92111206 C88.36512936 17.84427775 94.11132915 20.79241046 99.85614014 23.74353027 C104.73635386 26.24976356 109.6221654 28.74436037 114.51626015 31.22338486 C116.78585996 32.37876851 119.0464552 33.55053605 121.30717468 34.72317505 C122.71630851 35.43887068 124.1258591 36.15374652 125.53588867 36.86767578 C126.14759918 37.19082764 126.75930969 37.51397949 127.38955688 37.84692383 C137.11313362 42.70100976 147.63034776 42.62585904 158.27783203 42.59130859 C159.66072291 42.5940655 161.0436122 42.59774962 162.42649841 42.60227966 C165.38379182 42.61033427 168.34100988 42.61257465 171.29831314 42.61033249 C175.99181405 42.60747295 180.68516763 42.62195043 185.37863159 42.63931274 C198.71821895 42.68608507 212.05779509 42.71025642 225.39746094 42.71679688 C232.78106469 42.72056961 240.16450008 42.73877316 247.54803169 42.77189124 C251.44133396 42.78864923 255.33433032 42.79802503 259.22766495 42.78895187 C290.38501346 42.72242226 290.38501346 42.72242226 304.171875 47.3359375 C305.44320534 47.75620712 305.44320534 47.75620712 306.74021912 48.18496704 C330.65226776 56.90810875 349.4874235 75.19069388 360.86328125 97.6796875 C363.72730138 103.93889942 365.85928382 110.22621713 367.484375 116.8984375 C367.64389648 117.54586914 367.80341797 118.19330078 367.96777344 118.86035156 C370.68389959 131.01396683 370.31098253 143.63047722 370.26953125 156.01171875 C370.26766124 157.67465675 370.2662401 159.33759531 370.26524353 161.00053406 C370.26146423 165.33228127 370.25167434 169.66399382 370.24053955 173.99572754 C370.2302256 178.43399588 370.22572473 182.87226995 370.22070312 187.31054688 C370.21004694 195.98569282 370.19302718 204.66081082 370.171875 213.3359375 C371.22145386 213.31237183 371.22145386 213.31237183 372.29223633 213.28833008 C375.52286396 213.2252142 378.75336118 213.1867067 381.984375 213.1484375 C383.08458984 213.12330078 384.18480469 213.09816406 385.31835938 213.07226562 C399.85499789 212.94362281 411.23583625 216.90758321 421.83984375 226.84375 C431.1146082 236.75547483 434.0949154 248.45446138 433.6824646 261.66888428 C432.94041924 272.58024462 429.81445508 283.1975199 427.07673097 293.74179316 C426.20754099 297.10896509 425.36401465 300.48256953 424.51725769 303.85543823 C423.09350447 309.51209384 421.65369977 315.16444412 420.2019043 320.81396484 C418.16915787 328.72429266 416.16592584 336.64187251 414.16851962 344.56118608 C412.59845742 350.78180255 411.02076512 357.00048827 409.44140625 363.21875 C409.27549555 363.87214434 409.10958485 364.52553868 408.93864655 365.19873285 C399.68987645 401.59927991 390.86552631 436.09067775 356.9609375 457.1484375 C343.99955989 464.82337268 327.80152394 470.44714644 312.60566139 470.46736526 C311.51676286 470.47120641 310.42786433 470.47504755 309.30596888 470.4790051 C308.12038398 470.47813862 306.93479907 470.47727213 305.71328735 470.47637939 C304.44538152 470.47935052 303.17747569 470.48232164 301.87114847 470.4853828 C298.35829928 470.49343035 294.84547055 470.49524112 291.33261323 470.49598026 C287.54096065 470.49783482 283.74931859 470.50538436 279.95767212 470.51211548 C271.66796275 470.5256851 263.37825823 470.53172187 255.0885396 470.53612614 C249.90730595 470.53889184 244.72607416 470.54312988 239.54484177 470.54763031 C225.18617431 470.55982301 210.82750835 470.57012114 196.46883583 470.5735054 C195.09084734 470.57383475 195.09084734 470.57383475 193.68502071 470.57417075 C192.30380897 470.57449817 192.30380897 470.57449817 190.89469397 470.5748322 C189.02891707 470.57527566 187.16314018 470.57572222 185.29736328 470.57617188 C184.37188145 470.5763933 183.44639962 470.57661473 182.49287288 470.57684287 C167.51463251 470.58078638 152.53644093 470.59822671 137.55821939 470.6215314 C122.1626613 470.64529098 106.76712763 470.65770941 91.37155092 470.65887332 C82.73477101 470.65978769 74.09805461 470.66547943 65.46129227 470.68369293 C58.10278586 470.69915647 50.74436258 470.70417787 43.38584299 470.69595483 C39.63701319 470.69206983 35.88835046 470.69287137 32.13954163 470.70701218 C-2.71456448 470.83095784 -2.71456448 470.83095784 -17.640625 464.5234375 C-18.25115723 464.26554443 -18.86168945 464.00765137 -19.49072266 463.74194336 C-28.83904063 459.70911962 -37.05476179 454.90402314 -44.828125 448.3359375 C-46.03082031 447.35173828 -46.03082031 447.35173828 -47.2578125 446.34765625 C-64.43174926 431.71503412 -75.61691447 410.67222903 -78.828125 388.3359375 C-78.9161891 386.41342237 -78.9588224 384.48843257 -78.96234608 382.56390476 C-78.96680392 381.42910539 -78.97126176 380.29430602 -78.97585469 379.12511879 C-78.97567033 377.88826944 -78.97548597 376.65142009 -78.97529602 375.37709045 C-78.97859814 374.04204131 -78.98232444 372.70699316 -78.9864375 371.37194628 C-78.99642619 367.70894855 -79.00016924 364.04596722 -79.00282681 360.38295782 C-79.00673922 356.42976717 -79.01631693 352.47658939 -79.02503967 348.52340698 C-79.04477828 338.97885101 -79.05486726 329.43429401 -79.06376746 319.88972273 C-79.06815487 315.39034768 -79.07352053 310.89097379 -79.07875633 306.39159966 C-79.09576646 291.42644145 -79.11025922 276.46128397 -79.11750507 261.49611759 C-79.11941484 257.61484336 -79.12133519 253.73356913 -79.12329102 249.85229492 C-79.12377476 248.88767279 -79.1242585 247.92305065 -79.1247569 246.92919754 C-79.13305195 231.31331455 -79.15838098 215.69750829 -79.19087169 200.08165879 C-79.22398728 184.03408877 -79.24195792 167.98655769 -79.24514931 151.93895334 C-79.24731031 142.9349777 -79.25599863 133.93111395 -79.28161049 124.92717171 C-79.30337909 117.25680952 -79.31133776 109.5865864 -79.30164371 101.91619683 C-79.29711669 98.00744877 -79.29889113 94.09898726 -79.31840515 90.19027901 C-79.33616551 86.6016012 -79.33493662 83.01341624 -79.31950786 79.42473226 C-79.31604719 77.53328122 -79.3320615 75.64182421 -79.34911233 73.75044686 C-79.21636051 55.83129322 -72.82588569 38.74817103 -60.828125 25.3359375 C-60.18488281 24.59988281 -59.54164062 23.86382812 -58.87890625 23.10546875 C-43.1753974 6.24088716 -22.51596391 0.04045354 0 0 Z M-45.60546875 42.3046875 C-54.71136333 53.61175252 -57.13213076 66.06926045 -57.09555054 80.18688965 C-57.10008165 81.47283854 -57.10461276 82.75878743 -57.10928118 84.08370447 C-57.12147052 87.63766324 -57.12125552 91.19152759 -57.11889243 94.74550247 C-57.11848321 98.58484586 -57.12953361 102.4241594 -57.13900757 106.26348877 C-57.15559776 113.78091565 -57.16111628 121.29831117 -57.16223232 128.81575483 C-57.16318403 134.93099216 -57.16730046 141.04621918 -57.17363358 147.16145325 C-57.19124297 164.51980166 -57.20047328 181.87812539 -57.19897263 199.2364828 C-57.19885276 200.6392285 -57.19885276 200.6392285 -57.19873047 202.0703125 C-57.19864871 203.00662579 -57.19856695 203.94293908 -57.19848271 204.9076255 C-57.19767058 220.06682169 -57.21679059 235.22591834 -57.2450072 250.38508576 C-57.27378699 265.97055439 -57.2875446 281.55597457 -57.28581965 297.14147043 C-57.28515736 305.88331207 -57.29057851 314.62504945 -57.31217575 323.36686707 C-57.33045503 330.81318263 -57.33468007 338.25934669 -57.3211569 345.70567507 C-57.3146602 349.49911804 -57.31438907 353.29227097 -57.3318634 357.08568573 C-57.54247563 383.19498562 -57.54247563 383.19498562 -49.140625 407.6484375 C-48.8017627 408.30303955 -48.46290039 408.9576416 -48.11376953 409.63208008 C-43.60329609 418.02674371 -37.65914234 425.79692523 -29.828125 431.3359375 C-29.168125 431.3359375 -28.508125 431.3359375 -27.828125 431.3359375 C-23.84595531 418.50353477 -19.86696117 405.67014906 -15.890625 392.8359375 C-15.59504322 391.88191418 -15.29946144 390.92789085 -14.99492264 389.94495773 C-7.70919783 366.42686107 -0.44226378 342.9037671 6.69244385 319.33935547 C7.72435461 315.93152926 8.75818973 312.52429205 9.79248047 309.1171875 C12.31002544 300.81903992 14.82733309 292.52124177 17.28482056 284.20507812 C24.8634369 258.57682975 32.99819141 237.92189038 57.109375 223.58984375 C70.02789249 216.70111301 83.39546349 214.19201571 97.88426208 214.17771912 C98.95196667 214.17278114 100.01967126 214.16784316 101.11973053 214.16275555 C104.69106557 214.14741914 108.26238268 214.13903036 111.83374023 214.13061523 C114.39631813 214.12103368 116.95889444 214.11102344 119.52146912 214.10061646 C125.03528249 214.07918802 130.54909298 214.06073798 136.06292534 214.04501152 C144.03493286 214.02226873 152.00691422 213.9941321 159.97889949 213.96469224 C172.91389993 213.91707028 185.84891111 213.87379154 198.78393555 213.83325195 C211.34676955 213.79386953 223.90959404 213.75243675 236.47241211 213.70825195 C237.2471919 213.70552768 238.02197168 213.70280341 238.82022964 213.69999658 C242.70719385 213.68631665 246.59415791 213.67259647 250.4811219 213.65885627 C282.71135328 213.5449763 314.94160443 213.43814826 347.171875 213.3359375 C347.26519686 202.80776059 347.33595188 192.27968459 347.37912369 181.75117588 C347.39986031 176.8605783 347.42791821 171.97026692 347.47363281 167.07983398 C347.51759398 162.34651376 347.54111632 157.61346607 347.55138397 152.8799572 C347.55868632 151.08813127 347.57294122 149.2963176 347.59479523 147.50461006 C347.76812974 132.68312191 346.60287705 117.70072241 339.109375 104.5234375 C338.72579834 103.82677979 338.34222168 103.13012207 337.94702148 102.41235352 C328.10296041 85.28616845 311.62183523 72.78865903 292.75585938 67.16210938 C279.85201876 63.81258053 266.03505852 64.80263759 252.79675865 64.86015892 C248.82577191 64.87206795 244.85488466 64.85796133 240.88391113 64.8458252 C230.81319932 64.8192492 220.74260674 64.8257615 210.671875 64.8359375 C199.79329177 64.8469298 188.91489612 64.85189024 178.03634405 64.81864309 C174.10007585 64.80755579 170.16417504 64.8046893 166.22792053 64.8217926 C143.20614805 64.91840624 125.7756458 62.8385304 105.140625 52.140625 C103.56924074 51.3423473 101.99699668 50.54576012 100.4239502 49.75076294 C96.32989141 47.67742996 92.24520366 45.58635178 88.16308594 43.48962402 C81.60638954 40.12420876 75.03829725 36.78130577 68.46498108 33.44849014 C66.18773965 32.28960165 63.91635569 31.11981949 61.64538574 29.94869995 C60.24229672 29.23349234 58.83902655 28.51863995 57.43554688 27.80419922 C56.5065155 27.31947144 56.5065155 27.31947144 55.55871582 26.82495117 C49.50460043 23.76698208 43.49617809 22.09738093 36.68066406 22.0612793 C35.17805023 22.04698128 35.17805023 22.04698128 33.64508057 22.03239441 C32.58657898 22.03330582 31.52807739 22.03421722 30.4375 22.03515625 C29.32308533 22.03087112 28.20867065 22.026586 27.06048584 22.02217102 C24.71057817 22.01644861 22.36065279 22.01591199 20.01074219 22.02026367 C16.44695209 22.02341532 12.88399971 21.99996581 9.3203125 21.97460938 C7.0260427 21.9723351 4.7317707 21.97163348 2.4375 21.97265625 C1.38709534 21.9634465 0.33669067 21.95423676 -0.74554443 21.94474792 C-18.85345336 22.05594252 -33.5086686 28.90515502 -45.60546875 42.3046875 Z M54.91796875 252.6171875 C46.20565869 262.80083646 42.23367586 275.42269736 38.4765625 288.0703125 C38.04739163 289.48865287 37.61733742 290.90672621 37.18647766 292.32455444 C36.27188434 295.34028617 35.36300074 298.35765252 34.45883179 301.37652588 C33.02648753 306.15861572 31.5814422 310.93680688 30.1340332 315.71435547 C28.6364428 320.6590915 27.13937516 325.60397848 25.64649963 330.55014038 C22.32920439 341.53826089 18.97926234 352.515879 15.59765625 363.484375 C15.26303879 364.56989906 15.26303879 364.56989906 14.92166138 365.67735291 C13.1980382 371.26779221 11.47215338 376.85753254 9.74599457 382.44718933 C6.8765247 391.73995011 4.01838131 401.03611542 1.171875 410.3359375 C0.74827008 411.71611745 0.32462392 413.09628475 -0.09906006 414.47644043 C-1.16860119 417.96307179 -2.23171114 421.45161169 -3.2905941 424.94149399 C-3.69456827 426.26989191 -4.10042732 427.59771826 -4.5082798 428.92493057 C-5.07156149 430.75938485 -5.62714305 432.59619817 -6.18237305 434.43310547 C-6.50094772 435.47884735 -6.8195224 436.52458923 -7.14775085 437.60202026 C-7.98912376 440.51332071 -7.98912376 440.51332071 -7.828125 444.3359375 C-6.14221658 444.82067428 -4.45429955 445.29842676 -2.765625 445.7734375 C-1.82589844 446.04027344 -0.88617188 446.30710937 0.08203125 446.58203125 C7.55872041 448.4063056 14.74884395 448.48216451 22.41577148 448.47637939 C23.64848534 448.47935052 24.88119919 448.48232164 26.15126801 448.4853828 C29.56118569 448.4925413 32.97105297 448.49524041 36.38097453 448.49598026 C40.06352342 448.49783696 43.74606152 448.50538745 47.42860413 448.51211548 C55.47645927 448.52567529 63.52430941 448.53172007 71.57217407 448.53612614 C76.60247909 448.53889297 81.63278221 448.54313117 86.66308594 448.54763031 C100.60488769 448.55982072 114.54668791 448.57011995 128.48849487 448.5735054 C129.82599527 448.57383475 129.82599527 448.57383475 131.19051588 448.57417075 C132.08425653 448.57438903 132.97799718 448.57460731 133.89882088 448.5748322 C135.70972824 448.57527566 137.52063561 448.57572222 139.33154297 448.57617188 C140.22980608 448.5763933 141.12806919 448.57661473 142.05355239 448.57684287 C156.59591487 448.5807876 171.13822714 448.59823272 185.68057024 448.6215314 C200.62980032 448.64528753 215.57900526 448.65770922 230.52825451 448.65887332 C238.91403629 448.65978777 247.29975267 448.66548187 255.68551636 448.68369293 C262.82883274 448.69915167 269.97206351 448.70418059 277.11539346 448.69595483 C280.7547438 448.69206843 284.39392204 448.69287846 288.03325081 448.70701218 C315.51033386 448.80743069 338.68497799 446.24314741 359.34375 426.2578125 C369.87456083 415.64241684 376.0552585 402.62099945 379.62133789 388.25390625 C380.05588712 386.57351509 380.05588712 386.57351509 380.49921513 384.85917664 C381.40251989 381.35447413 382.28747136 377.84545054 383.171875 374.3359375 C383.73356406 372.15020075 384.29659769 369.96480904 384.86105347 367.77978516 C386.5884289 361.07458141 388.28770113 354.36245163 389.98046875 347.6484375 C390.28296099 346.44911591 390.58545322 345.24979431 390.89711189 344.01412964 C392.48859881 337.70090409 394.07686194 331.38687671 395.6628418 325.07226562 C397.13002902 319.23381561 398.60704127 313.3979382 400.08885807 307.56319141 C401.53049602 301.8835594 402.95914972 296.20072035 404.38334846 290.51669312 C404.98496548 288.12360211 405.59056803 285.73150918 406.20034599 283.34048462 C407.04889639 280.00961773 407.88247796 276.67533229 408.71264648 273.33984375 C409.08888153 271.88411957 409.08888153 271.88411957 409.47271729 270.39898682 C411.50661074 262.11334302 412.90243435 253.87515927 408.51171875 246.15625 C404.84349323 241.17259667 399.86925096 237.18323374 393.78144169 235.7881422 C388.60440658 235.13956584 383.47520076 235.19507646 378.26255798 235.20222473 C377.05378874 235.19995917 375.84501949 235.19769362 374.59962088 235.19535941 C371.25198973 235.19012899 367.90441234 235.18937372 364.55678093 235.19055378 C360.94310315 235.19075808 357.32943334 235.1852362 353.71575928 235.18049622 C346.6375584 235.17219429 339.55936585 235.16944155 332.48116051 235.16888384 C326.72435791 235.16840831 320.96755804 235.16635171 315.2107563 235.16318321 C298.87681148 235.15437664 282.54287323 235.14976365 266.20892601 235.15051369 C265.32859615 235.15055364 264.44826629 235.1505936 263.54125977 235.15063477 C262.65985022 235.15067565 261.77844068 235.15071653 260.87032176 235.15075865 C246.59815052 235.15116476 232.32600572 235.14160396 218.05384212 235.1274964 C203.38715657 235.11311374 188.72048389 235.10622731 174.05379111 235.10709018 C165.82457047 235.10742157 157.59537752 235.10469996 149.36616325 235.09391212 C142.35672514 235.08478207 135.34732724 235.08265225 128.33788573 235.08942155 C124.76566033 235.09267461 121.19351198 235.09278775 117.62129402 235.0840683 C113.73752004 235.07468648 109.85385706 235.08101127 105.97007751 235.08869934 C104.29959953 235.080984 104.29959953 235.080984 102.59537452 235.07311279 C84.27727159 235.1528299 68.13016195 239.24470773 54.91796875 252.6171875 Z " fill="#F0F6FC" transform="translate(78.828125,20.6640625)"/>
</svg>
