<?xml version="1.0" encoding="UTF-8"?>
<svg version="1.1" xmlns="http://www.w3.org/2000/svg" width="512" height="512">
<path d="M0 0 C13.13566822 9.66931133 23.38176103 24.69913224 26 41 C26.22418628 45.00492528 26.19023579 48.99050827 26.125 53 C26.11597656 54.06089844 26.10695313 55.12179688 26.09765625 56.21484375 C26.07427524 58.81013638 26.04150556 61.40494465 26 64 C26.81855469 64.09410156 27.63710938 64.18820313 28.48046875 64.28515625 C32.73271057 65.14881913 36.37047171 66.6596722 40.3125 68.4375 C41.09794189 68.79094482 41.88338379 69.14438965 42.69262695 69.50854492 C56.90373193 76.05603251 69.60468041 84.50955152 82 94 C82.84820312 93.48050781 83.69640625 92.96101563 84.5703125 92.42578125 C102.06427682 81.94147961 120.82766353 76.60567657 141.25 81 C158.30274654 86.20253284 173.15498093 96.21017057 182 112 C190.52264902 128.96620153 192.85780833 146.65994908 187 165 C179.74202704 183.507378 167.91339582 195.08086561 151 205 C151.2165625 206.07507813 151.433125 207.15015625 151.65625 208.2578125 C156.13223331 233.02173441 155.96854313 260.33473233 151 285 C152.01320313 285.66386719 153.02640625 286.32773437 154.0703125 287.01171875 C155.4219997 287.90345684 156.7735552 288.79539459 158.125 289.6875 C159.12273437 290.34008789 159.12273437 290.34008789 160.140625 291.00585938 C175.03518226 300.86255168 184.65451739 314.44985215 188.875 331.9375 C192.25881618 350.12551196 189.00873434 367.4796175 179 383 C173.31738211 390.79361321 166.27506442 397.04612501 158 402 C157.36964844 402.38542969 156.73929687 402.77085937 156.08984375 403.16796875 C141.86622598 411.04984611 124.31170606 412.31082392 108.5625 408.9375 C99.11749686 406.09588014 90.49744427 400.90030056 82 396 C80.74123047 396.98226562 80.74123047 396.98226562 79.45703125 397.984375 C63.31102124 410.33657636 45.92180472 419.64752731 27 427 C26.9906543 427.5983667 26.98130859 428.1967334 26.97167969 428.81323242 C26.54896751 450.3902026 22.57475961 468.50937709 6.890625 484.33984375 C-8.82838018 498.8055769 -26.64911165 501.97415777 -47.21484375 501.19091797 C-52.9155781 500.80014182 -57.78943201 499.38521913 -63 497 C-64.60488281 496.2884375 -64.60488281 496.2884375 -66.2421875 495.5625 C-82.75466286 487.48110029 -93.60523995 474.17244554 -100 457 C-101.98146619 450.47737999 -102.41102566 444.29368532 -102.625 437.5 C-102.68300781 435.98019531 -102.68300781 435.98019531 -102.7421875 434.4296875 C-102.83563619 431.95329716 -102.92139873 429.47689849 -103 427 C-103.6077124 426.74943848 -104.2154248 426.49887695 -104.84155273 426.24072266 C-121.57533983 419.28998318 -137.25482506 411.71168598 -151.703125 400.69140625 C-154.0547588 398.95967592 -156.47478706 397.46408622 -159 396 C-160.41539062 396.90492188 -160.41539062 396.90492188 -161.859375 397.828125 C-169.63811356 402.70586841 -177.01463765 406.71972678 -186 409 C-186.73089844 409.18949219 -187.46179688 409.37898438 -188.21484375 409.57421875 C-206.51522169 412.37189224 -223.43953171 409.13332942 -239 399 C-253.18855063 388.17242519 -262.27261891 374.21214075 -265.52734375 356.59375 C-268.14011434 336.72805624 -263.18699977 319.79662132 -251.3125 303.75 C-244.6412283 295.78333574 -235.76322747 290.3894405 -227 285 C-227.2165625 283.92492187 -227.433125 282.84984375 -227.65625 281.7421875 C-232.13223331 256.97826559 -231.96854313 229.66526767 -227 205 C-228.00160156 204.34773437 -229.00320312 203.69546875 -230.03515625 203.0234375 C-248.21057773 191.1143003 -260.48051016 178.10431036 -265.2734375 156.15234375 C-268.58886784 138.85321878 -264.44560003 121.64713923 -255 107 C-245.12692489 93.45924642 -230.90494506 84.23173453 -214.56640625 80.50390625 C-192.83600396 77.43356463 -176.61932776 83.26261834 -158 94 C-157.13761719 93.33355469 -156.27523437 92.66710937 -155.38671875 91.98046875 C-118.58514967 64 -118.58514967 64 -102 64 C-102.02094727 63.37134033 -102.04189453 62.74268066 -102.06347656 62.0949707 C-102.74562185 38.4940388 -102.74562185 38.4940388 -98 28 C-97.525625 26.92878906 -97.05125 25.85757813 -96.5625 24.75390625 C-88.53216014 8.3650636 -75.16958173 -2.82172733 -58 -9 C-38.17716973 -14.75437763 -17.04329508 -11.34845212 0 0 Z M-70.3125 25.3125 C-79.74469542 37.20294465 -80.32104623 49.27666262 -80.47851562 63.86132812 C-80.50494141 65.07369141 -80.53136719 66.28605469 -80.55859375 67.53515625 C-80.57204834 68.632229 -80.58550293 69.72930176 -80.59936523 70.85961914 C-81.06368987 74.49923391 -82.05729198 76.89580833 -84 80 C-86.73194477 81.38095015 -89.12499766 82.37022622 -92 83.3125 C-93.63230025 83.89915972 -95.26245226 84.49182428 -96.890625 85.08984375 C-97.73302734 85.39776855 -98.57542969 85.70569336 -99.44335938 86.02294922 C-115.95143428 92.33170741 -130.61347335 101.17241055 -144.29614258 112.28271484 C-145.84823649 113.54161754 -147.42348955 114.77181178 -149 116 C-149.77214844 116.62132813 -150.54429687 117.24265625 -151.33984375 117.8828125 C-155.44729131 119.60781985 -158.75631727 119.19899003 -163 118 C-166.54331358 116.3197813 -169.78289222 114.26791128 -173.0625 112.125 C-185.17399131 104.35814875 -196.53695584 99.55361862 -211.203125 102.68359375 C-222.73660818 106.24714432 -231.93575926 112.7499461 -238.31640625 123.14453125 C-239.31338333 125.06858664 -240.18585266 126.99263143 -241 129 C-241.391875 129.928125 -241.78375 130.85625 -242.1875 131.8125 C-245.12103888 143.32099869 -244.21005691 154.88508321 -238.3125 165.375 C-232.02839542 174.6803087 -224.20485933 180.04975817 -214.70239258 185.78857422 C-206.06249785 191.02566099 -206.06249785 191.02566099 -204 194 C-202.47428833 200.38462225 -203.42155056 205.61836386 -204.875 211.9375 C-210.29283103 236.35510398 -209.29102629 261.67493445 -203.36816406 285.91992188 C-202.71899159 289.58766023 -203.13752522 292.36528485 -204 296 C-208.01559067 301.09138552 -214.3428256 304.03807917 -219.82617188 307.31445312 C-230.1264054 313.63117092 -237.90622159 321.67555151 -241.4296875 333.4609375 C-244.07394157 345.2333015 -243.21460992 355.84799991 -237.125 366.375 C-236.10498706 367.93107813 -235.06532508 369.47458595 -234 371 C-233.278125 372.051875 -232.55625 373.10375 -231.8125 374.1875 C-222.94570276 383.05429724 -213.00606281 387.23821808 -200.625 387.4375 C-188.2438196 387.29345524 -179.73745402 382.62057607 -169.63110352 375.79760742 C-164.63578438 372.54292184 -160.09033085 370.37643873 -154 371 C-150.8046875 372.6484375 -150.8046875 372.6484375 -148 375 C-147.05382812 375.73476563 -146.10765625 376.46953125 -145.1328125 377.2265625 C-144.14023438 378.01804687 -143.14765625 378.80953125 -142.125 379.625 C-126.18096626 392.02309172 -108.2818281 401.79390393 -88.98632812 407.88574219 C-86.01639363 408.89078298 -84.25048123 409.67162053 -82.32788086 412.19213867 C-80.76643937 415.49387401 -80.63128048 417.76782496 -80.62890625 421.41015625 C-80.61150391 422.64830078 -80.59410156 423.88644531 -80.57617188 425.16210938 C-80.56715318 427.73501551 -80.56186295 430.30793777 -80.56054688 432.88085938 C-80.35370089 446.68247967 -76.85016253 457.57588691 -67.34375 467.77734375 C-58.20340833 476.24940572 -46.86111997 479.52911086 -34.62890625 479.30859375 C-23.25822123 478.34165713 -13.41571027 473.02531464 -5.6875 464.6875 C0.62683692 456.7275002 4.19948522 447.29624348 4.30859375 437.1484375 C4.33373047 435.88515625 4.35886719 434.621875 4.38476562 433.3203125 C4.42002562 430.68234222 4.45125216 428.04431505 4.47851562 425.40625 C4.50494141 424.14554687 4.53136719 422.88484375 4.55859375 421.5859375 C4.57204834 420.4417334 4.58550293 419.2975293 4.59936523 418.11865234 C5.0466341 414.6369872 5.86297394 412.76708402 8 410 C10.69614315 408.71105437 13.19047874 407.70229426 16 406.75 C17.63739375 406.14989851 19.27275751 405.54423469 20.90625 404.93359375 C21.74929688 404.61890137 22.59234375 404.30420898 23.4609375 403.97998047 C42.02288833 396.81578137 58.06460641 386.15718659 73.59375 373.86328125 C77.41097865 370.90740776 79.59624322 370.76979111 84.43701172 371.37597656 C89.1813675 372.53110834 93.01373921 375.22952049 97.0625 377.875 C108.99074556 385.5243395 119.94140937 390.25029461 134.359375 387.31640625 C145.66701519 384.11788361 154.12698097 378.6282162 161 369 C167.1635799 357.57520053 168.93834671 346.02040369 166.19921875 333.2734375 C161.41055176 319.48339303 150.62346262 311.15628804 138.48046875 303.8671875 C137.89104492 303.51285645 137.30162109 303.15852539 136.69433594 302.79345703 C135.02246898 301.80046657 133.33769472 300.8293035 131.65234375 299.859375 C128.90831531 297.9357262 127.90651358 297.17561279 127 294 C126.54041362 288.14939237 127.7001035 282.80246629 128.9375 277.125 C133.89421754 254.1104175 133.78164076 229.51889168 127.91796875 206.64453125 C126.72432015 201.90549235 126.02923734 197.98335525 128.22949219 193.48803711 C130.16315396 190.77072504 131.77925717 189.55572631 134.640625 187.87890625 C135.54683594 187.33556641 136.45304687 186.79222656 137.38671875 186.23242188 C138.33160156 185.68134766 139.27648437 185.13027344 140.25 184.5625 C152.74313452 177.20697212 163.35213501 169.31646041 167.5625 154.6328125 C169.59077695 142.42693155 168.54055231 129.99754386 161.1875 119.6875 C160.14660939 118.43998099 159.08413063 117.21013128 158 116 C157.49855469 115.39542969 156.99710937 114.79085937 156.48046875 114.16796875 C149.21040098 106.04884197 138.760112 101.74421524 128 101 C114.73294984 100.69413141 104.25038805 107.06317559 93.58178711 114.25341797 C88.60316917 117.48210088 84.05870495 119.61380205 78 119 C74.796875 117.34765625 74.796875 117.34765625 72 115 C71.07703125 114.27683594 70.1540625 113.55367188 69.203125 112.80859375 C68.22859375 112.02613281 67.2540625 111.24367188 66.25 110.4375 C52.19367363 99.46037475 36.30296714 90.35613308 19.484375 84.3515625 C18.38730225 83.95964722 18.38730225 83.95964722 17.26806641 83.55981445 C15.88089756 83.07609107 14.48745949 82.60984065 13.08740234 82.16479492 C10.09129269 81.14302488 8.2668208 80.34923334 6.32348633 77.80566406 C4.76687686 74.50580131 4.63127815 72.22860265 4.62890625 68.58984375 C4.61150391 67.35169922 4.59410156 66.11355469 4.57617188 64.83789062 C4.56715318 62.26498449 4.56186295 59.69206223 4.56054688 57.11914062 C4.35370089 43.31752033 0.85016253 32.42411309 -8.65625 22.22265625 C-17.79659167 13.75059428 -29.13888003 10.47088914 -41.37109375 10.69140625 C-52.74177877 11.65834287 -62.58428973 16.97468536 -70.3125 25.3125 Z " fill="#F0F6FC" transform="translate(294,11)"/>
<path d="M0 0 C0.82242188 0.72832031 1.64484375 1.45664063 2.4921875 2.20703125 C3.12898437 2.76003906 3.76578125 3.31304687 4.421875 3.8828125 C19.83642246 18.19632086 28.44494616 39.84699212 29.6953125 60.57421875 C30.01884957 84.7855758 22.66364485 105.94616436 6.4921875 124.20703125 C5.93917969 124.84382812 5.38617188 125.480625 4.81640625 126.13671875 C-9.69420587 141.7635318 -31.51152055 150.2672771 -52.5 151.36328125 C-76.37768722 152.01301424 -97.63090524 144.03846166 -115.5078125 128.20703125 C-116.14460938 127.65402344 -116.78140625 127.10101563 -117.4375 126.53125 C-132.91013485 112.16380335 -141.54356196 90.39665152 -142.7109375 69.5859375 C-143.00696702 45.48420108 -135.61308747 24.39316476 -119.5078125 6.20703125 C-118.95480469 5.57023437 -118.40179688 4.9334375 -117.83203125 4.27734375 C-87.2456807 -28.66180299 -33.09660866 -28.2680666 0 0 Z M-102.2578125 20.39453125 C-116.59944955 35.80910872 -120.38107981 53.10092281 -119.69140625 73.55664062 C-119.30378475 79.15241054 -117.73978995 84.06250618 -115.5078125 89.20703125 C-115.14558594 90.08230469 -114.78335938 90.95757812 -114.41015625 91.859375 C-107.37466658 107.33745228 -94.02623017 119.04551899 -78.4453125 125.45703125 C-61.42112984 131.17177804 -43.39397681 130.01202947 -27.26708984 122.14599609 C-11.74620413 113.86215951 -0.21335703 99.6268185 4.99853516 82.93505859 C9.32936056 66.88770469 7.45132163 49.84434778 -0.08203125 35.1328125 C-9.27608391 19.76652869 -23.04031077 7.87540588 -40.5078125 3.20703125 C-63.66597765 -1.75950097 -84.855988 4.55646517 -102.2578125 20.39453125 Z " fill="#F0F6FC" transform="translate(312.5078125,190.79296875)"/>
</svg>
