<?xml version="1.0" encoding="UTF-8"?>
<svg version="1.1" xmlns="http://www.w3.org/2000/svg" width="512" height="512">
<path d="M0 0 C0.65631912 -0.0065712 1.31263824 -0.0131424 1.98884583 -0.01991272 C4.14710647 -0.0395115 6.30529757 -0.05128536 8.46362305 -0.0612793 C9.58196061 -0.06739259 9.58196061 -0.06739259 10.72289085 -0.07362938 C14.6782134 -0.09444481 18.63350185 -0.10875948 22.58886719 -0.11816406 C26.62512537 -0.12914941 30.66082019 -0.16346944 34.69688129 -0.20333576 C37.84153586 -0.22980936 40.98606319 -0.23788324 44.13081932 -0.24144554 C45.61562034 -0.24624189 47.10041849 -0.25764999 48.5851078 -0.27648354 C75.84088437 -0.60041884 99.61701637 9.8493473 119.1628418 28.73950195 C132.68939202 42.31144329 144.99962719 63.17159462 145.18847656 82.84790039 C145.18001709 83.61650391 145.17155762 84.38510742 145.1628418 85.17700195 C145.72937532 85.17239299 146.29590885 85.16778402 146.87961006 85.16303539 C160.67624237 85.05252588 174.47279696 84.97015028 188.2697773 84.91794109 C194.94200288 84.89184419 201.61384702 84.85644341 208.28588867 84.79980469 C214.72441625 84.74549011 221.16263658 84.71558206 227.60137558 84.70261574 C230.05820427 84.69337504 232.51501608 84.67533015 234.97171402 84.64835167 C238.41225819 84.61207059 241.85153173 84.60705648 245.29223633 84.609375 C246.30859665 84.59139862 247.32495697 84.57342224 248.37211609 84.55490112 C252.92655253 84.58812493 256.14698188 84.65843547 259.77975464 87.58747864 C263.03149523 91.12090294 263.55749859 93.22910712 263.5222168 98.0715332 C262.88702366 101.79293648 260.82305163 103.58013044 258.1628418 106.17700195 C254.98993467 107.76345552 251.57458796 107.29778409 248.0925293 107.2746582 C247.29630157 107.27324326 246.50007385 107.27182831 245.67971802 107.27037048 C243.132388 107.2647654 240.58514533 107.25221209 238.0378418 107.23950195 C236.31258265 107.23448761 234.58732212 107.22992459 232.86206055 107.22583008 C228.62895389 107.21479433 224.39591266 107.19752632 220.1628418 107.17700195 C220.17493992 107.82330739 220.18703804 108.46961284 220.19950277 109.13550329 C220.27551254 116.45416341 219.80429205 123.62978749 219.12004089 130.91296387 C218.95170674 132.76905313 218.95170674 132.76905313 218.7799719 134.66263914 C218.47014111 138.06753619 218.15586546 141.47196767 217.83961523 144.87627077 C217.49852357 148.55985359 217.16323274 152.24396522 216.8271637 155.92800903 C216.16871107 163.13560569 215.50482334 170.34269164 214.83890744 177.54960221 C214.29709355 183.41429594 213.7571654 189.27916043 213.21856117 195.14414978 C213.14171723 195.98088347 213.06487328 196.81761717 212.98570073 197.67970642 C212.82955901 199.37994839 212.67342022 201.08019062 212.51728431 202.78043312 C211.05422166 218.70973755 209.5848302 234.63845341 208.1133816 250.56698507 C206.770788 265.1025822 205.43548523 279.63883792 204.10374876 294.17543346 C202.73327271 309.13428776 201.35818235 324.09271112 199.97803003 339.05067587 C199.82153642 340.74689262 199.66504963 342.44310999 199.50856972 344.139328 C199.43159677 344.97369913 199.35462382 345.80807025 199.27531835 346.66772535 C198.73635301 352.51319741 198.20033125 358.35893497 197.66551781 364.20478821 C197.01202263 371.34722032 196.35406597 378.48922517 195.69059177 385.63073748 C195.35295556 389.26622098 195.01720383 392.90184945 194.68696976 396.53801346 C192.41223021 421.55622256 192.41223021 421.55622256 190.64497375 432.99816895 C190.48016094 434.07644038 190.48016094 434.07644038 190.31201857 435.17649508 C187.23385047 453.70951667 178.32870825 469.90767093 165.1628418 483.17700195 C163.8944043 484.50731445 163.8944043 484.50731445 162.6003418 485.86450195 C161.7959668 486.62762695 160.9915918 487.39075195 160.1628418 488.17700195 C159.62788086 488.69520508 159.09291992 489.2134082 158.54174805 489.74731445 C140.66820577 506.32028712 118.13867735 512.48566699 94.33447266 512.4675293 C92.75468634 512.47352433 91.17490293 512.4803321 89.59512329 512.48788452 C85.3281653 512.505457 81.06128767 512.51023631 76.79429698 512.51151609 C74.11964202 512.51294375 71.44500709 512.51722501 68.77035713 512.52251053 C59.41394901 512.54098507 50.05759764 512.54918477 40.70117188 512.54760742 C32.02158838 512.54640819 23.34225441 512.56747419 14.66273397 512.59909475 C7.17781578 512.62537755 -0.30702155 512.63596965 -7.79198545 512.6346966 C-12.24756789 512.63419029 -16.70292854 512.63968774 -21.15846443 512.6610527 C-25.35705573 512.68063761 -29.55521835 512.68042375 -33.75382614 512.66601944 C-35.28024242 512.66395474 -36.80668699 512.66848948 -38.3330555 512.68074036 C-64.61872622 512.87776306 -88.06962582 503.29996316 -107.02075195 485.02075195 C-122.49696302 469.62320682 -131.56896036 450.99918832 -134.32319641 429.44389343 C-134.44702015 428.50304451 -134.57084389 427.56219558 -134.69841987 426.59283608 C-136.27282756 414.26158198 -137.40383581 401.88308976 -138.55255878 389.50645387 C-138.89064961 385.8750584 -139.23418134 382.24417657 -139.57695007 378.61322021 C-140.24422538 371.53557694 -140.90654656 364.4574789 -141.5669684 357.37919316 C-142.10398116 351.62451109 -142.64280879 345.87000156 -143.18288612 340.11560631 C-143.26018977 339.29193003 -143.33749341 338.46825375 -143.41713959 337.61961758 C-143.57424746 335.94569104 -143.73135887 334.27176484 -143.88847379 332.59783896 C-145.35512433 316.96956576 -146.81603648 301.34076027 -148.2749754 285.71176555 C-149.52499437 272.32237668 -150.78018512 258.93348067 -152.0390625 245.54492188 C-153.50542505 229.94967865 -154.9684365 214.35412681 -156.42624646 198.75808161 C-156.58178528 197.09419535 -156.73732897 195.43030953 -156.89287758 193.76642418 C-157.00764277 192.53877707 -157.00764277 192.53877707 -157.12472644 191.286329 C-157.66236044 185.53776465 -158.20238697 179.78942798 -158.74336815 174.04117775 C-159.40236623 167.03830585 -160.05771832 160.03510408 -160.70845195 153.03145919 C-161.04008442 149.46320284 -161.37331533 145.89511592 -161.71102142 142.32742882 C-162.07769668 138.45311523 -162.43639158 134.57808567 -162.7943573 130.70295715 C-162.90125749 129.5866115 -163.00815769 128.47026585 -163.11829728 127.32009155 C-163.73213687 120.58495479 -163.96326406 113.93922187 -163.8371582 107.17700195 C-164.89628418 107.20318604 -165.95541016 107.22937012 -167.04663086 107.25634766 C-170.99367976 107.34716747 -174.9406372 107.40436537 -178.88842773 107.45166016 C-180.5936641 107.4767324 -182.29879375 107.51079959 -184.00366211 107.55419922 C-186.46144994 107.61517761 -188.91781181 107.64328307 -191.3762207 107.6652832 C-192.51095322 107.70399284 -192.51095322 107.70399284 -193.66860962 107.7434845 C-197.70070642 107.74559855 -200.11862508 107.34945568 -203.3034668 104.77148438 C-206.73098152 101.26173308 -207.2325165 99.2211776 -207.1965332 94.2824707 C-206.56134006 90.56106742 -204.49736804 88.77387346 -201.8371582 86.17700195 C-199.46159526 84.98922048 -198.03291661 85.05375618 -195.38265991 85.05674744 C-194.44593948 85.05537277 -193.50921906 85.05399811 -192.54411316 85.05258179 C-191.51337173 85.05617706 -190.48263031 85.05977234 -189.4206543 85.06347656 C-188.33771591 85.06333054 -187.25477753 85.06318451 -186.13902283 85.06303406 C-182.54619367 85.0637328 -178.95341584 85.07152344 -175.3605957 85.0793457 C-172.87480701 85.08121002 -170.38901795 85.08263386 -167.90322876 85.08363342 C-162.02069423 85.08706631 -156.13817877 85.09495422 -150.25565207 85.10498291 C-142.90261574 85.11724704 -135.54957714 85.12262569 -128.1965332 85.12817383 C-115.07673211 85.13890928 -101.95694633 85.1557931 -88.8371582 85.17700195 C-88.77593781 84.50135193 -88.71471741 83.8257019 -88.65164185 83.12957764 C-88.56735931 82.2374054 -88.48307678 81.34523315 -88.39624023 80.42602539 C-88.31439484 79.54412537 -88.23254944 78.66222534 -88.14822388 77.75360107 C-85.41966837 55.15260611 -70.74425098 34.60768334 -53.8371582 20.17700195 C-38.62306262 8.38127679 -19.38486648 0.16186414 0 0 Z M-41.8371582 40.17700195 C-43.06885742 41.26948242 -43.06885742 41.26948242 -44.32543945 42.3840332 C-56.88096032 54.17745872 -63.5011124 68.49677295 -66.8371582 85.17700195 C-4.1371582 85.17700195 58.5628418 85.17700195 123.1628418 85.17700195 C120.71715805 74.01161118 120.71715805 74.01161118 116.4128418 63.92700195 C116.06141113 63.25008301 115.70998047 62.57316406 115.34790039 61.87573242 C112.48046383 56.49105097 109.27628441 51.700082 105.1628418 47.17700195 C104.45901367 46.37004883 103.75518555 45.5630957 103.0300293 44.73168945 C91.13339386 31.89274626 73.86104722 22.90591916 56.19522095 22.02983093 C55.15538055 22.01998672 54.11554016 22.01014252 53.04418945 22 C51.85499908 21.98716476 50.66580872 21.97432953 49.44058228 21.96110535 C48.16556854 21.95371841 46.89055481 21.94633148 45.5769043 21.9387207 C44.91835827 21.93464518 44.25981224 21.93056965 43.58131027 21.92637062 C40.08749465 21.90556813 36.59371749 21.891248 33.09985352 21.88183594 C30.24286246 21.87302505 27.38636557 21.85226123 24.52954102 21.8203125 C-0.2042639 21.54983347 -22.41477059 22.73576863 -41.8371582 40.17700195 Z M-141.8371582 107.17700195 C-141.24102188 117.31131936 -140.62533301 127.37594683 -139.67410278 137.47158813 C-139.56102559 138.69651203 -139.4479484 139.92143592 -139.33144462 141.18347871 C-139.02233717 144.52538212 -138.71069577 147.86703002 -138.39786601 151.20858574 C-138.0590156 154.83486461 -137.72351278 158.46145361 -137.38751221 162.08799744 C-136.65503086 169.98680337 -135.91824942 177.88520449 -135.18054438 185.78352404 C-134.71902598 190.72503937 -134.25842548 195.66663999 -133.79800034 200.60825729 C-132.52006378 214.32246749 -131.24114345 228.03658497 -129.95822334 241.75032997 C-129.87642004 242.62477525 -129.79461673 243.49922053 -129.71033453 244.40016415 C-129.54454445 246.17235942 -129.37875406 247.94455465 -129.21296336 249.71674986 C-129.13068106 250.59630883 -129.04839875 251.4758678 -128.96362305 252.38208008 C-128.88123827 253.26272571 -128.79885349 254.14337135 -128.7139722 255.05070321 C-127.37803321 269.33319758 -126.04939819 283.61636115 -124.72392966 297.89983065 C-123.35914823 312.60585239 -121.98840122 327.31130811 -120.6116761 342.01621664 C-119.8403595 350.25615176 -119.07153021 358.49630141 -118.30926895 366.73707962 C-117.66064827 373.74894679 -117.00652063 380.7602736 -116.34539498 387.77097322 C-116.00888269 391.34111411 -115.6748432 394.91143753 -115.34782791 398.48246193 C-112.56159577 428.8659511 -108.61061058 454.16060795 -84.3371582 475.30200195 C-80.00067728 478.62686213 -75.42493497 481.11716313 -70.5246582 483.48950195 C-69.86208008 483.81515137 -69.19950195 484.14080078 -68.5168457 484.47631836 C-57.24773183 489.65569359 -45.73033925 490.62403475 -33.47851562 490.58105469 C-31.98533116 490.58677299 -30.49215105 490.59374282 -28.99897766 490.60185242 C-24.98220813 490.61964023 -20.96565876 490.61864258 -16.94886184 490.61291003 C-13.57711162 490.60979646 -10.20540238 490.61593468 -6.83365804 490.62194878 C1.13111234 490.6359459 9.09577535 490.63447368 17.06054688 490.62304688 C25.23524751 490.61157692 33.40961962 490.6256334 41.58427697 490.65244335 C48.64122961 490.67470791 55.69807994 490.68121348 62.75506514 490.67536694 C66.95290261 490.67202094 71.15052976 490.67425304 75.34833717 490.69161797 C79.30076113 490.7072574 83.25270442 490.70294683 87.20511055 490.68431282 C88.64163888 490.68067302 90.0782042 490.6835977 91.51469803 490.69419861 C111.05231858 490.82718381 129.39845987 485.43536314 144.1628418 472.17700195 C144.98397461 471.44868164 145.80510742 470.72036133 146.65112305 469.9699707 C164.13302076 453.54918969 168.69270404 433.20049792 170.76000977 410.3059082 C170.90809081 408.7099164 171.05664115 407.11396808 171.20561886 405.51805973 C171.60992666 401.17254905 172.00765293 396.82645807 172.40424371 392.48023725 C172.82988044 387.82862387 173.26170326 383.17758444 173.6927948 378.526474 C174.5262251 369.52419048 175.35412499 360.52140691 176.18009073 351.51843578 C177.13214191 341.1435497 178.08972968 330.76917708 179.0477792 320.39484346 C180.30434397 306.78730029 181.55971449 293.17964787 182.81156921 279.57167053 C182.90673122 278.53724672 183.00189323 277.5028229 183.09993893 276.43705291 C183.19474968 275.4064329 183.28956042 274.3758129 183.38724422 273.31396198 C185.41842762 251.23454645 187.46082277 229.15620201 189.51418304 207.07883835 C189.94846414 202.40909502 190.38219873 197.73930107 190.81573486 193.06948853 C190.88513983 192.3219032 190.9545448 191.57431788 191.02605295 190.80407846 C191.36698596 187.13155379 191.70785641 183.45902331 192.0486908 179.78648949 C192.6995279 172.77422878 193.35109468 165.76203741 194.0043335 158.75 C194.60764988 152.27343188 195.2080908 145.79660165 195.80654335 139.31958199 C196.02269531 136.98512398 196.23979767 134.65075375 196.45793724 132.31648064 C196.75150968 129.17378057 197.0417207 126.03078799 197.33105469 122.88769531 C197.41659544 121.98074921 197.50213619 121.0738031 197.59026909 120.13937378 C197.7048128 118.88357262 197.7048128 118.88357262 197.82167053 117.60240173 C197.92128885 116.52922652 197.92128885 116.52922652 198.02291965 115.43437099 C198.19322723 112.68679267 198.1628418 109.92985344 198.1628418 107.17700195 C85.9628418 107.17700195 -26.2371582 107.17700195 -141.8371582 107.17700195 Z " fill="#F85048" transform="translate(227.837158203125,-0.177001953125)"/>
<path d="M0 0 C4.87835287 2.80472216 8.63779089 6.36189911 12.55615234 10.32910156 C13.18125702 10.95391418 13.80636169 11.57872681 14.45040894 12.22247314 C16.50036595 14.27381535 18.54316137 16.33213392 20.5859375 18.390625 C22.01182013 19.82024063 23.43814709 21.24941321 24.86489868 22.67816162 C28.60769709 26.4285738 32.34444867 30.18495454 36.07995605 33.94262695 C39.89731352 37.78049147 43.72038232 41.61265736 47.54296875 45.4453125 C55.03423396 52.95798781 62.51912091 60.47698345 70 68 C74.2783674 66.34917882 77.11936621 63.13221174 80.265625 59.9296875 C80.88401245 59.30837952 81.5023999 58.68707153 82.13952637 58.04693604 C83.47964599 56.6992139 84.81745028 55.34918642 86.15319824 53.99713135 C88.26701759 51.85777684 90.38702952 49.7247397 92.50878906 47.59326172 C97.01146817 43.06772733 101.50628215 38.53443049 106 34 C111.20725285 28.74556995 116.41766689 23.4943603 121.63659668 18.25152588 C123.72572172 16.14942903 125.80873453 14.04140061 127.89160156 11.93310547 C129.17222932 10.6452127 130.45313869 9.35759986 131.734375 8.0703125 C132.31215698 7.48219788 132.88993896 6.89408325 133.48522949 6.28814697 C137.3893637 2.38299005 139.88059443 0.23548951 145.375 -0.375 C149.7179218 0.07426777 151.70673134 1.1662572 155 4 C156.84139786 6.96224873 156.99660254 8.81993459 157.0625 12.3125 C154.1655038 22.36678095 142.26313082 30.86410007 134.97265625 38.125 C133.61480652 39.48098158 132.25717967 40.8371864 130.89976501 42.19360352 C127.34941401 45.7401606 123.79606883 49.28370261 120.24206543 52.82659912 C116.60680922 56.4515736 112.97442901 60.07942749 109.34179688 63.70703125 C102.23065698 70.80748901 95.1163467 77.90476097 88 85 C91.89009635 89.65855105 95.93185437 94.06694429 100.24902344 98.33081055 C100.84165482 98.92037537 101.43428619 99.50994019 102.0448761 100.11737061 C103.31888832 101.38428383 104.59402812 102.65006401 105.87020111 103.91480064 C107.89030516 105.9173806 109.90673007 107.9235993 111.92218018 109.93086243 C117.64844117 115.63277635 123.38041483 121.32892244 129.11669922 127.02075195 C132.63562743 130.51291391 136.14968212 134.0099187 139.66077423 137.50995827 C140.99693836 138.83991676 142.33499671 140.16797501 143.67498016 141.49408531 C145.54407598 143.34398359 147.40694733 145.19994347 149.26855469 147.05737305 C149.82233292 147.60238968 150.37611115 148.14740631 150.94667053 148.7089386 C156.79121334 154.56850534 156.79121334 154.56850534 157.1875 159.18359375 C156.8241683 163.55114354 156.3480373 165.5736543 153.5 169.0625 C150.27205927 171.26336868 147.26280876 171.89265916 143.38427734 171.55482483 C134.40391903 169.4650823 125.27438813 156.39810997 118.875 149.97265625 C117.51901842 148.61480652 116.1628136 147.25717967 114.80639648 145.89976501 C111.2598394 142.34941401 107.71629739 138.79606883 104.17340088 135.24206543 C100.5484264 131.60680922 96.92057251 127.97442901 93.29296875 124.34179688 C86.19251099 117.23065698 79.09523903 110.1163467 72 103 C67.67394733 104.65908586 64.79369996 107.94787441 61.61083984 111.17797852 C60.66380943 112.12698029 60.66380943 112.12698029 59.69764709 113.09515381 C57.614108 115.1851785 55.53763193 117.28208237 53.4609375 119.37890625 C52.01463877 120.83147533 50.56782372 122.28353049 49.12051392 123.73509216 C45.31287734 127.55603051 41.51084802 131.38249604 37.71038818 135.21057129 C31.62110522 141.34298196 25.52507966 147.46867221 19.42583084 153.59116936 C17.29292165 155.73432846 15.16344259 157.88085344 13.03427124 160.02772522 C11.73308576 161.33573613 10.43179166 162.64363901 9.13037109 163.95141602 C8.53604782 164.55247665 7.94172455 165.15353729 7.32939148 165.77281189 C3.48155495 169.6313712 1.61151752 171.16356903 -3.8125 171.375 C-7.55159373 171.31556354 -8.80652235 171.12240423 -12.0625 169.0625 C-14.52158725 165.17555564 -15.67370857 161.60998336 -15 157 C-12.1093934 152.124381 -8.59701852 148.32128183 -4.57910156 144.35205078 C-3.62725227 143.39976341 -3.62725227 143.39976341 -2.65617371 142.42823792 C-0.57236634 140.34581599 1.51841935 138.27055463 3.609375 136.1953125 C5.06141084 134.74700957 6.51300369 133.29826238 7.96417236 131.84909058 C11.77376836 128.04710904 15.58933349 124.25117367 19.40618896 120.45648193 C23.30437589 116.57880056 27.19686544 112.69540928 31.08984375 108.8125 C38.72100899 101.20274608 46.35849482 93.59936979 54 86 C50.10990365 81.34144895 46.06814563 76.93305571 41.75097656 72.66918945 C41.15834518 72.07962463 40.56571381 71.49005981 39.9551239 70.88262939 C38.68111168 69.61571617 37.40597188 68.34993599 36.12979889 67.08519936 C34.10969484 65.0826194 32.09326993 63.0764007 30.07781982 61.06913757 C24.35155883 55.36722365 18.61958517 49.67107756 12.88330078 43.97924805 C9.36437257 40.48708609 5.85031788 36.9900813 2.33922577 33.49004173 C1.00306164 32.16008324 -0.33499671 30.83202499 -1.67498016 29.50591469 C-3.54407598 27.65601641 -5.40694733 25.80005653 -7.26855469 23.94262695 C-7.82233292 23.39761032 -8.37611115 22.85259369 -8.94667053 22.2910614 C-13.85239687 17.37272444 -13.85239687 17.37272444 -15 14 C-14.92002707 8.96170538 -14.80642825 6.97184942 -11.5625 3.0625 C-7.52765524 -0.18505797 -5.19853094 -0.43321091 0 0 Z " fill="#F75049" transform="translate(185,213)"/>
</svg>
