<?xml version="1.0" encoding="UTF-8"?>
<svg version="1.1" xmlns="http://www.w3.org/2000/svg" width="512" height="512">
<path d="M0 0 C1.51427582 0.00081573 1.51427582 0.00081573 3.05914307 0.00164795 C19.57458953 0.04242844 35.47683935 0.97005679 51.6875 4.375 C52.70279785 4.58398926 53.7180957 4.79297852 54.76416016 5.00830078 C111.94251329 17.1574495 165.79717798 49.95237787 201.6875 96.375 C202.44933594 97.30828125 203.21117187 98.2415625 203.99609375 99.203125 C227.99371844 129.15216061 243.96712704 165.45799171 252.0625 202.8125 C252.42045654 204.46173462 252.42045654 204.46173462 252.78564453 206.14428711 C256.00385785 221.81998777 257.03878905 237.13216384 257.00317383 253.10229492 C257.0000221 256.04188487 257.02354926 258.9804558 257.04882812 261.91992188 C257.09348737 275.29306192 255.88801542 288.18916711 253.6875 301.375 C253.40531616 303.08055054 253.40531616 303.08055054 253.11743164 304.82055664 C242.53532755 363.73225083 208.3326 420.82823932 160.6875 457.375 C159.75679688 458.13425781 158.82609375 458.89351563 157.8671875 459.67578125 C128.83991679 482.9495648 93.30083067 499.16687465 57.0625 507.1875 C56.24297852 507.37014404 55.42345703 507.55278809 54.57910156 507.7409668 C36.86587679 511.40442989 19.3114787 512.90376719 1.25 512.75 C-0.22311142 512.74302094 -0.22311142 512.74302094 -1.72598267 512.73590088 C-16.10088539 512.6562114 -30.1878237 512.27170751 -44.3125 509.375 C-45.33714355 509.17100586 -46.36178711 508.96701172 -47.41748047 508.75683594 C-68.96682886 504.37229504 -89.52439691 497.9971388 -109.3125 488.375 C-110.20727051 487.94058594 -111.10204102 487.50617188 -112.02392578 487.05859375 C-125.92090726 480.23250673 -138.85662298 472.57282967 -151.3125 463.375 C-151.96041504 462.89675781 -152.60833008 462.41851562 -153.27587891 461.92578125 C-162.14468356 455.30720114 -170.34971219 448.05092665 -178.3125 440.375 C-178.86856934 439.84084473 -179.42463867 439.30668945 -179.99755859 438.75634766 C-217.09661897 402.93472982 -241.63397231 354.63388413 -252.3125 304.375 C-252.3125 303.385 -252.3125 302.395 -252.3125 301.375 C-245.4918924 302.76869895 -239.00274711 304.6719816 -232.40844727 306.89086914 C-231.35695999 307.24068344 -230.30547272 307.59049774 -229.22212219 307.95091248 C-225.77291771 309.0996506 -222.32589616 310.25479165 -218.87890625 311.41015625 C-216.47529082 312.21238129 -214.07155671 313.01425084 -211.66770935 313.81578064 C-206.6444954 315.49171574 -201.62223628 317.17046602 -196.60083008 318.85180664 C-190.15359605 321.010544 -183.70449986 323.16366184 -177.25480747 325.31504154 C-172.29851787 326.96832103 -167.34291609 328.62365802 -162.38746452 330.27944756 C-160.0084159 331.07436639 -157.62927197 331.86900003 -155.25003242 332.66334724 C-151.93642266 333.77016546 -148.62349971 334.87901364 -145.31079102 335.98852539 C-144.32224121 336.31841461 -143.33369141 336.64830383 -142.31518555 336.9881897 C-141.41671402 337.28958359 -140.51824249 337.59097748 -139.59254456 337.90150452 C-138.80964837 338.16346147 -138.02675219 338.42541842 -137.22013187 338.69531345 C-135.3125 339.375 -135.3125 339.375 -133.3125 340.375 C-132.96533203 342.11816406 -132.96533203 342.11816406 -132.8203125 344.390625 C-132.75755127 345.22327881 -132.69479004 346.05593262 -132.63012695 346.91381836 C-132.56656006 347.8085083 -132.50299316 348.70319824 -132.4375 349.625 C-130.76841479 368.70387588 -123.94121309 385.53662582 -109.3125 398.375 C-94.65652559 410.24356068 -76.97797316 414.80069648 -58.3125 413.375 C-42.03127504 411.21702393 -26.75297929 403.22943992 -16.02734375 390.70703125 C-6.31801844 377.83990668 -1.11208603 364.42429543 -1.125 348.3125 C-1.1240332 347.06472778 -1.1240332 347.06472778 -1.12304688 345.79174805 C-1.18205949 338.83161219 -1.93852157 332.20808916 -3.3125 325.375 C-2.45269531 324.70855469 -1.59289062 324.04210937 -0.70703125 323.35546875 C6.00145985 318.13275727 12.6016282 312.81752149 19.06665039 307.29614258 C23.05826457 303.89140488 27.12048885 300.59212839 31.23046875 297.33203125 C35.75534881 293.72795349 40.21543103 290.0442291 44.6875 286.375 C46.52060162 284.87471683 48.35393427 283.37471592 50.1875 281.875 C51.08210938 281.1428125 51.97671875 280.410625 52.8984375 279.65625 C54.86107233 278.05095764 56.82454666 276.4467361 58.7890625 274.84375 C60.28566406 273.62171875 60.28566406 273.62171875 61.8125 272.375 C62.72257812 271.6325 63.63265625 270.89 64.5703125 270.125 C65.63831615 269.24222208 66.70772231 268.35477769 67.6875 267.375 C69.68749464 267.35365859 71.68807429 267.38524228 73.6875 267.4375 C97.65203313 267.51034053 118.81555852 261.3157687 136.60546875 244.58203125 C151.69124352 228.59054392 159.90814982 208.34191539 159.6875 186.375 C158.17320053 164.00996174 149.51915524 144.6506088 133.35546875 129.13671875 C114.70612268 113.20900196 92.59494445 108.97739563 68.6875 110.375 C49.77915382 112.55124362 30.64061348 124.3844599 18.8125 139.0625 C13.52137172 145.98174036 9.8162318 153.27260488 6.6875 161.375 C6.254375 162.42816406 5.82125 163.48132813 5.375 164.56640625 C2.67655427 172.5024602 2.71049017 179.21086126 3.08569336 187.52148438 C3.73368849 202.83531911 1.93593418 212.17128902 -8.32714844 223.99072266 C-12.0305007 228.43820644 -15.18276899 233.28293917 -18.4375 238.0625 C-19.79729219 240.0184493 -21.15922579 241.97291185 -22.5234375 243.92578125 C-25.27501708 247.87766373 -28.01623616 251.83608205 -30.73046875 255.8137207 C-31.60993572 257.09213943 -32.50041271 258.36306184 -33.40234375 259.62573242 C-35.81509701 263.02645121 -37.8840206 266.41222949 -39.7734375 270.1328125 C-44.78334158 279.39077622 -44.78334158 279.39077622 -49.3125 282.375 C-56.51192706 284.15220485 -64.04247665 283.04869142 -71.3515625 282.49023438 C-86.03536251 281.91876722 -100.09200856 290.12753578 -111.01171875 299.2421875 C-114.74445506 302.70241505 -118.04422301 306.48151879 -121.3125 310.375 C-129.26694368 308.30297308 -137.0607065 305.88476368 -144.85229492 303.27075195 C-146.05359039 302.87041748 -147.25488586 302.47008301 -148.49258423 302.05761719 C-151.75099402 300.97166999 -155.00816672 299.88205668 -158.26511168 298.7917254 C-161.68230744 297.64846116 -165.1006545 296.5086495 -168.51887512 295.36845398 C-174.97564702 293.2141338 -181.43139411 291.05675976 -187.88676864 288.89825648 C-195.2427962 286.43876698 -202.59997496 283.98273006 -209.95724714 281.52696669 C-225.07693896 276.48012187 -240.19519646 271.42899453 -255.3125 266.375 C-255.34067322 261.89502404 -255.36089658 257.41509739 -255.3742981 252.93505859 C-255.37989521 251.41649475 -255.38752561 249.89793679 -255.39736938 248.37939453 C-255.73189853 195.37948226 -236.00461944 141.91803754 -203.3125 100.375 C-202.55453125 99.405625 -201.7965625 98.43625 -201.015625 97.4375 C-188.68914204 82.05125177 -174.87609226 67.49706552 -159.3125 55.375 C-158.37664062 54.61058594 -157.44078125 53.84617188 -156.4765625 53.05859375 C-126.51981568 29.0700934 -90.23166927 13.09584129 -52.875 5 C-51.22576538 4.64204346 -51.22576538 4.64204346 -49.54321289 4.27685547 C-33.01740717 0.88411602 -16.83016261 -0.03423787 0 0 Z M-135.3125 69.375 C-135.97233887 69.85533691 -136.63217773 70.33567383 -137.31201172 70.83056641 C-157.43785753 85.63222551 -175.05869004 103.89279255 -189.3125 124.375 C-189.80073242 125.07657227 -190.28896484 125.77814453 -190.79199219 126.50097656 C-214.46338133 161.06401345 -230.7125135 205.04836808 -230.3125 247.375 C-217.79840966 251.68029161 -205.27268753 255.95091854 -192.74224854 260.20837402 C-189.75015865 261.22613079 -186.75880096 262.2460074 -183.76775837 263.26683712 C-177.2981869 265.47471123 -170.82554994 267.67322008 -164.34804249 269.85771084 C-161.13526665 270.94146109 -157.92403826 272.0293689 -154.71609497 273.12734985 C-151.09049377 274.36577585 -147.46006301 275.58889846 -143.828125 276.80859375 C-142.19160225 277.37315781 -142.19160225 277.37315781 -140.52201843 277.9491272 C-139.00726677 278.45275284 -139.00726677 278.45275284 -137.46191406 278.96655273 C-136.58408264 279.26407944 -135.70625122 279.56160614 -134.80181885 279.8681488 C-131.93328242 280.45221264 -130.10437162 280.21056047 -127.3125 279.375 C-124.6732749 277.57789496 -124.6732749 277.57789496 -122 275.3125 C-109.53825876 265.5261942 -91.60702577 256.48445085 -75.4296875 257.65625 C-67.49608491 258.21404199 -67.49608491 258.21404199 -60.53320312 254.92138672 C-56.99484046 250.89944782 -54.32908958 246.31418316 -51.66699219 241.68408203 C-50.03351691 238.89940122 -48.23755653 236.2672875 -46.3815918 233.62768555 C-45.49520708 232.36594488 -44.62178644 231.0950059 -43.76098633 229.81567383 C-41.00381134 225.71880411 -38.10144129 221.78696284 -35.06640625 217.890625 C-26.28149558 206.38480954 -21.54083981 199.08607556 -23.17480469 184.60498047 C-24.47479984 163.55151288 -13.67617155 139.14475485 -0.19140625 123.49609375 C0.42863281 122.79613281 1.04867187 122.09617187 1.6875 121.375 C2.47833984 120.37146484 2.47833984 120.37146484 3.28515625 119.34765625 C18.21161991 100.82710552 43.24007801 89.57208825 66.35742188 86.60644531 C94.23235464 83.83764436 122.26397594 89.82087251 144.30859375 107.68896484 C147.93218126 110.75993311 151.32711033 114.01939721 154.6875 117.375 C155.48929687 118.16519531 156.29109375 118.95539063 157.1171875 119.76953125 C167.30586729 130.39889788 174.06850226 143.48951644 178.6875 157.375 C179.10128906 158.58542969 179.51507813 159.79585937 179.94140625 161.04296875 C185.65200197 179.82864428 185.02570805 202.83426057 178.6875 221.375 C178.47851074 222.00325684 178.26952148 222.63151367 178.05419922 223.27880859 C172.58581309 239.38904278 163.76967521 252.49903398 151.6875 264.375 C150.92566406 265.13554687 150.16382813 265.89609375 149.37890625 266.6796875 C133.69055342 281.47567531 109.30183081 292.64641187 87.47265625 292.328125 C77.54070878 292.2799701 72.55322164 296.43404233 65.47119141 302.77832031 C63.68432237 304.37784447 61.87025001 305.93907174 60.04296875 307.4921875 C57.65891716 309.51972436 55.28443454 311.55743768 52.91796875 313.60546875 C50.23682509 315.91599063 47.51631255 318.16652238 44.75 320.375 C43.98042969 321.01050781 43.21085937 321.64601563 42.41796875 322.30078125 C40.22529273 323.96646217 38.08371479 325.37040147 35.73828125 326.79296875 C28.26582792 331.38975143 28.26582792 331.38975143 24.06933594 338.72753906 C23.5769415 344.13151646 24.10762929 349.47547526 24.56152344 354.8671875 C25.57264868 374.99563427 12.77618081 396.14661553 0.24609375 410.66015625 C-16.20067676 428.11130969 -39.31893409 437.41254426 -63.0390625 438.5 C-86.70031611 438.99944599 -109.68509194 431.34614153 -127.3125 415.375 C-128.14265625 414.63765625 -128.9728125 413.9003125 -129.828125 413.140625 C-140.43767359 403.18196897 -150.96737466 388.20241136 -153.0859375 373.58203125 C-154.1936959 364.95444012 -154.1936959 364.95444012 -158.921875 358.03857422 C-163.57358395 355.59099057 -168.70306006 354.55201013 -173.78125 353.32861328 C-178.04771937 352.17645417 -182.18013727 350.7531144 -186.34375 349.27734375 C-187.52467728 348.8598159 -187.52467728 348.8598159 -188.72946167 348.43385315 C-190.33130303 347.86621212 -191.93285486 347.29775338 -193.53411865 346.72848511 C-197.40497403 345.35387287 -201.28042197 343.9943108 -205.1640625 342.65625 C-206.20185852 342.28819496 -206.20185852 342.28819496 -207.26062012 341.91270447 C-208.92590593 341.34237964 -210.61782363 340.85094039 -212.3125 340.375 C-212.9725 340.705 -213.6325 341.035 -214.3125 341.375 C-203.09940796 367.73709266 -189.09356181 391.51300585 -169.3125 412.375 C-168.2235529 413.66193749 -167.13989855 414.95337891 -166.0625 416.25 C-151.36682481 432.98202741 -132.74081431 446.6552616 -113.3125 457.375 C-112.24878174 457.97538086 -112.24878174 457.97538086 -111.16357422 458.58789062 C-98.97049953 465.44402677 -86.51353135 470.77472173 -73.3125 475.375 C-72.62124023 475.62088867 -71.92998047 475.86677734 -71.21777344 476.12011719 C-15.96354885 495.57426658 46.97159248 490.48597863 99.5 465.5 C124.02236545 453.56240451 144.8973368 438.10199783 164.6875 419.375 C165.368125 418.73691406 166.04875 418.09882813 166.75 417.44140625 C171.87630456 412.49309837 176.26555879 406.94954556 180.6875 401.375 C181.49445313 400.37339844 182.30140625 399.37179687 183.1328125 398.33984375 C208.17245024 366.89861392 222.8183328 329.70160071 229.6875 290.375 C230.02974609 288.47041016 230.02974609 288.47041016 230.37890625 286.52734375 C239.00649862 228.18551285 221.85197518 166.79578573 187.1484375 119.64453125 C179.93454678 109.9950373 171.95851224 101.11557249 163.6875 92.375 C163.04941406 91.694375 162.41132813 91.01375 161.75390625 90.3125 C156.80559837 85.18619544 151.26204556 80.79694121 145.6875 76.375 C144.68589844 75.56804687 143.68429687 74.76109375 142.65234375 73.9296875 C111.70815086 49.28588749 74.51846407 33.96550389 35.6875 27.375 C34.99205078 27.25495605 34.29660156 27.13491211 33.58007812 27.01123047 C-24.98891781 17.4259143 -87.86885226 34.55620526 -135.3125 69.375 Z " fill="#F0F6FC" transform="translate(255.3125,-0.375)"/>
<path d="M0 0 C12.60407309 10.0294606 20.97821123 21.97437729 23.4765625 38.0703125 C25.15072026 54.22788157 21.07445837 69.18451954 11 82 C3.09088636 91.72432005 -9.46782676 99.40640266 -22 101 C-38.54781027 102.35139167 -52.36877313 100.11205392 -66 90 C-66.64453125 89.53851563 -67.2890625 89.07703125 -67.953125 88.6015625 C-78.6930379 80.23217092 -84.98793492 67.31214772 -87 54 C-87.99781527 36.48066654 -84.63268054 21.99819565 -73.15625 8.31640625 C-54.61533125 -11.60164596 -22.554255 -15.86852941 0 0 Z M-55 27 C-60.19339017 33.5941519 -62.32602245 40.00410711 -61.9375 48.375 C-60.915637 56.85528835 -57.14920745 63.75350989 -50.89453125 69.53125 C-46.51570997 72.92596505 -41.55956861 75.45760306 -36 76 C-35.05060547 76.09474609 -35.05060547 76.09474609 -34.08203125 76.19140625 C-25.74281784 76.64895601 -18.11569763 74.06862049 -11.625 68.8125 C-5.08430241 62.580706 -1.91158952 55.31499248 -1.6875 46.375 C-1.79735003 37.34532793 -4.76408084 30.35047416 -10.9296875 23.7578125 C-17.63633859 18.06348611 -25.36419729 15.6123245 -34.0234375 15.7265625 C-42.58766622 16.51330267 -49.27966773 20.74458097 -55 27 Z " fill="#F0F6FC" transform="translate(367,143)"/>
<path d="M0 0 C5.90748074 11.02729739 7.89678159 21.83940709 5.3125 34.3203125 C1.79429231 45.78380589 -4.83788314 54.98973883 -15.14453125 61.31640625 C-17.06836484 62.3132684 -18.9934981 63.18445407 -21 64 C-21.9075 64.391875 -22.815 64.78375 -23.75 65.1875 C-34.39634586 67.84908647 -45.61214812 67.73200355 -55.6875 63.0625 C-59 61 -59 61 -60 58 C-59.04370117 55.93115234 -59.04370117 55.93115234 -57.54296875 53.5859375 C-56.73956055 52.32136719 -56.73956055 52.32136719 -55.91992188 51.03125 C-55.06237305 49.71640625 -55.06237305 49.71640625 -54.1875 48.375 C-53.62740234 47.49070312 -53.06730469 46.60640625 -52.49023438 45.6953125 C-48.28378211 39.14189106 -48.28378211 39.14189106 -46 38 C-45.278125 38.309375 -44.55625 38.61875 -43.8125 38.9375 C-39.00868933 40.75227292 -35.23344995 40.38279481 -30.375 38.875 C-25.96473994 36.42485552 -23.28687442 33.57374883 -21 29 C-20.90316436 27.23132545 -20.87020618 25.45881697 -20.875 23.6875 C-20.87242187 22.74261719 -20.86984375 21.79773438 -20.8671875 20.82421875 C-20.994637 18.11404264 -21.39403774 15.64026415 -22 13 C-21.50072998 12.67725098 -21.00145996 12.35450195 -20.48706055 12.02197266 C-18.22039898 10.55653366 -15.95394734 9.09077031 -13.6875 7.625 C-12.50897461 6.86316406 -12.50897461 6.86316406 -11.30664062 6.0859375 C-10.54931641 5.59609375 -9.79199219 5.10625 -9.01171875 4.6015625 C-7.96697388 3.92601318 -7.96697388 3.92601318 -6.90112305 3.23681641 C-1.92577971 0 -1.92577971 0 0 0 Z " fill="#F0F6FC" transform="translate(226,324)"/>
</svg>
