<?xml version="1.0" encoding="UTF-8"?>
<svg version="1.1" xmlns="http://www.w3.org/2000/svg" width="512" height="512">
<path d="M0 0 C1.59208984 -0.00807831 1.59208984 -0.00807831 3.2163431 -0.01631981 C6.73726094 -0.03051238 10.25779817 -0.02351711 13.7787323 -0.01637268 C16.31771138 -0.02208082 18.8566879 -0.0290468 21.3956604 -0.03717041 C27.55532757 -0.0532134 33.71485654 -0.05521214 39.87453822 -0.04995751 C44.88605199 -0.04590178 49.89753573 -0.04737594 54.90904808 -0.05270576 C55.62468528 -0.05345419 56.34032248 -0.05420261 57.07764566 -0.05497371 C58.53188128 -0.05650533 59.98611691 -0.05804368 61.44035252 -0.05958868 C75.05235982 -0.07329014 88.66430951 -0.0678929 102.27631547 -0.05640347 C114.70060681 -0.04647617 127.12474911 -0.0594072 139.54901747 -0.08333766 C152.3378356 -0.10778271 165.12658447 -0.11732313 177.91542548 -0.11068493 C185.0827176 -0.10720435 192.24989524 -0.10934741 199.41716957 -0.12693596 C206.16015559 -0.14327945 212.9028132 -0.13839261 219.64580727 -0.11963081 C222.11156665 -0.11595896 224.57734727 -0.1190121 227.04308701 -0.1295166 C251.81727217 -0.22694966 272.03641144 4.27787547 290.35758972 21.93455505 C298.28160195 29.98846912 303.98563264 39.78134832 307.78727722 50.38768005 C308.18589211 51.4824189 308.18589211 51.4824189 308.59255981 52.59927368 C311.55105569 62.33062962 311.01790805 72.03646228 310.80061913 82.08794594 C310.68984642 87.71400607 310.66639871 93.34083802 310.62516785 98.96775818 C310.56588397 106.0918994 310.48205368 113.21360345 310.3177948 120.33616638 C310.18650114 126.12798931 310.13477204 131.91596833 310.13387489 137.70921898 C310.11912511 139.89937959 310.07586366 142.08956056 310.00209618 144.27852821 C309.40643966 157.5614654 309.40643966 157.5614654 315.2829895 168.99369812 C318.58958113 172.29902313 322.14180947 175.18063405 325.90118027 177.9527607 C328.46955904 179.90675167 330.64776371 182.08007546 332.89274597 184.39549255 C333.58561707 185.0915863 334.27848816 185.78768005 334.99235535 186.50486755 C335.64655457 187.16744568 336.30075378 187.8300238 336.97477722 188.51268005 C337.6715155 189.21393005 338.36825378 189.91518005 339.08610535 190.63768005 C340.40975362 191.97012751 341.73234911 193.30362204 343.05363464 194.63841248 C344.54340798 196.14161287 346.03971206 197.63833587 347.53727722 199.1337738 C365.66447969 217.29244711 375.25036271 240.92206888 375.32939148 266.54663086 C375.32161959 268.12971702 375.31342726 269.71280115 375.30485535 271.29588318 C375.31029349 273.01463407 375.31742551 274.73338029 375.32609558 276.45211792 C375.3441311 281.06586106 375.33734437 285.67924129 375.32457924 290.29298973 C375.3143478 295.15500639 375.32387274 300.01699499 375.3301239 304.87901306 C375.3373711 313.03902175 375.32788997 321.19888494 375.3087616 329.35887146 C375.28699855 338.75036613 375.29405201 348.14151325 375.31606722 357.53299952 C375.33430517 365.64227571 375.33673877 373.75144817 375.32631254 381.86073828 C375.32012348 386.68395006 375.31911386 391.5069993 375.3324585 396.3302002 C375.34413959 400.86789015 375.33577134 405.40513847 375.31288147 409.94278145 C375.30765904 411.59335668 375.30899485 413.24397005 375.31793213 414.89452934 C375.45147651 442.09670604 366.00105703 465.88472965 346.78727722 485.38768005 C325.52137532 506.68914366 300.11901878 512.85256498 271.06411624 512.92875808 C267.92351502 512.93018065 264.78298762 512.92064228 261.64240503 512.91057873 C257.41872802 512.90144587 253.19511472 512.91553835 248.97145081 512.92649841 C240.71893888 512.94420121 232.46657322 512.94048063 224.21405578 512.92884785 C217.50168526 512.91978116 210.78935548 512.91860346 204.07698059 512.92294312 C203.1183665 512.92355605 202.1597524 512.92416898 201.1720894 512.92480049 C199.2241369 512.9260795 197.27618441 512.92737636 195.32823193 512.92869085 C177.10075977 512.94007251 158.87336834 512.92702094 140.64590943 512.90548939 C125.03641611 512.88762061 109.42704183 512.8907254 93.81755066 512.90916443 C75.65129865 512.93061391 57.48511724 512.9389741 39.31885433 512.92671537 C37.37842752 512.9254413 35.43800069 512.92418381 33.49757385 512.92294312 C32.54307038 512.92232601 31.5885669 512.92170891 30.60513908 512.92107311 C23.90782865 512.91763242 17.21056333 512.92342078 10.51325989 512.93286133 C2.34144594 512.94412814 -5.8302145 512.9409435 -14.00201106 512.91973835 C-18.16421875 512.90929053 -22.32617133 512.90499776 -26.48837662 512.91833496 C-58.56977777 513.01268768 -58.56977777 513.01268768 -72.21272278 508.38768005 C-73.48202133 507.96736889 -73.48202133 507.96736889 -74.77696228 507.53856659 C-98.6911424 498.83204131 -117.53207738 480.52539935 -128.90412903 458.04393005 C-135.6944028 443.20403349 -137.81776854 428.63321647 -137.7303009 412.47947693 C-137.73573904 410.76072604 -137.74287107 409.04197982 -137.75154114 407.32324219 C-137.76957666 402.70949904 -137.76278992 398.09611882 -137.7500248 393.48237038 C-137.73979336 388.62035372 -137.74931829 383.75836512 -137.75556946 378.89634705 C-137.76281666 370.73633836 -137.75333552 362.57647517 -137.73420715 354.41648865 C-137.71244411 345.02499398 -137.71949756 335.63384685 -137.74151278 326.24236059 C-137.75975073 318.1330844 -137.76218433 310.02391193 -137.7517581 301.91462183 C-137.74556904 297.09141004 -137.74455942 292.26836081 -137.75790405 287.44515991 C-137.76958514 282.90746996 -137.7612169 278.37022164 -137.73832703 273.83257866 C-137.73310459 272.18200343 -137.7344404 270.53139006 -137.74337769 268.88083076 C-137.86412665 244.28500164 -130.19971683 222.27836614 -114.21272278 203.38768005 C-113.77057434 202.82307068 -113.3284259 202.2584613 -112.87287903 201.67674255 C-110.69860789 198.90948838 -108.35990791 196.60112627 -105.68537903 194.34080505 C-100.58604298 189.91956605 -95.88440337 185.13071228 -91.15022278 180.32518005 C-89.43265562 178.58184295 -87.71265288 176.84090163 -85.99006653 175.1025238 C-85.23975159 174.3406073 -84.48943665 173.5786908 -83.71638489 172.79368591 C-81.21272278 170.38768005 -81.21272278 170.38768005 -79.46590805 169.18497467 C-76.68927149 167.1905078 -74.57953798 165.608042 -73.57225895 162.25691319 C-73.34010798 159.6746977 -73.32668036 157.17329926 -73.38972473 154.58128357 C-73.38319885 153.12381462 -73.38319885 153.12381462 -73.37654114 151.63690186 C-73.36953714 148.42923029 -73.41090047 145.22398401 -73.45100403 142.0165863 C-73.45177696 139.7742293 -73.44888672 137.53186832 -73.44250488 135.28952026 C-73.43290854 129.3815698 -73.46154537 123.47449647 -73.50166321 117.56669617 C-73.56304439 108.14436652 -73.5827988 98.7222773 -73.5718441 89.29977226 C-73.57591249 86.02770362 -73.60611832 82.75663127 -73.63882446 79.48474121 C-73.74289555 56.56442026 -67.82259324 37.58216257 -51.66584778 20.81736755 C-37.81475454 7.18967904 -19.31901233 -0.12013747 0 0 Z M-39.70100403 41.4072113 C-61.75381969 71.00663478 -57.23795161 124.43670238 -58.77522278 159.70018005 C-58.85097636 161.39289268 -58.85097636 161.39289268 -58.92826033 163.11980152 C-61.355739 219.03620266 -59.98031875 267.20748706 -21.04337883 310.34880257 C-11.92036394 320.25201032 -2.11674682 329.36122467 7.97477722 338.26268005 C9.03118101 339.19860575 9.03118101 339.19860575 10.1089263 340.15343904 C28.82791704 356.70609833 48.32510462 372.05188793 68.78727722 386.38768005 C69.35185332 386.78634608 69.91642941 387.1850121 70.49811387 387.59575891 C72.23484228 388.82206488 73.97511672 390.04317124 75.71643066 391.26295471 C76.74501851 391.98479006 77.77360636 392.7066254 78.83336353 393.45033455 C95.23054893 404.20454634 116.11117817 406.95524078 135.16227722 403.20018005 C148.22798704 399.96012514 159.90428965 394.31187001 169.52653503 384.80662537 C175.38462803 379.24748564 181.84626919 374.67051982 188.43083191 370.01560974 C204.12947515 358.84648832 219.03167422 346.81435366 233.53727722 334.13768005 C234.19428132 333.56542206 234.85128541 332.99316407 235.52819872 332.40356493 C270.11612482 302.14617313 292.28582194 272.12418863 295.73240459 225.22572219 C297.08764839 203.65749606 296.84730585 182.15584674 295.97477722 160.57518005 C295.90858468 158.8785299 295.90858468 158.8785299 295.84105492 157.14760399 C294.88708259 133.08694177 293.33188956 109.08503183 290.90519714 85.12669373 C290.82203546 84.28911073 290.73887378 83.45152774 290.65319204 82.58856344 C288.76278997 63.89980299 284.98047111 46.43562896 269.76774597 33.8993988 C258.56225585 25.55083728 247.58577599 22.23464499 233.76905823 22.24723816 C232.75165924 22.24426704 231.73426025 22.24129591 230.68603098 22.23823476 C227.27234303 22.22955402 223.85869018 22.22804002 220.44499207 22.22654724 C217.99907862 22.22191859 215.55316591 22.21689387 213.10725403 22.21150208 C206.45826191 22.19837973 199.80928351 22.19189641 193.16028166 22.18749142 C189.00542416 22.1847258 184.85056898 22.18048782 180.69571304 22.17598724 C169.18337589 22.16379597 157.67104059 22.15349687 146.15869713 22.15011215 C145.05400709 22.1497828 145.05400709 22.1497828 143.92700008 22.1494468 C143.18881364 22.14922852 142.45062719 22.14901024 141.69007146 22.14878535 C140.19431583 22.14834189 138.6985602 22.14789533 137.20280457 22.14744568 C136.08989341 22.14711353 136.08989341 22.14711353 134.9544992 22.14677468 C122.94094754 22.14282934 110.92745664 22.12538277 98.91392843 22.10208616 C86.56832914 22.07833966 74.22276028 22.06590878 61.87713778 22.06474423 C54.95021227 22.06382924 48.02336589 22.05812156 41.09646225 22.03992462 C34.57772733 22.02285988 28.0591157 22.02129564 21.54035568 22.03006363 C19.15193276 22.03083324 16.76350173 22.0265013 14.37509918 22.01660538 C11.10568817 22.00385707 7.83680599 22.00977873 4.56739807 22.02018738 C3.63011285 22.01213097 2.69282763 22.00407457 1.72713983 21.99577403 C-14.24276072 22.11406454 -29.49577555 29.02315853 -39.70100403 41.4072113 Z M-76.43757629 197.49900818 C-77.40816271 198.46975383 -78.37598054 199.44327227 -79.34162903 200.41893005 C-79.85072311 200.92943909 -80.3598172 201.43994812 -80.88433838 201.96592712 C-82.5169838 203.60419011 -84.14612659 205.24588837 -85.77522278 206.88768005 C-86.87851019 207.9959802 -87.98202285 209.10405616 -89.08576965 210.2118988 C-91.79737896 212.93456041 -94.50585092 215.66030875 -97.21272278 218.38768005 C-95.6508138 222.13973373 -93.32244539 224.52206125 -90.45881653 227.37205505 C-89.76744347 228.06274078 -89.76744347 228.06274078 -89.06210327 228.76737976 C-88.0919716 229.73450188 -87.11942217 230.6992041 -86.14460754 231.66160583 C-84.64649473 233.14136242 -83.15663847 234.62906608 -81.6678009 236.1181488 C-77.90858744 240.68197057 -77.90858744 240.68197057 -73.21272278 243.38768005 C-73.21272278 227.54768005 -73.21272278 211.70768005 -73.21272278 195.38768005 C-74.60302663 195.27295369 -74.60302663 195.27295369 -76.43757629 197.49900818 Z M310.78727722 195.38768005 C310.78727722 211.22768005 310.78727722 227.06768005 310.78727722 243.38768005 C316.65277458 238.37002147 316.65277458 238.37002147 322.18962097 233.08299255 C323.30627136 231.96150818 323.30627136 231.96150818 324.44548035 230.81736755 C325.19764832 230.05682068 325.94981628 229.2962738 326.72477722 228.51268005 C327.5040155 227.72893005 328.28325378 226.94518005 329.08610535 226.13768005 C330.98881807 224.22329425 332.88913893 222.30659972 334.78727722 220.38768005 C333.22536824 216.63562638 330.89699983 214.25329886 328.03337097 211.40330505 C327.5724556 210.9428479 327.11154022 210.48239075 326.63665771 210.00798035 C325.66652605 209.04085822 324.69397661 208.07615601 323.71916199 207.11375427 C322.22104918 205.63399769 320.73119292 204.14629403 319.24235535 202.6572113 C315.48314188 198.09338954 315.48314188 198.09338954 310.78727722 195.38768005 Z M-110.21272278 239.38768005 C-110.86166514 241.44920394 -111.50674918 243.51194263 -112.15022278 245.57518005 C-112.68969543 247.29801208 -112.68969543 247.29801208 -113.24006653 249.0556488 C-114.7612672 254.26683022 -115.34084748 258.8559121 -115.3598938 264.29718018 C-115.36357049 264.9802836 -115.36724717 265.66338702 -115.37103528 266.36719054 C-115.38202335 268.64982563 -115.38590774 270.93241511 -115.38972473 273.21507263 C-115.39599342 274.85485476 -115.40264057 276.49463549 -115.40963745 278.13441467 C-115.43064441 283.51700356 -115.44104152 288.8995926 -115.45100403 294.2822113 C-115.45505382 296.14074404 -115.45917081 297.99927663 -115.46335411 299.85780907 C-115.48240394 308.59728624 -115.49663146 317.33675501 -115.50496608 326.07624894 C-115.51471682 336.13257861 -115.54098048 346.18868691 -115.58146697 356.24493867 C-115.61174727 364.03630969 -115.62644647 371.82761772 -115.62974709 379.61904639 C-115.63208538 384.26303581 -115.6408842 388.90678872 -115.66620827 393.55071449 C-115.68970131 397.92978358 -115.69363816 402.30846404 -115.68344688 406.68758011 C-115.68295641 408.28214635 -115.68912997 409.87673312 -115.70300293 411.47123909 C-115.87353786 432.26003372 -110.42622502 450.66502217 -96.21272278 466.38768005 C-95.5862384 467.09537537 -94.95975403 467.80307068 -94.31428528 468.5322113 C-82.49833482 481.14392985 -64.972213 489.2597867 -47.80116308 490.66733253 C-44.14754236 490.77383694 -40.50450057 490.79260115 -36.84936523 490.77536011 C-35.44711216 490.77954339 -34.04486248 490.78502631 -32.64261895 490.79167992 C-28.82627641 490.80602315 -25.01015186 490.80192503 -21.19379795 490.79451311 C-17.063464 490.78975588 -12.93317551 490.80231378 -8.80285645 490.81253052 C-0.7252858 490.82967447 7.3522069 490.83056765 15.42979101 490.82531761 C21.99971779 490.8212662 28.56962165 490.82273098 35.13954735 490.82806587 C36.07678923 490.82881429 37.01403112 490.82956272 37.97967428 490.83033382 C39.88406264 490.83186539 41.788451 490.83340374 43.69283935 490.83494879 C61.52824114 490.84865807 79.363599 490.84324735 97.19899978 490.83176357 C113.48952118 490.82183439 129.77992895 490.83476922 146.07043282 490.85869776 C162.82675732 490.88312371 179.58302897 490.89268796 196.33937091 490.88604504 C205.73505787 490.88256038 215.13065751 490.88473488 224.52633095 490.90229607 C232.52515642 490.91706189 240.52383307 490.91759658 248.52265576 490.90022516 C252.59763266 490.8917484 256.67234419 490.88948338 260.74730682 490.90487671 C286.55967224 490.99523238 308.62445658 489.61515142 328.78727722 471.38768005 C329.49497253 470.76119568 330.20266785 470.1347113 330.93180847 469.48924255 C344.53888426 456.74073942 352.50498297 438.01699373 353.13833606 419.47572827 C353.20318192 415.86014208 353.20293519 412.24638717 353.19132996 408.63035583 C353.19704788 406.99909502 353.20401757 405.3678382 353.21212769 403.73658752 C353.22991776 399.3479937 353.22891761 394.95960136 353.2231853 390.57098246 C353.22007264 386.88851733 353.22620883 383.20608977 353.23222405 379.52363002 C353.24622136 370.82675099 353.24474825 362.12997029 353.23332214 353.43309021 C353.22184703 344.50232172 353.23591739 335.57185376 353.26271862 326.64112484 C353.28496859 318.93447785 353.29149213 311.22792454 353.28564221 303.52124774 C353.2822934 298.93554596 353.28454787 294.35003668 353.30189323 289.76436234 C353.31750946 285.44833521 353.3132467 281.13274877 353.29458809 276.81673813 C353.29094232 275.24636664 353.29389116 273.6759614 353.30447388 272.10562134 C353.37086037 261.42722585 352.24171135 251.5510256 348.78727722 241.38768005 C348.12727722 240.72768005 347.46727722 240.06768005 346.78727722 239.38768005 C345.95497023 240.22367422 345.12266323 241.05966839 344.26513481 241.92099571 C324.46276312 261.81018692 304.6499156 281.68889756 284.82429951 301.55491909 C282.37877677 304.00544405 279.93334168 306.45605648 277.48796082 308.90672302 C277.00117234 309.39456074 276.51438386 309.88239846 276.01284422 310.38501914 C268.15338495 318.26183606 260.30103229 326.14570055 252.45132945 334.032239 C244.38367183 342.13743571 236.30817546 350.23474596 228.2259208 358.32539046 C223.691965 362.86454318 219.1615489 367.4071021 214.63962936 371.95824814 C210.37535113 376.24986125 206.10157585 380.53179 201.82062149 384.80676651 C200.25879717 386.36968301 198.70034584 387.93597936 197.14572144 389.50605774 C186.14335491 400.61231984 174.82977774 411.33508906 160.34977722 417.76268005 C159.64804382 418.08373718 158.94631042 418.40479431 158.22331238 418.73558044 C135.5218048 428.76594563 108.56116409 429.58315398 85.22477722 421.20018005 C64.55907352 412.59159891 50.24008719 399.14795794 34.63981628 383.45140076 C33.06362621 381.87300453 31.48698348 380.29506022 29.90992737 378.7175293 C26.54101441 375.34570404 23.17525667 371.97077295 19.81200409 368.59330177 C14.49782409 363.25671994 9.17643983 357.92736022 3.85411072 352.59890747 C-3.599606 345.13513843 -11.05017674 337.6682411 -18.49787903 330.19847107 C-18.96876356 329.72619322 -19.43964809 329.25391538 -19.92480186 328.76732608 C-20.39631965 328.29441275 -20.86783744 327.82149943 -21.35364366 327.3342554 C-28.06535856 320.60269769 -34.77809239 313.87215819 -41.49201965 307.14280701 C-41.96595814 306.66777767 -42.43989662 306.19274834 -42.92819688 305.70332418 C-50.81780261 297.79572469 -58.70942585 289.89014022 -66.60207582 281.98557919 C-71.89730118 276.68192938 -77.18970609 271.37548533 -82.47988272 266.06679976 C-85.75615461 262.77992979 -89.03441952 259.4950531 -92.31319809 256.21068382 C-93.83915424 254.68124104 -95.36423732 253.15092664 -96.88840866 251.6197052 C-98.95858639 249.54015764 -101.03175591 247.46364059 -103.10572815 245.38787842 C-103.71649948 244.77283001 -104.32727081 244.1577816 -104.95655036 243.52409536 C-107.21751322 240.70349771 -107.21751322 240.70349771 -110.21272278 239.38768005 Z " fill="#F0F6FC" transform="translate(137.2127227783203,-0.3876800537109375)"/>
<path d="M0 0 C2.96047397 2.75392928 3.74538649 4.41530967 4.75390625 8.20703125 C4.58599105 14.00504438 1.51367336 18.14124326 -2.45117188 22.0390625 C-3.2178418 22.76222656 -3.2178418 22.76222656 -4 23.5 C-4.49177734 23.98210937 -4.98355469 24.46421875 -5.49023438 24.9609375 C-8.27124168 27.65983547 -11.14199853 30.22596085 -14.08203125 32.75 C-19.07351432 37.08575907 -23.67496599 41.79220032 -28.3125 46.5 C-33.48421976 51.75007916 -38.6628921 56.87071772 -44.2578125 61.66796875 C-48.4623619 65.41689207 -52.36081984 69.4884459 -56.3125 73.5 C-61.49429994 78.76031206 -66.68310882 83.89250747 -72.2890625 88.69921875 C-76.31063052 92.27825901 -80.03766986 96.16457869 -83.8125 100 C-89.46212053 105.74030465 -95.16366215 111.29457906 -101.3125 116.5 C-102.09238281 117.17289062 -102.87226563 117.84578125 -103.67578125 118.5390625 C-116.39735772 128.88968384 -130.27093377 131.72002876 -146.3125 130.5 C-159.96132761 128.58465745 -169.55658943 121.81884578 -179.3125 112.5 C-180.84992535 111.1202593 -182.39168276 109.74533214 -183.9375 108.375 C-189.09365879 103.73688542 -194.14377366 98.98891861 -199.19750977 94.23999023 C-203.57709546 90.1251133 -207.96439923 86.0191351 -212.375 81.9375 C-213.17393677 81.19608765 -213.17393677 81.19608765 -213.98901367 80.43969727 C-216.73509002 77.90455584 -219.53094091 75.47330557 -222.4375 73.125 C-226.30833885 69.59075583 -227.99504188 66.67685566 -228.75 61.5 C-228.1833265 57.61423889 -226.78510877 55.52207739 -224.3125 52.5 C-220.66276512 50.25109697 -217.95635788 50.05161496 -213.77734375 50.66796875 C-209.196426 52.21430073 -206.20117943 55.60343709 -202.84960938 58.97509766 C-200.47253863 61.33329077 -198.01553973 63.6040807 -195.56616211 65.88671875 C-193.48254254 67.82877136 -191.40664774 69.77880512 -189.33203125 71.73046875 C-185.28249471 75.53382117 -181.21100857 79.31266533 -177.11499023 83.06591797 C-174.28204551 85.66494177 -171.48045623 88.29038882 -168.7109375 90.95703125 C-159.66488035 99.6215918 -151.55923659 106.74207077 -138.5 107.8125 C-125.52103394 107.38572549 -117.31911444 99.72308108 -108.375 91.1875 C-107.65062744 90.50179932 -106.92625488 89.81609863 -106.17993164 89.10961914 C-100.07530948 83.29967112 -94.10354535 77.35980137 -88.19750977 71.34838867 C-85.0289791 68.13850051 -81.8327321 65.03676454 -78.41015625 62.09765625 C-73.62828747 57.97833204 -69.23741627 53.49594221 -64.8125 49 C-55.8588451 39.90262672 -55.8588451 39.90262672 -51.34375 36.03125 C-46.40082335 31.78811954 -41.88143643 27.13816274 -37.3125 22.5 C-32.03694751 17.1445149 -26.77208933 11.87262474 -21.03442383 7.00927734 C-19.26351688 5.45706598 -17.63462582 3.81922545 -16 2.125 C-11.24581683 -2.51862077 -5.96839275 -2.70266841 0 0 Z " fill="#F0F6FC" transform="translate(366.3125,104.5)"/>
</svg>
