<?xml version="1.0" encoding="UTF-8"?>
<svg version="1.1" xmlns="http://www.w3.org/2000/svg" width="512" height="512">
<path d="M0 0 C1.01790619 0.00215515 2.03581238 0.0043103 3.08456421 0.00653076 C17.69599291 0.05620948 32.02239484 0.31547407 46.375 3.3125 C47.33390137 3.50585938 48.29280273 3.69921875 49.28076172 3.8984375 C104.79871155 15.38307644 157.52844114 43.54935159 194.375 87.3125 C195.02903809 88.08207031 195.02903809 88.08207031 195.69628906 88.8671875 C210.15477448 105.98828489 226.23019656 126.87808968 233.375 148.3125 C233.705 120.5925 234.035 92.8725 234.375 64.3125 C241.635 64.3125 248.895 64.3125 256.375 64.3125 C256.46547903 77.71696873 256.53881902 91.12123361 256.58224869 104.52593899 C256.60309595 110.75072542 256.63136189 116.97529152 256.67675781 123.19995117 C256.72031674 129.21054809 256.74415862 135.22093348 256.75450897 141.2316761 C256.76188224 143.52133576 256.77628048 145.81098424 256.79792023 148.10055351 C256.827087 151.31525285 256.83095035 154.52908547 256.82910156 157.74389648 C256.84348267 158.68401581 256.85786377 159.62413513 256.87268066 160.59274292 C256.8131785 170.19596752 252.99060366 178.36308147 246.375 185.3125 C238.81137122 191.27263948 231.5719702 192.6108207 222.14697266 192.53955078 C221.13172516 192.53984283 220.11647766 192.54013489 219.07046509 192.54043579 C215.72657622 192.5390464 212.38291228 192.52350339 209.0390625 192.5078125 C206.71593345 192.50408099 204.39280282 192.50123467 202.06967163 192.49923706 C195.96392449 192.49161152 189.85827293 192.4719722 183.75256348 192.4498291 C177.51864922 192.42934749 171.28471948 192.42023038 165.05078125 192.41015625 C152.82547214 192.38872536 140.60025899 192.35355191 128.375 192.3125 C128.375 185.0525 128.375 177.7925 128.375 170.3125 C157.745 170.3125 187.115 170.3125 217.375 170.3125 C211.78568529 157.35670074 211.78568529 157.35670074 205.5625 144.75 C205.14291016 143.95899902 204.72332031 143.16799805 204.29101562 142.35302734 C195.52051634 126.10930455 184.4532267 111.40319063 171.83984375 97.96484375 C169.87951132 95.85538936 168.01445317 93.72304058 166.1875 91.5 C163.60577772 88.45881867 160.77224547 85.87307155 157.7265625 83.30078125 C156.03112106 81.86726016 154.36219816 80.40216638 152.7109375 78.91796875 C122.47155012 52.00048478 84.50518156 35.19106686 45.125 27.0625 C44.39434326 26.91119629 43.66368652 26.75989258 42.91088867 26.60400391 C28.91715031 23.90321698 14.97348348 22.92856648 0.75 23 C-0.42171249 23.00323273 -0.42171249 23.00323273 -1.61709595 23.00653076 C-49.93168607 23.21911864 -97.62790306 38.65752092 -136.625 67.3125 C-137.19943848 67.72999512 -137.77387695 68.14749023 -138.36572266 68.57763672 C-147.01800122 74.89823778 -154.90195697 81.89609672 -162.625 89.3125 C-163.13949707 89.79976563 -163.65399414 90.28703125 -164.18408203 90.7890625 C-172.16796865 98.37008084 -179.05822727 106.48451573 -185.625 115.3125 C-186.05022949 115.87694824 -186.47545898 116.44139648 -186.91357422 117.02294922 C-217.9379623 158.35301639 -230.5486044 205.42529745 -233.625 256.3125 C-240.885 256.3125 -248.145 256.3125 -255.625 256.3125 C-256.80822958 192.81251249 -232.99664632 129.07557412 -188.97753906 82.82519531 C-187.79072005 81.5941551 -186.60061472 80.36627461 -185.40722656 79.14160156 C-183.63301167 77.32072238 -181.87518486 75.48496071 -180.1171875 73.6484375 C-173.01832106 66.31138736 -165.60682072 59.74213624 -157.41796875 53.64794922 C-155.58092428 52.27967127 -153.75911069 50.89264471 -151.9375 49.50390625 C-143.51077324 43.13790222 -134.81596417 37.50688619 -125.625 32.3125 C-124.99464844 31.94946777 -124.36429688 31.58643555 -123.71484375 31.21240234 C-85.96656579 9.60246645 -43.19754839 -0.16448837 0 0 Z " fill="#F0F6FC" transform="translate(255.625,-0.3125)"/>
<path d="M0 0 C7.26 0 14.52 0 22 0 C22.28492625 15.38601763 21.69854865 29.85650605 19 45 C18.83902832 45.91185059 18.67805664 46.82370117 18.51220703 47.76318359 C11.30299876 87.18875775 -5.33655136 124.43002364 -30 156 C-30.75925781 156.97195313 -31.51851563 157.94390625 -32.30078125 158.9453125 C-44.63513598 174.32491644 -58.43604501 188.87765196 -74 201 C-74.93585938 201.76441406 -75.87171875 202.52882813 -76.8359375 203.31640625 C-108.78871701 228.9032721 -147.95511678 245.41301276 -188 253 C-188.80937012 253.16371094 -189.61874023 253.32742188 -190.45263672 253.49609375 C-218.51021829 258.97958637 -252.01284798 258.74717716 -280 253 C-281.01255859 252.80132324 -282.02511719 252.60264648 -283.06835938 252.39794922 C-329.15163887 243.18267388 -372.07390064 222.32918849 -406.55859375 190.25390625 C-408.64051229 188.33187905 -410.76425897 186.50374045 -412.9375 184.6875 C-434.7935494 165.59690991 -457.83525459 135.49423623 -467 108 C-467.33 135.72 -467.66 163.44 -468 192 C-475.26 192 -482.52 192 -490 192 C-490.09047903 178.59553127 -490.16381902 165.19126639 -490.20724869 151.78656101 C-490.22809595 145.56177458 -490.25636189 139.33720848 -490.30175781 133.11254883 C-490.34531674 127.10195191 -490.36915862 121.09156652 -490.37950897 115.0808239 C-490.38688224 112.79116424 -490.40128048 110.50151576 -490.42292023 108.21194649 C-490.452087 104.99724715 -490.45595035 101.78341453 -490.45410156 98.56860352 C-490.46848267 97.62848419 -490.48286377 96.68836487 -490.49768066 95.71975708 C-490.44029201 86.45763848 -487.1955515 79.52872988 -480.92578125 72.7890625 C-473.15831251 65.57303677 -465.21833586 63.69387249 -454.86376953 63.77294922 C-453.8582756 63.77265717 -452.85278168 63.77236511 -451.81681824 63.77206421 C-448.5053941 63.77345349 -445.19419716 63.78899595 -441.8828125 63.8046875 C-439.58210371 63.80841905 -437.28139332 63.81126535 -434.98068237 63.81326294 C-428.93411855 63.82088816 -422.88765125 63.8405272 -416.84112549 63.8626709 C-410.66753444 63.88315321 -404.49392775 63.89226976 -398.3203125 63.90234375 C-386.21349932 63.92377406 -374.1067577 63.95789668 -362 64 C-361.82765763 65.79112962 -361.66250319 67.58295091 -361.5 69.375 C-361.4071875 70.37273437 -361.314375 71.37046875 -361.21875 72.3984375 C-360.9438459 76.92453717 -361 81.46555952 -361 86 C-390.7 86 -420.4 86 -451 86 C-445.41068529 98.95579926 -445.41068529 98.95579926 -439.1875 111.5625 C-438.76791016 112.35350098 -438.34832031 113.14450195 -437.91601562 113.95947266 C-429.14551634 130.20319545 -418.0782267 144.90930937 -405.46484375 158.34765625 C-403.50451132 160.45711064 -401.63945317 162.58945942 -399.8125 164.8125 C-397.23077772 167.85368133 -394.39724547 170.43942845 -391.3515625 173.01171875 C-389.65612106 174.44523984 -387.98719816 175.91033362 -386.3359375 177.39453125 C-353.97857803 206.1973206 -312.45216424 223.89800682 -270 231 C-268.98728027 231.17789063 -268.98728027 231.17789063 -267.95410156 231.359375 C-211.9536991 240.8004865 -149.16183611 225.68689739 -102.81689453 193.22729492 C-91.5641468 185.1874257 -80.98969318 176.56227347 -71 167 C-70.50258301 166.52981445 -70.00516602 166.05962891 -69.49267578 165.57519531 C-61.48865417 157.97998817 -54.58096353 149.84706154 -48 141 C-47.36215576 140.15332764 -47.36215576 140.15332764 -46.71142578 139.28955078 C-15.64798016 97.90745195 -3.22811025 50.92818637 0 0 Z " fill="#F0F6FC" transform="translate(490,256)"/>
<path d="M0 0 C4.16347012 3.4964018 8.08707008 7.22822917 12 11 C12.71800781 11.65484375 13.43601562 12.3096875 14.17578125 12.984375 C20.46536293 18.88322115 25.23469978 25.86116307 30 33 C30.63035156 33.93457031 31.26070312 34.86914062 31.91015625 35.83203125 C49.23044184 63.41034475 53.95913247 99.78984875 46.83911133 131.37744141 C40.98202063 154.57300651 29.50045466 174.76553935 13 192 C11.97519531 193.11955078 11.97519531 193.11955078 10.9296875 194.26171875 C4.66722196 200.88236958 -2.44348262 205.97963336 -10 211 C-10.93328125 211.6290625 -11.8665625 212.258125 -12.828125 212.90625 C-40.39820716 230.23601593 -76.79464759 234.95805078 -108.37744141 227.83911133 C-132.12223889 221.84333447 -152.44853072 209.91829939 -170 193 C-171.07701172 192.01773438 -171.07701172 192.01773438 -172.17578125 191.015625 C-178.46536293 185.11677885 -183.23469978 178.13883693 -188 171 C-188.63035156 170.06542969 -189.26070312 169.13085938 -189.91015625 168.16796875 C-207.23044184 140.58965525 -211.95913247 104.21015125 -204.83911133 72.62255859 C-198.84333447 48.87776111 -186.91829939 28.55146928 -170 11 C-169.34515625 10.28199219 -168.6903125 9.56398437 -168.015625 8.82421875 C-162.11677885 2.53463707 -155.13883693 -2.23469978 -148 -7 C-147.06542969 -7.63035156 -146.13085938 -8.26070312 -145.16796875 -8.91015625 C-101.47012457 -36.35415281 -40.12596623 -31.83598863 0 0 Z M-159.640625 32.43798828 C-179.44211656 55.19121081 -186.91993782 84.38975902 -185 114 C-181.89143179 141.66326809 -167.52731464 165.60468342 -147 184 C-123.38493491 202.80063892 -94.28600487 211.06617451 -64.28857422 207.6953125 C-36.69399188 203.54049158 -11.9620399 188.7934861 5.41015625 166.97265625 C22.56457051 143.16833183 30.57537938 114.94026526 26.3125 85.66015625 C21.46531871 57.42867276 6.19488799 32.16284882 -17.1875 15.3125 C-63.57865875 -15.34075974 -121.94267801 -8.89770703 -159.640625 32.43798828 Z " fill="#F0F6FC" transform="translate(335,154)"/>
<path d="M0 0 C3.77790205 1.57266155 6.24241439 3.94282149 9.125 6.8125 C10.42824219 8.09060547 10.42824219 8.09060547 11.7578125 9.39453125 C13.92167745 11.90898756 14.99877948 13.86696725 16 17 C14.50341097 18.52419005 13.00251195 20.04414831 11.5 21.5625 C10.6646875 22.40941406 9.829375 23.25632813 8.96875 24.12890625 C6.90657625 26.16925339 4.76666414 28.06537216 2.55444336 29.94116211 C-2.60290826 34.43962839 -7.39131206 39.29432526 -12.20094109 44.15634155 C-13.87726381 45.85031405 -15.5573266 47.54049743 -17.23841858 49.22973633 C-22.01219396 54.02773954 -26.78021247 58.8314329 -31.54370117 63.63964844 C-34.47283643 66.59576334 -37.4069871 69.54682546 -40.34414864 72.4949646 C-41.45229918 73.60926443 -42.55855737 74.72544989 -43.6627636 75.84365845 C-63.42884244 95.85825524 -63.42884244 95.85825524 -75.5 96.375 C-89.61098771 95.79410171 -98.78384092 84.47350689 -108 75.0625 C-110.07983959 72.94574967 -112.1629856 70.83233306 -114.25 68.72265625 C-114.74846436 68.21864792 -115.24692871 67.71463959 -115.76049805 67.19535828 C-119.17305544 63.769092 -122.68676152 60.51549328 -126.37890625 57.39404297 C-128.71722221 55.3832321 -130.85393016 53.21313452 -133 51 C-131.3316159 46.95662207 -128.52912937 43.9445423 -125.625 40.75 C-124.90183594 39.91855469 -124.90183594 39.91855469 -124.1640625 39.0703125 C-122.7265625 37.484375 -122.7265625 37.484375 -120 35 C-116 35 -116 35 -113.703125 36.94140625 C-112.48882812 38.23884766 -112.48882812 38.23884766 -111.25 39.5625 C-108.37463264 42.60946186 -105.50119639 45.46836045 -102.31640625 48.19140625 C-96.19039815 53.48113127 -90.6337987 59.35850069 -84.98242188 65.14453125 C-83.69754883 66.44583984 -83.69754883 66.44583984 -82.38671875 67.7734375 C-81.22982544 68.95558838 -81.22982544 68.95558838 -80.04956055 70.16162109 C-78.04298317 72.20680791 -78.04298317 72.20680791 -75 73 C-65.36452207 64.17410461 -56.00621048 55.09503215 -46.78125 45.84375 C-46.24498993 45.3060498 -45.70872986 44.76834961 -45.15621948 44.21435547 C-41.26723905 40.31312205 -37.38316924 36.40701647 -33.5 32.5 C-29.58429217 28.56046547 -25.66680786 24.62272754 -21.74510193 20.68916321 C-20.20104439 19.13872937 -18.66007571 17.58527339 -17.1192627 16.03161621 C-11.91810661 10.80363392 -6.61615573 5.78053883 -1 1 C-0.67 0.67 -0.34 0.34 0 0 Z " fill="#F0F6FC" transform="translate(318,214)"/>
</svg>
